<svg width="320" height="320" viewBox="0 0 320 320" fill="none" xmlns="http://www.w3.org/2000/svg">
<path d="M301.448 85.0741L194.071 273.182C190.824 278.856 186.159 283.565 180.545 286.84C174.93 290.114 168.563 291.837 162.082 291.837C155.601 291.837 149.234 290.114 143.62 286.84C138.005 283.565 133.341 278.856 130.094 273.182L111.271 240.232C111.21 240.15 111.184 240.047 111.198 239.946C111.212 239.845 111.266 239.753 111.347 239.692C111.428 239.631 111.529 239.604 111.629 239.619C111.729 239.633 111.82 239.687 111.88 239.769C115.238 243.122 119.31 245.653 123.783 247.17C128.257 248.687 133.014 249.148 137.692 248.52C142.369 247.891 146.842 246.189 150.769 243.544C154.696 240.898 157.973 237.379 160.349 233.256L250.236 75.6321C252.606 71.4706 253.997 66.8132 254.302 62.0207C254.606 57.2282 253.816 52.4291 251.992 47.995C250.169 43.5609 247.361 39.6108 243.785 36.4506C240.21 33.2903 235.964 31.0047 231.375 29.7708C231.274 29.7708 231.177 29.7302 231.105 29.6579C231.034 29.5856 230.994 29.4876 230.994 29.3854C230.994 29.2832 231.034 29.1852 231.105 29.1129C231.177 29.0406 231.274 29 231.375 29H269.479C275.963 29.0071 282.332 30.7395 287.945 34.0234C293.559 37.3073 298.219 42.0271 301.458 47.7088C304.697 53.3905 306.402 59.8342 306.4 66.3928C306.398 72.9514 304.69 79.3942 301.448 85.0741ZM174.333 29H137.105C137.029 29.0254 136.962 29.0744 136.915 29.1401C136.868 29.2059 136.843 29.285 136.843 29.3661C136.843 29.4473 136.868 29.5264 136.915 29.5921C136.962 29.6579 137.029 29.7069 137.105 29.7323C139.613 30.7118 141.881 32.2273 143.756 34.1753C145.631 36.1233 147.068 38.4577 147.969 41.0191C148.87 43.5805 149.213 46.3084 148.976 49.0163C148.738 51.7243 147.926 54.3485 146.593 56.7095L92.3328 151.631C90.9309 154.038 89.0195 156.101 86.7357 157.672C84.452 159.244 81.8526 160.284 79.1242 160.719C76.3958 161.153 73.606 160.972 70.9553 160.187C68.3045 159.402 65.8585 158.033 63.7928 156.178C63.7322 156.097 63.6419 156.043 63.5419 156.028C63.4418 156.014 63.3402 156.04 63.2593 156.101C63.1785 156.163 63.125 156.254 63.1108 156.355C63.0965 156.456 63.1225 156.559 63.1831 156.641L82.2352 190.093C84.3743 193.847 87.4534 196.964 91.1626 199.132C94.8717 201.3 99.08 202.441 103.364 202.441C107.648 202.441 111.856 201.3 115.565 199.132C119.274 196.964 122.354 193.847 124.493 190.093L195.481 65.9974C197.622 62.2457 198.749 57.9898 198.748 53.6577C198.747 49.3257 197.617 45.0704 195.474 41.32C193.33 37.5697 190.247 34.4565 186.536 32.2937C182.825 30.131 178.616 28.995 174.333 29ZM45.1218 29C38.7687 29 32.5583 30.9054 27.2759 34.4753C21.9935 38.0451 17.8764 43.1191 15.4451 49.0556C13.0139 54.992 12.3778 61.5243 13.6172 67.8265C14.8567 74.1286 17.916 79.9174 22.4083 84.461C26.9006 89.0046 32.6241 92.0988 38.8551 93.3523C45.0861 94.6059 51.5448 93.9625 57.4142 91.5036C63.2837 89.0446 68.3005 84.8805 71.8301 79.5378C75.3596 74.1952 77.2436 67.9139 77.2436 61.4883C77.2486 57.2205 76.4211 52.9935 74.8086 49.0496C73.1961 45.1056 70.8303 41.5221 67.8465 38.5043C64.8627 35.4865 61.3196 33.0936 57.4202 31.4627C53.5207 29.8318 49.3415 28.995 45.1218 29Z" fill="url(#paint0_linear_532_500)"/>
<defs>
<linearGradient id="paint0_linear_532_500" x1="64.345" y1="300.395" x2="249.676" y2="-29.0372" gradientUnits="userSpaceOnUse">
<stop stop-color="#674031"/>
<stop offset="0.3125" stop-color="#FFECE3"/>
<stop offset="0.625" stop-color="#6D4637"/>
<stop offset="1" stop-color="#FFECE3"/>
</linearGradient>
</defs>
</svg>
