<svg width="320" height="320" viewBox="0 0 320 320" fill="none" xmlns="http://www.w3.org/2000/svg">
<path d="M301.747 85.065L194.37 273.143C191.124 278.815 186.459 283.524 180.845 286.798C175.23 290.071 168.863 291.795 162.382 291.795C155.901 291.795 149.534 290.071 143.92 286.798C138.305 283.524 133.641 278.815 130.394 273.143L111.571 240.197C111.51 240.115 111.484 240.013 111.499 239.912C111.513 239.81 111.566 239.719 111.647 239.658C111.728 239.596 111.83 239.57 111.93 239.585C112.03 239.599 112.12 239.653 112.181 239.735C115.538 243.087 119.61 245.618 124.084 247.134C128.557 248.651 133.315 249.112 137.992 248.484C142.669 247.856 147.142 246.154 151.069 243.509C154.996 240.864 158.273 237.345 160.649 233.223L250.535 75.6245C252.905 71.4636 254.296 66.8071 254.601 62.0153C254.905 57.2236 254.115 52.4253 252.291 47.9919C250.468 43.5585 247.66 39.6091 244.084 36.4494C240.509 33.2896 236.263 31.0044 231.674 29.7707C231.573 29.7707 231.476 29.7301 231.405 29.6578C231.333 29.5856 231.293 29.4875 231.293 29.3853C231.293 29.2832 231.333 29.1851 231.405 29.1129C231.476 29.0406 231.573 29 231.674 29H269.778C276.262 29.0071 282.631 30.7393 288.244 34.0226C293.857 37.306 298.518 42.025 301.757 47.7058C304.996 53.3865 306.7 59.8291 306.699 66.3867C306.697 72.9443 304.989 79.386 301.747 85.065V85.065ZM174.633 29H137.405C137.329 29.0254 137.263 29.0744 137.216 29.1401C137.169 29.2059 137.143 29.2849 137.143 29.3661C137.143 29.4472 137.169 29.5263 137.216 29.592C137.263 29.6578 137.329 29.7068 137.405 29.7321C139.913 30.7115 142.181 32.2268 144.056 34.1745C145.931 36.1221 147.368 38.4562 148.269 41.0171C149.17 43.5781 149.513 46.3055 149.276 49.0131C149.038 51.7206 148.226 54.3443 146.893 56.705L92.6334 151.611C91.2315 154.017 89.3201 156.08 87.0364 157.651C84.7526 159.222 82.1533 160.262 79.4249 160.697C76.6965 161.132 73.9068 160.95 71.2561 160.165C68.6053 159.38 66.1593 158.012 64.0936 156.158C64.033 156.076 63.9427 156.022 63.8427 156.007C63.7427 155.993 63.641 156.019 63.5602 156.081C63.4793 156.142 63.4259 156.233 63.4116 156.334C63.3973 156.435 63.4233 156.538 63.484 156.62L82.5359 190.066C84.675 193.82 87.754 196.937 91.4632 199.104C95.1723 201.272 99.3805 202.413 103.664 202.413C107.948 202.413 112.157 201.272 115.866 199.104C119.575 196.937 122.654 193.82 124.793 190.066L195.78 65.9913C197.922 62.2403 199.049 57.985 199.047 53.6537C199.046 49.3224 197.917 45.0678 195.773 41.318C193.63 37.5683 190.547 34.4556 186.836 32.2932C183.125 30.1308 178.916 28.995 174.633 29V29ZM45.4228 29C39.0698 29 32.8594 30.9051 27.577 34.4744C22.2947 38.0437 18.1776 43.1168 15.7464 49.0523C13.3152 54.9878 12.6791 61.519 13.9185 67.8201C15.1579 74.1212 18.2172 79.9091 22.7095 84.4519C27.2017 88.9948 32.9252 92.0885 39.1562 93.3418C45.3872 94.5952 51.8457 93.9519 57.7151 91.4934C63.5846 89.0348 68.6013 84.8714 72.1308 79.5296C75.6604 74.1878 77.5443 67.9075 77.5443 61.483C77.5493 57.2159 76.7219 52.9896 75.1094 49.0463C73.4969 45.103 71.131 41.5201 68.1473 38.5028C65.1635 35.4854 61.6205 33.0929 57.7211 31.4623C53.8217 29.8317 49.6424 28.995 45.4228 29V29Z" fill="url(#paint0_linear_532_491)"/>
<defs>
<linearGradient id="paint0_linear_532_491" x1="302.945" y1="236.962" x2="-34.8946" y2="10.0914" gradientUnits="userSpaceOnUse">
<stop stop-color="#5433FF"/>
<stop offset="0.5" stop-color="#20BDFF"/>
<stop offset="1" stop-color="#5CFFA2"/>
</linearGradient>
</defs>
</svg>
