<svg width="320" height="320" viewBox="0 0 320 320" fill="none" xmlns="http://www.w3.org/2000/svg">
<g clip-path="url(#clip0_532_530)">
<path d="M160.01 320.021C248.382 320.021 320.021 248.382 320.021 160.01C320.021 71.6391 248.382 0 160.01 0C71.6391 0 0 71.6391 0 160.01C0 248.382 71.6391 320.021 160.01 320.021Z" fill="url(#paint0_linear_532_530)"/>
<path d="M108.182 156.975H237.861L246.611 138.093H220.549L220.717 137.738L237.065 102.277C239.242 97.5674 237.17 91.9574 232.481 89.8223C227.729 87.6453 222.161 89.7176 219.984 94.4066L199.993 137.738L199.826 138.093H120.218L120.051 137.738L100.06 94.4066C97.8829 89.6967 92.2729 87.6243 87.563 89.8223C82.8532 91.9784 80.7808 97.5674 82.9788 102.277L99.3273 137.738L99.4947 138.093H81.953L73.245 156.975H108.224H108.182Z" fill="white"/>
<path d="M73.2031 194.654H125.556L125.912 195.449L151.429 250.858C152.978 254.208 156.327 256.322 159.97 256.322C163.612 256.322 166.982 254.208 168.51 250.858L194.069 195.449L194.446 194.654H237.84L246.59 175.814H81.9112L73.2031 194.654ZM173.346 195.449L159.991 224.441L146.635 195.449L146.28 194.654H173.743L173.367 195.449H173.346Z" fill="white"/>
</g>
<defs>
<linearGradient id="paint0_linear_532_530" x1="315.927" y1="253.248" x2="-76.6978" y2="17.0886" gradientUnits="userSpaceOnUse">
<stop stop-color="#5433FF"/>
<stop offset="0.5" stop-color="#20BDFF"/>
<stop offset="1" stop-color="#5CFFA2"/>
</linearGradient>
<clipPath id="clip0_532_530">
<rect width="320" height="320" fill="white"/>
</clipPath>
</defs>
</svg>
