<svg xmlns="http://www.w3.org/2000/svg" viewBox="0 0 2000 950" font-family="system-ui, -apple-system, 'Segoe UI', Roboto, Inter, sans-serif">
  <defs>
    <marker id="arrow" viewBox="0 0 10 10" refX="9" refY="5" markerWidth="8" markerHeight="8" orient="auto-start-reverse">
      <path d="M 0 0 L 10 5 L 0 10 z" fill="#A83AFF"/>
    </marker>
    <style>
      .box        { fill: #2A2D3E; stroke: #4B5563; stroke-width: 1.5; }
      .box-prim   { fill: #2D2756; stroke: #A83AFF; stroke-width: 2; }
      .lbl        { fill: #F3F4F6; font-size: 22px; font-weight: 500; text-anchor: middle; dominant-baseline: middle; }
      .lbl-bold   { fill: #FFFFFF; font-size: 26px; font-weight: 600; text-anchor: middle; dominant-baseline: middle; }
      .ann        { fill: #9CA3AF; font-size: 18px; text-anchor: middle; dominant-baseline: middle; }
      .flow       { stroke: #A83AFF; stroke-width: 2.5; fill: none; }
    </style>
  </defs>

  <!-- Row 1: Sources + PSR -->
  <rect class="box"      x="80"   y="60"  width="260" height="100" rx="8"/>
  <text class="lbl"      x="210"  y="110">Core pool</text>

  <rect class="box-prim" x="780"  y="40"  width="440" height="140" rx="10"/>
  <text class="lbl-bold" x="1000" y="110">Protocol Share Reserve</text>

  <rect class="box"      x="1660" y="60"  width="260" height="100" rx="8"/>
  <text class="lbl"      x="1790" y="110">Isolated pools</text>

  <!-- Core pool <-> PSR arrows -->
  <path class="flow" d="M 340 95  L 770 95"  marker-end="url(#arrow)"/>
  <text class="ann"  x="555" y="82">Interest reserves</text>
  <path class="flow" d="M 770 130 L 340 130" marker-end="url(#arrow)"/>
  <text class="ann"  x="555" y="148">Liquidations</text>

  <!-- PSR <-> Isolated pools arrows -->
  <path class="flow" d="M 1660 95  L 1230 95"  marker-end="url(#arrow)"/>
  <text class="ann"  x="1445" y="82">Interest reserves</text>
  <path class="flow" d="M 1230 130 L 1660 130" marker-end="url(#arrow)"/>
  <text class="ann"  x="1445" y="148">Liquidations</text>

  <!-- Row 2: 4 buyback boxes (centers at x = 286, 762, 1238, 1714) -->
  <rect class="box" x="96"   y="370" width="380" height="120" rx="8"/>
  <text class="lbl" x="286"  y="412">XVS buyback</text>
  <text class="lbl" x="286"  y="448">contract</text>

  <rect class="box" x="572"  y="370" width="380" height="120" rx="8"/>
  <text class="lbl" x="762"  y="412">Prime buyback</text>
  <text class="lbl" x="762"  y="448">contracts</text>

  <rect class="box" x="1048" y="370" width="380" height="120" rx="8"/>
  <text class="lbl" x="1238" y="412">Treasury buyback</text>
  <text class="lbl" x="1238" y="448">contracts</text>

  <rect class="box" x="1524" y="370" width="380" height="120" rx="8"/>
  <text class="lbl" x="1714" y="412">Risk fund buyback</text>
  <text class="lbl" x="1714" y="448">contract</text>

  <!-- PSR -> buyback fan-out -->
  <path class="flow" d="M 1000 180 L 286  370" marker-end="url(#arrow)"/>
  <path class="flow" d="M 1000 180 L 762  370" marker-end="url(#arrow)"/>
  <path class="flow" d="M 1000 180 L 1238 370" marker-end="url(#arrow)"/>
  <path class="flow" d="M 1000 180 L 1714 370" marker-end="url(#arrow)"/>

  <!-- Row 3: XVS Vault Treasury + Risk Fund V2 (with explicit boxes) -->
  <rect class="box" x="96"   y="600" width="380" height="80" rx="8"/>
  <text class="lbl" x="286"  y="640">XVS Vault Treasury</text>

  <rect class="box" x="1524" y="600" width="380" height="80" rx="8"/>
  <text class="lbl" x="1714" y="640">Risk Fund V2</text>

  <path class="flow" d="M 286  490 L 286  600" marker-end="url(#arrow)"/>
  <path class="flow" d="M 1714 490 L 1714 600" marker-end="url(#arrow)"/>

  <!-- Text-only destination annotations for Prime + Treasury -->
  <path class="flow" d="M 762  490 L 762  520" marker-end="url(#arrow)"/>
  <text class="ann" x="762"  y="540">PrimeLiquidityProvider</text>
  <path class="flow" d="M 1238 490 L 1238 520" marker-end="url(#arrow)"/>
  <text class="ann" x="1238" y="540">VTreasury</text>

  <!-- Row 4: XVS Vault -->
  <rect class="box" x="96"   y="770" width="380" height="80" rx="8"/>
  <text class="lbl" x="286"  y="810">XVS Vault</text>
  <path class="flow" d="M 286 680 L 286 770" marker-end="url(#arrow)"/>
</svg>
