<svg width="474" height="1015" viewBox="0 0 474 1015" fill="none" xmlns="http://www.w3.org/2000/svg">
<rect width="372" height="136" rx="16" fill="#272E3F"/>
<path d="M114.739 34.322H118.173V48.024C118.173 49.996 118.705 51.5487 119.771 52.682C120.836 53.8153 122.343 54.382 124.293 54.382C126.242 54.382 127.738 53.8153 128.781 52.682C129.846 51.5487 130.379 49.996 130.379 48.024V34.322H133.813V48.092C133.813 50.9933 132.997 53.2713 131.365 54.926C129.755 56.5807 127.398 57.408 124.293 57.408C121.187 57.408 118.819 56.5807 117.187 54.926C115.555 53.2487 114.739 50.982 114.739 48.126V34.322ZM149.893 46.494C149.893 45.202 149.587 44.284 148.975 43.74C148.386 43.1733 147.525 42.89 146.391 42.89C145.485 42.89 144.623 43.128 143.807 43.604C142.991 44.0573 142.345 44.6127 141.869 45.27V57H138.809V40.578H141.869V42.89C142.481 42.142 143.309 41.5073 144.351 40.986C145.394 40.442 146.505 40.17 147.683 40.17C149.406 40.17 150.709 40.6233 151.593 41.53C152.5 42.414 152.953 43.7287 152.953 45.474V57H149.893V46.494ZM159.298 37.824C158.754 37.824 158.289 37.6427 157.904 37.28C157.518 36.8947 157.326 36.43 157.326 35.886C157.326 35.342 157.518 34.8773 157.904 34.492C158.312 34.1067 158.776 33.914 159.298 33.914C159.842 33.914 160.306 34.1067 160.692 34.492C161.077 34.8773 161.27 35.342 161.27 35.886C161.27 36.43 161.077 36.8947 160.692 37.28C160.306 37.6427 159.842 37.824 159.298 37.824ZM157.802 40.578H160.862V57H157.802V40.578ZM170.259 57.408C168.967 57.408 167.992 57.0567 167.335 56.354C166.678 55.6513 166.349 54.654 166.349 53.362V43.264H163.629V40.578H166.349V36.09H169.409V40.578H172.741V43.264H169.409V52.682C169.409 53.2713 169.545 53.7587 169.817 54.144C170.089 54.5067 170.486 54.688 171.007 54.688C171.347 54.688 171.664 54.6313 171.959 54.518C172.276 54.382 172.514 54.2233 172.673 54.042L173.455 56.354C172.707 57.0567 171.642 57.408 170.259 57.408ZM176.13 40.578H179.19V43.094C179.847 42.2327 180.64 41.5413 181.57 41.02C182.522 40.476 183.519 40.204 184.562 40.204V43.298C184.244 43.23 183.893 43.196 183.508 43.196C182.737 43.196 181.91 43.4453 181.026 43.944C180.164 44.42 179.552 44.964 179.19 45.576V57H176.13V40.578ZM194.894 57.408C193.239 57.408 191.777 57.0227 190.508 56.252C189.261 55.4813 188.298 54.4387 187.618 53.124C186.938 51.8093 186.598 50.3587 186.598 48.772C186.598 47.1853 186.938 45.746 187.618 44.454C188.298 43.1393 189.261 42.0967 190.508 41.326C191.777 40.5553 193.239 40.17 194.894 40.17C196.549 40.17 197.999 40.5553 199.246 41.326C200.515 42.0967 201.49 43.1393 202.17 44.454C202.85 45.746 203.19 47.1853 203.19 48.772C203.19 50.3587 202.85 51.8093 202.17 53.124C201.49 54.4387 200.515 55.4813 199.246 56.252C197.999 57.0227 196.549 57.408 194.894 57.408ZM194.894 54.688C195.959 54.688 196.877 54.416 197.648 53.872C198.419 53.328 198.997 52.614 199.382 51.73C199.79 50.8233 199.994 49.8373 199.994 48.772C199.994 47.7293 199.79 46.7547 199.382 45.848C198.997 44.9413 198.419 44.2273 197.648 43.706C196.877 43.162 195.959 42.89 194.894 42.89C193.851 42.89 192.945 43.162 192.174 43.706C191.403 44.25 190.814 44.9753 190.406 45.882C189.998 46.766 189.794 47.7293 189.794 48.772C189.794 49.8373 189.998 50.8233 190.406 51.73C190.814 52.614 191.403 53.328 192.174 53.872C192.945 54.416 193.851 54.688 194.894 54.688ZM207.075 34.322H210.135V57H207.075V34.322ZM215.011 34.322H218.071V57H215.011V34.322ZM221.926 48.772C221.926 47.208 222.277 45.7687 222.98 44.454C223.683 43.1393 224.657 42.0967 225.904 41.326C227.173 40.5553 228.59 40.17 230.154 40.17C231.763 40.17 233.169 40.5553 234.37 41.326C235.594 42.0967 236.523 43.162 237.158 44.522C237.815 45.8593 238.144 47.3667 238.144 49.044V49.792H225.156C225.269 51.2427 225.825 52.4553 226.822 53.43C227.842 54.4047 229.145 54.892 230.732 54.892C231.616 54.892 232.5 54.722 233.384 54.382C234.268 54.042 235.005 53.566 235.594 52.954L237.022 54.96C236.206 55.7533 235.231 56.3653 234.098 56.796C232.987 57.204 231.763 57.408 230.426 57.408C228.794 57.408 227.332 57.0453 226.04 56.32C224.771 55.5947 223.762 54.586 223.014 53.294C222.289 51.9793 221.926 50.472 221.926 48.772ZM230.154 42.686C229.111 42.686 228.216 42.9353 227.468 43.434C226.743 43.91 226.187 44.522 225.802 45.27C225.417 46.018 225.19 46.7887 225.122 47.582H235.152C235.129 46.7887 234.937 46.018 234.574 45.27C234.211 44.522 233.656 43.91 232.908 43.434C232.16 42.9353 231.242 42.686 230.154 42.686ZM241.971 40.578H245.031V43.094C245.689 42.2327 246.482 41.5413 247.411 41.02C248.363 40.476 249.361 40.204 250.403 40.204V43.298C250.086 43.23 249.735 43.196 249.349 43.196C248.579 43.196 247.751 43.4453 246.867 43.944C246.006 44.42 245.394 44.964 245.031 45.576V57H241.971V40.578ZM90.9189 99.198C90.2615 99.9233 89.4795 100.479 88.5729 100.864C87.6662 101.227 86.6575 101.408 85.5469 101.408C84.5949 101.408 83.6769 101.204 82.7929 100.796C81.9315 100.365 81.2175 99.742 80.6509 98.926C80.1069 98.0873 79.8349 97.1013 79.8349 95.968C79.8349 94.7893 80.1069 93.8033 80.6509 93.01C81.1949 92.194 81.8975 91.5933 82.7589 91.208C83.6429 90.8 84.5722 90.596 85.5469 90.596C86.6802 90.596 87.7002 90.7773 88.6069 91.14C89.5362 91.5027 90.3069 92.0467 90.9189 92.772V90.052C90.9189 89.0547 90.5449 88.2613 89.7969 87.672C89.0715 87.0827 88.1082 86.788 86.9069 86.788C85.0709 86.788 83.4275 87.5133 81.9769 88.964L80.6509 86.856C82.4642 85.0653 84.7082 84.17 87.3829 84.17C89.3322 84.17 90.9189 84.6347 92.1429 85.564C93.3669 86.4933 93.9789 87.944 93.9789 89.916V101H90.9189V99.198ZM90.9189 94.608C90.4655 93.996 89.8649 93.5313 89.1169 93.214C88.3689 92.8967 87.5642 92.738 86.7029 92.738C85.5922 92.738 84.6855 93.044 83.9829 93.656C83.2802 94.2453 82.9289 95.0273 82.9289 96.002C82.9289 96.9767 83.2802 97.77 83.9829 98.382C84.6855 98.9713 85.5922 99.266 86.7029 99.266C87.5642 99.266 88.3689 99.1073 89.1169 98.79C89.8649 98.4727 90.4655 98.008 90.9189 97.396V94.608ZM110.579 98.654C109.944 99.4927 109.151 100.161 108.199 100.66C107.269 101.159 106.272 101.408 105.207 101.408C103.779 101.408 102.509 101.068 101.399 100.388C100.288 99.6853 99.4152 98.688 98.7806 97.396C98.1686 96.104 97.8626 94.574 97.8626 92.806C97.8626 91.0833 98.1686 89.576 98.7806 88.284C99.4152 86.9693 100.288 85.9607 101.399 85.258C102.509 84.5327 103.779 84.17 105.207 84.17C106.249 84.17 107.235 84.4193 108.165 84.918C109.117 85.394 109.921 86.074 110.579 86.958V78.322H113.639V101H110.579V98.654ZM110.579 89.304C110.148 88.624 109.502 88.0573 108.641 87.604C107.802 87.128 106.929 86.89 106.023 86.89C104.504 86.89 103.291 87.4453 102.385 88.556C101.501 89.644 101.059 91.0607 101.059 92.806C101.059 94.5287 101.501 95.9453 102.385 97.056C103.291 98.144 104.504 98.688 106.023 98.688C106.929 98.688 107.802 98.4613 108.641 98.008C109.502 97.5547 110.148 96.988 110.579 96.308V89.304ZM138.497 90.052C138.497 89.0547 138.259 88.284 137.783 87.74C137.329 87.1733 136.615 86.89 135.641 86.89C134.847 86.89 134.077 87.128 133.329 87.604C132.581 88.0573 131.991 88.6013 131.561 89.236V101H128.501V90.052C128.501 87.944 127.537 86.89 125.611 86.89C124.863 86.89 124.115 87.128 123.367 87.604C122.641 88.0573 122.052 88.6127 121.599 89.27V101H118.539V84.578H121.599V86.89C122.007 86.2553 122.709 85.6433 123.707 85.054C124.727 84.4647 125.792 84.17 126.903 84.17C128.104 84.17 129.079 84.4533 129.827 85.02C130.575 85.564 131.085 86.3007 131.357 87.23C131.878 86.3913 132.649 85.6773 133.669 85.088C134.689 84.476 135.765 84.17 136.899 84.17C138.417 84.17 139.573 84.5893 140.367 85.428C141.16 86.2667 141.557 87.502 141.557 89.134V101H138.497V90.052ZM147.925 81.824C147.381 81.824 146.917 81.6427 146.531 81.28C146.146 80.8947 145.953 80.43 145.953 79.886C145.953 79.342 146.146 78.8773 146.531 78.492C146.939 78.1067 147.404 77.914 147.925 77.914C148.469 77.914 148.934 78.1067 149.319 78.492C149.705 78.8773 149.897 79.342 149.897 79.886C149.897 80.43 149.705 80.8947 149.319 81.28C148.934 81.6427 148.469 81.824 147.925 81.824ZM146.429 84.578H149.489V101H146.429V84.578ZM165.449 90.494C165.449 89.202 165.143 88.284 164.531 87.74C163.942 87.1733 163.08 86.89 161.947 86.89C161.04 86.89 160.179 87.128 159.363 87.604C158.547 88.0573 157.901 88.6127 157.425 89.27V101H154.365V84.578H157.425V86.89C158.037 86.142 158.864 85.5073 159.907 84.986C160.95 84.442 162.06 84.17 163.239 84.17C164.962 84.17 166.265 84.6233 167.149 85.53C168.056 86.414 168.509 87.7287 168.509 89.474V101H165.449V90.494ZM182.157 96.614C182.746 97.2713 183.551 97.8267 184.571 98.28C185.591 98.7333 186.622 98.96 187.665 98.96C188.798 98.96 189.671 98.756 190.283 98.348C190.895 97.9173 191.201 97.3393 191.201 96.614C191.201 95.8887 190.861 95.3447 190.181 94.982C189.501 94.5967 188.515 94.2567 187.223 93.962C185.953 93.6673 184.911 93.3727 184.095 93.078C183.301 92.7607 182.61 92.2847 182.021 91.65C181.454 90.9927 181.171 90.12 181.171 89.032C181.171 88.148 181.42 87.3433 181.919 86.618C182.417 85.87 183.131 85.2807 184.061 84.85C185.013 84.3967 186.135 84.17 187.427 84.17C189.943 84.17 192.028 84.952 193.683 86.516L192.323 88.658C191.824 88.0687 191.144 87.5927 190.283 87.23C189.421 86.8447 188.481 86.652 187.461 86.652C186.418 86.652 185.591 86.8447 184.979 87.23C184.389 87.6153 184.095 88.1367 184.095 88.794C184.095 89.4287 184.412 89.916 185.047 90.256C185.681 90.5733 186.633 90.8793 187.903 91.174C189.217 91.4687 190.283 91.7747 191.099 92.092C191.937 92.4093 192.651 92.9193 193.241 93.622C193.853 94.302 194.159 95.22 194.159 96.376C194.159 97.8493 193.569 99.062 192.391 100.014C191.235 100.943 189.614 101.408 187.529 101.408C186.146 101.408 184.865 101.193 183.687 100.762C182.508 100.331 181.511 99.6967 180.695 98.858L182.157 96.614ZM202.549 101.408C201.257 101.408 200.282 101.057 199.625 100.354C198.968 99.6513 198.639 98.654 198.639 97.362V87.264H195.919V84.578H198.639V80.09H201.699V84.578H205.031V87.264H201.699V96.682C201.699 97.2713 201.835 97.7587 202.107 98.144C202.379 98.5067 202.776 98.688 203.297 98.688C203.637 98.688 203.954 98.6313 204.249 98.518C204.566 98.382 204.804 98.2233 204.963 98.042L205.745 100.354C204.997 101.057 203.932 101.408 202.549 101.408ZM215.696 101.408C214.041 101.408 212.579 101.023 211.31 100.252C210.063 99.4813 209.1 98.4387 208.42 97.124C207.74 95.8093 207.4 94.3587 207.4 92.772C207.4 91.1853 207.74 89.746 208.42 88.454C209.1 87.1393 210.063 86.0967 211.31 85.326C212.579 84.5553 214.041 84.17 215.696 84.17C217.35 84.17 218.801 84.5553 220.048 85.326C221.317 86.0967 222.292 87.1393 222.972 88.454C223.652 89.746 223.992 91.1853 223.992 92.772C223.992 94.3587 223.652 95.8093 222.972 97.124C222.292 98.4387 221.317 99.4813 220.048 100.252C218.801 101.023 217.35 101.408 215.696 101.408ZM215.696 98.688C216.761 98.688 217.679 98.416 218.45 97.872C219.22 97.328 219.798 96.614 220.184 95.73C220.592 94.8233 220.796 93.8373 220.796 92.772C220.796 91.7293 220.592 90.7547 220.184 89.848C219.798 88.9413 219.22 88.2273 218.45 87.706C217.679 87.162 216.761 86.89 215.696 86.89C214.653 86.89 213.746 87.162 212.976 87.706C212.205 88.25 211.616 88.9753 211.208 89.882C210.8 90.766 210.596 91.7293 210.596 92.772C210.596 93.8373 210.8 94.8233 211.208 95.73C211.616 96.614 212.205 97.328 212.976 97.872C213.746 98.416 214.653 98.688 215.696 98.688ZM227.877 84.578H230.937V87.094C231.594 86.2327 232.387 85.5413 233.317 85.02C234.269 84.476 235.266 84.204 236.309 84.204V87.298C235.991 87.23 235.64 87.196 235.255 87.196C234.484 87.196 233.657 87.4453 232.773 87.944C231.911 88.42 231.299 88.964 230.937 89.576V101H227.877V84.578ZM249.497 99.198C248.84 99.9233 248.058 100.479 247.151 100.864C246.244 101.227 245.236 101.408 244.125 101.408C243.173 101.408 242.255 101.204 241.371 100.796C240.51 100.365 239.796 99.742 239.229 98.926C238.685 98.0873 238.413 97.1013 238.413 95.968C238.413 94.7893 238.685 93.8033 239.229 93.01C239.773 92.194 240.476 91.5933 241.337 91.208C242.221 90.8 243.15 90.596 244.125 90.596C245.258 90.596 246.278 90.7773 247.185 91.14C248.114 91.5027 248.885 92.0467 249.497 92.772V90.052C249.497 89.0547 249.123 88.2613 248.375 87.672C247.65 87.0827 246.686 86.788 245.485 86.788C243.649 86.788 242.006 87.5133 240.555 88.964L239.229 86.856C241.042 85.0653 243.286 84.17 245.961 84.17C247.91 84.17 249.497 84.6347 250.721 85.564C251.945 86.4933 252.557 87.944 252.557 89.916V101H249.497V99.198ZM249.497 94.608C249.044 93.996 248.443 93.5313 247.695 93.214C246.947 92.8967 246.142 92.738 245.281 92.738C244.17 92.738 243.264 93.044 242.561 93.656C241.858 94.2453 241.507 95.0273 241.507 96.002C241.507 96.9767 241.858 97.77 242.561 98.382C243.264 98.9713 244.17 99.266 245.281 99.266C246.142 99.266 246.947 99.1073 247.695 98.79C248.443 98.4727 249.044 98.008 249.497 97.396V94.608ZM258.787 102.972C259.444 103.743 260.192 104.298 261.031 104.638C261.892 104.978 262.901 105.148 264.057 105.148C265.485 105.148 266.686 104.763 267.661 103.992C268.658 103.244 269.157 102.065 269.157 100.456V98.314C268.499 99.1753 267.695 99.8667 266.743 100.388C265.813 100.887 264.816 101.136 263.751 101.136C262.323 101.136 261.053 100.796 259.943 100.116C258.855 99.436 257.993 98.4613 257.359 97.192C256.747 95.9 256.441 94.3813 256.441 92.636C256.441 90.9133 256.747 89.4173 257.359 88.148C257.993 86.856 258.855 85.87 259.943 85.19C261.053 84.51 262.323 84.17 263.751 84.17C264.816 84.17 265.813 84.4193 266.743 84.918C267.695 85.394 268.499 86.074 269.157 86.958V84.578H272.217V100.354C272.217 102.961 271.435 104.831 269.871 105.964C268.329 107.097 266.391 107.664 264.057 107.664C262.629 107.664 261.382 107.483 260.317 107.12C259.274 106.757 258.277 106.123 257.325 105.216L258.787 102.972ZM269.157 89.304C268.726 88.624 268.08 88.0573 267.219 87.604C266.38 87.128 265.507 86.89 264.601 86.89C263.082 86.89 261.869 87.4227 260.963 88.488C260.079 89.5533 259.637 90.936 259.637 92.636C259.637 94.3587 260.079 95.7527 260.963 96.818C261.869 97.8833 263.082 98.416 264.601 98.416C265.485 98.416 266.357 98.178 267.219 97.702C268.08 97.226 268.726 96.648 269.157 95.968V89.304ZM276.064 92.772C276.064 91.208 276.415 89.7687 277.118 88.454C277.82 87.1393 278.795 86.0967 280.042 85.326C281.311 84.5553 282.728 84.17 284.292 84.17C285.901 84.17 287.306 84.5553 288.508 85.326C289.732 86.0967 290.661 87.162 291.296 88.522C291.953 89.8593 292.282 91.3667 292.282 93.044V93.792H279.294C279.407 95.2427 279.962 96.4553 280.96 97.43C281.98 98.4047 283.283 98.892 284.87 98.892C285.754 98.892 286.638 98.722 287.522 98.382C288.406 98.042 289.142 97.566 289.732 96.954L291.16 98.96C290.344 99.7533 289.369 100.365 288.236 100.796C287.125 101.204 285.901 101.408 284.564 101.408C282.932 101.408 281.47 101.045 280.178 100.32C278.908 99.5947 277.9 98.586 277.152 97.294C276.426 95.9793 276.064 94.472 276.064 92.772ZM284.292 86.686C283.249 86.686 282.354 86.9353 281.606 87.434C280.88 87.91 280.325 88.522 279.94 89.27C279.554 90.018 279.328 90.7887 279.26 91.582H289.29C289.267 90.7887 289.074 90.018 288.712 89.27C288.349 88.522 287.794 87.91 287.046 87.434C286.298 86.9353 285.38 86.686 284.292 86.686Z" fill="white"/>
<rect y="236" width="372" height="136" rx="16" fill="#272E3F"/>
<path d="M105.924 293.408C103.771 293.408 101.81 292.921 100.042 291.946C98.2744 290.949 96.8691 289.555 95.8264 287.764C94.8064 285.973 94.2964 283.945 94.2964 281.678C94.2964 279.411 94.8064 277.383 95.8264 275.592C96.8691 273.801 98.2744 272.419 100.042 271.444C101.81 270.447 103.771 269.948 105.924 269.948C109.8 269.948 112.804 271.546 114.934 274.742L112.044 276.272C111.432 275.275 110.582 274.481 109.494 273.892C108.406 273.28 107.216 272.974 105.924 272.974C104.406 272.974 103.023 273.348 101.776 274.096C100.552 274.844 99.5778 275.875 98.8524 277.19C98.1498 278.505 97.7984 280.001 97.7984 281.678C97.7984 283.333 98.1498 284.829 98.8524 286.166C99.5778 287.481 100.552 288.512 101.776 289.26C103.023 290.008 104.406 290.382 105.924 290.382C107.216 290.382 108.406 290.087 109.494 289.498C110.582 288.886 111.432 288.081 112.044 287.084L114.934 288.614C112.758 291.81 109.755 293.408 105.924 293.408ZM125.533 293.408C123.878 293.408 122.416 293.023 121.147 292.252C119.9 291.481 118.937 290.439 118.257 289.124C117.577 287.809 117.237 286.359 117.237 284.772C117.237 283.185 117.577 281.746 118.257 280.454C118.937 279.139 119.9 278.097 121.147 277.326C122.416 276.555 123.878 276.17 125.533 276.17C127.187 276.17 128.638 276.555 129.885 277.326C131.154 278.097 132.129 279.139 132.809 280.454C133.489 281.746 133.829 283.185 133.829 284.772C133.829 286.359 133.489 287.809 132.809 289.124C132.129 290.439 131.154 291.481 129.885 292.252C128.638 293.023 127.187 293.408 125.533 293.408ZM125.533 290.688C126.598 290.688 127.516 290.416 128.287 289.872C129.057 289.328 129.635 288.614 130.021 287.73C130.429 286.823 130.633 285.837 130.633 284.772C130.633 283.729 130.429 282.755 130.021 281.848C129.635 280.941 129.057 280.227 128.287 279.706C127.516 279.162 126.598 278.89 125.533 278.89C124.49 278.89 123.583 279.162 122.813 279.706C122.042 280.25 121.453 280.975 121.045 281.882C120.637 282.766 120.433 283.729 120.433 284.772C120.433 285.837 120.637 286.823 121.045 287.73C121.453 288.614 122.042 289.328 122.813 289.872C123.583 290.416 124.49 290.688 125.533 290.688ZM157.672 282.052C157.672 281.055 157.434 280.284 156.958 279.74C156.504 279.173 155.79 278.89 154.816 278.89C154.022 278.89 153.252 279.128 152.504 279.604C151.756 280.057 151.166 280.601 150.736 281.236V293H147.676V282.052C147.676 279.944 146.712 278.89 144.786 278.89C144.038 278.89 143.29 279.128 142.542 279.604C141.816 280.057 141.227 280.613 140.774 281.27V293H137.714V276.578H140.774V278.89C141.182 278.255 141.884 277.643 142.882 277.054C143.902 276.465 144.967 276.17 146.078 276.17C147.279 276.17 148.254 276.453 149.002 277.02C149.75 277.564 150.26 278.301 150.532 279.23C151.053 278.391 151.824 277.677 152.844 277.088C153.864 276.476 154.94 276.17 156.074 276.17C157.592 276.17 158.748 276.589 159.542 277.428C160.335 278.267 160.732 279.502 160.732 281.134V293H157.672V282.052ZM165.604 299.256V276.578H168.664V278.924C169.276 278.085 170.047 277.417 170.976 276.918C171.928 276.419 172.948 276.17 174.036 276.17C175.464 276.17 176.722 276.521 177.81 277.224C178.921 277.904 179.782 278.89 180.394 280.182C181.029 281.474 181.346 283.004 181.346 284.772C181.346 286.54 181.029 288.081 180.394 289.396C179.782 290.688 178.921 291.685 177.81 292.388C176.722 293.068 175.464 293.408 174.036 293.408C172.971 293.408 171.974 293.17 171.044 292.694C170.115 292.218 169.322 291.527 168.664 290.62V299.256H165.604ZM178.15 284.772C178.15 283.049 177.697 281.644 176.79 280.556C175.906 279.445 174.716 278.89 173.22 278.89C172.314 278.89 171.43 279.128 170.568 279.604C169.707 280.057 169.072 280.624 168.664 281.304V288.274C169.095 288.954 169.73 289.532 170.568 290.008C171.43 290.461 172.314 290.688 173.22 290.688C174.716 290.688 175.906 290.144 176.79 289.056C177.697 287.945 178.15 286.517 178.15 284.772ZM189.749 293.408C188.457 293.408 187.483 293.057 186.825 292.354C186.168 291.651 185.839 290.654 185.839 289.362V279.264H183.119V276.578H185.839V272.09H188.899V276.578H192.231V279.264H188.899V288.682C188.899 289.271 189.035 289.759 189.307 290.144C189.579 290.507 189.976 290.688 190.497 290.688C190.837 290.688 191.155 290.631 191.449 290.518C191.767 290.382 192.005 290.223 192.163 290.042L192.945 292.354C192.197 293.057 191.132 293.408 189.749 293.408ZM195.62 276.578H198.68V279.094C199.337 278.233 200.131 277.541 201.06 277.02C202.012 276.476 203.009 276.204 204.052 276.204V279.298C203.735 279.23 203.383 279.196 202.998 279.196C202.227 279.196 201.4 279.445 200.516 279.944C199.655 280.42 199.043 280.964 198.68 281.576V293H195.62V276.578ZM214.384 293.408C212.729 293.408 211.267 293.023 209.998 292.252C208.751 291.481 207.788 290.439 207.108 289.124C206.428 287.809 206.088 286.359 206.088 284.772C206.088 283.185 206.428 281.746 207.108 280.454C207.788 279.139 208.751 278.097 209.998 277.326C211.267 276.555 212.729 276.17 214.384 276.17C216.039 276.17 217.489 276.555 218.736 277.326C220.005 278.097 220.98 279.139 221.66 280.454C222.34 281.746 222.68 283.185 222.68 284.772C222.68 286.359 222.34 287.809 221.66 289.124C220.98 290.439 220.005 291.481 218.736 292.252C217.489 293.023 216.039 293.408 214.384 293.408ZM214.384 290.688C215.449 290.688 216.367 290.416 217.138 289.872C217.909 289.328 218.487 288.614 218.872 287.73C219.28 286.823 219.484 285.837 219.484 284.772C219.484 283.729 219.28 282.755 218.872 281.848C218.487 280.941 217.909 280.227 217.138 279.706C216.367 279.162 215.449 278.89 214.384 278.89C213.341 278.89 212.435 279.162 211.664 279.706C210.893 280.25 210.304 280.975 209.896 281.882C209.488 282.766 209.284 283.729 209.284 284.772C209.284 285.837 209.488 286.823 209.896 287.73C210.304 288.614 210.893 289.328 211.664 289.872C212.435 290.416 213.341 290.688 214.384 290.688ZM226.565 270.322H229.625V293H226.565V270.322ZM234.501 270.322H237.561V293H234.501V270.322ZM241.416 284.772C241.416 283.208 241.768 281.769 242.47 280.454C243.173 279.139 244.148 278.097 245.394 277.326C246.664 276.555 248.08 276.17 249.644 276.17C251.254 276.17 252.659 276.555 253.86 277.326C255.084 278.097 256.014 279.162 256.648 280.522C257.306 281.859 257.634 283.367 257.634 285.044V285.792H244.646C244.76 287.243 245.315 288.455 246.312 289.43C247.332 290.405 248.636 290.892 250.222 290.892C251.106 290.892 251.99 290.722 252.874 290.382C253.758 290.042 254.495 289.566 255.084 288.954L256.512 290.96C255.696 291.753 254.722 292.365 253.588 292.796C252.478 293.204 251.254 293.408 249.916 293.408C248.284 293.408 246.822 293.045 245.53 292.32C244.261 291.595 243.252 290.586 242.504 289.294C241.779 287.979 241.416 286.472 241.416 284.772ZM249.644 278.686C248.602 278.686 247.706 278.935 246.958 279.434C246.233 279.91 245.678 280.522 245.292 281.27C244.907 282.018 244.68 282.789 244.612 283.582H254.642C254.62 282.789 254.427 282.018 254.064 281.27C253.702 280.522 253.146 279.91 252.398 279.434C251.65 278.935 250.732 278.686 249.644 278.686ZM261.462 276.578H264.522V279.094C265.179 278.233 265.972 277.541 266.902 277.02C267.854 276.476 268.851 276.204 269.894 276.204V279.298C269.576 279.23 269.225 279.196 268.84 279.196C268.069 279.196 267.242 279.445 266.358 279.944C265.496 280.42 264.884 280.964 264.522 281.576V293H261.462V276.578ZM100.055 320.578H103.319L108.453 333.464L113.587 320.578H116.885L110.119 337H106.821L100.055 320.578ZM123.211 318.776L119.539 322.618L117.533 320.544L123.619 314.322H126.611V337H123.211V318.776ZM130.908 334.314C134.058 331.889 136.484 329.939 138.184 328.466C139.884 326.97 141.164 325.61 142.026 324.386C142.887 323.162 143.318 321.972 143.318 320.816C143.318 319.569 142.887 318.629 142.026 317.994C141.164 317.337 140.122 317.008 138.898 317.008C137.606 317.008 136.438 317.257 135.396 317.756C134.353 318.255 133.469 318.935 132.744 319.796L130.738 317.586C131.667 316.43 132.846 315.546 134.274 314.934C135.724 314.299 137.254 313.982 138.864 313.982C140.269 313.982 141.572 314.243 142.774 314.764C143.975 315.285 144.938 316.067 145.664 317.11C146.412 318.13 146.786 319.365 146.786 320.816C146.786 322.856 145.913 324.885 144.168 326.902C142.445 328.919 139.827 331.288 136.314 334.008H146.888V337H130.908V334.314ZM160.475 332.614C161.064 333.271 161.869 333.827 162.889 334.28C163.909 334.733 164.94 334.96 165.983 334.96C167.116 334.96 167.989 334.756 168.601 334.348C169.213 333.917 169.519 333.339 169.519 332.614C169.519 331.889 169.179 331.345 168.499 330.982C167.819 330.597 166.833 330.257 165.541 329.962C164.272 329.667 163.229 329.373 162.413 329.078C161.62 328.761 160.928 328.285 160.339 327.65C159.772 326.993 159.489 326.12 159.489 325.032C159.489 324.148 159.738 323.343 160.237 322.618C160.736 321.87 161.45 321.281 162.379 320.85C163.331 320.397 164.453 320.17 165.745 320.17C168.261 320.17 170.346 320.952 172.001 322.516L170.641 324.658C170.142 324.069 169.462 323.593 168.601 323.23C167.74 322.845 166.799 322.652 165.779 322.652C164.736 322.652 163.909 322.845 163.297 323.23C162.708 323.615 162.413 324.137 162.413 324.794C162.413 325.429 162.73 325.916 163.365 326.256C164 326.573 164.952 326.879 166.221 327.174C167.536 327.469 168.601 327.775 169.417 328.092C170.256 328.409 170.97 328.919 171.559 329.622C172.171 330.302 172.477 331.22 172.477 332.376C172.477 333.849 171.888 335.062 170.709 336.014C169.553 336.943 167.932 337.408 165.847 337.408C164.464 337.408 163.184 337.193 162.005 336.762C160.826 336.331 159.829 335.697 159.013 334.858L160.475 332.614ZM180.867 337.408C179.575 337.408 178.601 337.057 177.943 336.354C177.286 335.651 176.957 334.654 176.957 333.362V323.264H174.237V320.578H176.957V316.09H180.017V320.578H183.349V323.264H180.017V332.682C180.017 333.271 180.153 333.759 180.425 334.144C180.697 334.507 181.094 334.688 181.615 334.688C181.955 334.688 182.273 334.631 182.567 334.518C182.885 334.382 183.123 334.223 183.281 334.042L184.063 336.354C183.315 337.057 182.25 337.408 180.867 337.408ZM194.014 337.408C192.359 337.408 190.897 337.023 189.628 336.252C188.381 335.481 187.418 334.439 186.738 333.124C186.058 331.809 185.718 330.359 185.718 328.772C185.718 327.185 186.058 325.746 186.738 324.454C187.418 323.139 188.381 322.097 189.628 321.326C190.897 320.555 192.359 320.17 194.014 320.17C195.669 320.17 197.119 320.555 198.366 321.326C199.635 322.097 200.61 323.139 201.29 324.454C201.97 325.746 202.31 327.185 202.31 328.772C202.31 330.359 201.97 331.809 201.29 333.124C200.61 334.439 199.635 335.481 198.366 336.252C197.119 337.023 195.669 337.408 194.014 337.408ZM194.014 334.688C195.079 334.688 195.997 334.416 196.768 333.872C197.539 333.328 198.117 332.614 198.502 331.73C198.91 330.823 199.114 329.837 199.114 328.772C199.114 327.729 198.91 326.755 198.502 325.848C198.117 324.941 197.539 324.227 196.768 323.706C195.997 323.162 195.079 322.89 194.014 322.89C192.971 322.89 192.065 323.162 191.294 323.706C190.523 324.25 189.934 324.975 189.526 325.882C189.118 326.766 188.914 327.729 188.914 328.772C188.914 329.837 189.118 330.823 189.526 331.73C189.934 332.614 190.523 333.328 191.294 333.872C192.065 334.416 192.971 334.688 194.014 334.688ZM206.195 320.578H209.255V323.094C209.912 322.233 210.706 321.541 211.635 321.02C212.587 320.476 213.584 320.204 214.627 320.204V323.298C214.31 323.23 213.958 323.196 213.573 323.196C212.802 323.196 211.975 323.445 211.091 323.944C210.23 324.42 209.618 324.964 209.255 325.576V337H206.195V320.578ZM227.815 335.198C227.158 335.923 226.376 336.479 225.469 336.864C224.563 337.227 223.554 337.408 222.443 337.408C221.491 337.408 220.573 337.204 219.689 336.796C218.828 336.365 218.114 335.742 217.547 334.926C217.003 334.087 216.731 333.101 216.731 331.968C216.731 330.789 217.003 329.803 217.547 329.01C218.091 328.194 218.794 327.593 219.655 327.208C220.539 326.8 221.469 326.596 222.443 326.596C223.577 326.596 224.597 326.777 225.503 327.14C226.433 327.503 227.203 328.047 227.815 328.772V326.052C227.815 325.055 227.441 324.261 226.693 323.672C225.968 323.083 225.005 322.788 223.803 322.788C221.967 322.788 220.324 323.513 218.873 324.964L217.547 322.856C219.361 321.065 221.605 320.17 224.279 320.17C226.229 320.17 227.815 320.635 229.039 321.564C230.263 322.493 230.875 323.944 230.875 325.916V337H227.815V335.198ZM227.815 330.608C227.362 329.996 226.761 329.531 226.013 329.214C225.265 328.897 224.461 328.738 223.599 328.738C222.489 328.738 221.582 329.044 220.879 329.656C220.177 330.245 219.825 331.027 219.825 332.002C219.825 332.977 220.177 333.77 220.879 334.382C221.582 334.971 222.489 335.266 223.599 335.266C224.461 335.266 225.265 335.107 226.013 334.79C226.761 334.473 227.362 334.008 227.815 333.396V330.608ZM237.105 338.972C237.762 339.743 238.51 340.298 239.349 340.638C240.21 340.978 241.219 341.148 242.375 341.148C243.803 341.148 245.004 340.763 245.979 339.992C246.976 339.244 247.475 338.065 247.475 336.456V334.314C246.818 335.175 246.013 335.867 245.061 336.388C244.132 336.887 243.134 337.136 242.069 337.136C240.641 337.136 239.372 336.796 238.261 336.116C237.173 335.436 236.312 334.461 235.677 333.192C235.065 331.9 234.759 330.381 234.759 328.636C234.759 326.913 235.065 325.417 235.677 324.148C236.312 322.856 237.173 321.87 238.261 321.19C239.372 320.51 240.641 320.17 242.069 320.17C243.134 320.17 244.132 320.419 245.061 320.918C246.013 321.394 246.818 322.074 247.475 322.958V320.578H250.535V336.354C250.535 338.961 249.753 340.831 248.189 341.964C246.648 343.097 244.71 343.664 242.375 343.664C240.947 343.664 239.7 343.483 238.635 343.12C237.592 342.757 236.595 342.123 235.643 341.216L237.105 338.972ZM247.475 325.304C247.044 324.624 246.398 324.057 245.537 323.604C244.698 323.128 243.826 322.89 242.919 322.89C241.4 322.89 240.188 323.423 239.281 324.488C238.397 325.553 237.955 326.936 237.955 328.636C237.955 330.359 238.397 331.753 239.281 332.818C240.188 333.883 241.4 334.416 242.919 334.416C243.803 334.416 244.676 334.178 245.537 333.702C246.398 333.226 247.044 332.648 247.475 331.968V325.304ZM254.382 328.772C254.382 327.208 254.733 325.769 255.436 324.454C256.139 323.139 257.113 322.097 258.36 321.326C259.629 320.555 261.046 320.17 262.61 320.17C264.219 320.17 265.625 320.555 266.826 321.326C268.05 322.097 268.979 323.162 269.614 324.522C270.271 325.859 270.6 327.367 270.6 329.044V329.792H257.612C257.725 331.243 258.281 332.455 259.278 333.43C260.298 334.405 261.601 334.892 263.188 334.892C264.072 334.892 264.956 334.722 265.84 334.382C266.724 334.042 267.461 333.566 268.05 332.954L269.478 334.96C268.662 335.753 267.687 336.365 266.554 336.796C265.443 337.204 264.219 337.408 262.882 337.408C261.25 337.408 259.788 337.045 258.496 336.32C257.227 335.595 256.218 334.586 255.47 333.294C254.745 331.979 254.382 330.472 254.382 328.772ZM262.61 322.686C261.567 322.686 260.672 322.935 259.924 323.434C259.199 323.91 258.643 324.522 258.258 325.27C257.873 326.018 257.646 326.789 257.578 327.582H267.608C267.585 326.789 267.393 326.018 267.03 325.27C266.667 324.522 266.112 323.91 265.364 323.434C264.616 322.935 263.698 322.686 262.61 322.686Z" fill="white"/>
<rect y="472" width="372" height="92" rx="16" fill="#272E3F"/>
<path d="M110.307 529.408C108.154 529.408 106.193 528.921 104.425 527.946C102.657 526.949 101.252 525.555 100.209 523.764C99.1892 521.973 98.6792 519.945 98.6792 517.678C98.6792 515.411 99.1892 513.383 100.209 511.592C101.252 509.801 102.657 508.419 104.425 507.444C106.193 506.447 108.154 505.948 110.307 505.948C114.183 505.948 117.187 507.546 119.317 510.742L116.427 512.272C115.815 511.275 114.965 510.481 113.877 509.892C112.789 509.28 111.599 508.974 110.307 508.974C108.789 508.974 107.406 509.348 106.159 510.096C104.935 510.844 103.961 511.875 103.235 513.19C102.533 514.505 102.181 516.001 102.181 517.678C102.181 519.333 102.533 520.829 103.235 522.166C103.961 523.481 104.935 524.512 106.159 525.26C107.406 526.008 108.789 526.382 110.307 526.382C111.599 526.382 112.789 526.087 113.877 525.498C114.965 524.886 115.815 524.081 116.427 523.084L119.317 524.614C117.141 527.81 114.138 529.408 110.307 529.408ZM129.915 529.408C128.261 529.408 126.799 529.023 125.529 528.252C124.283 527.481 123.319 526.439 122.639 525.124C121.959 523.809 121.619 522.359 121.619 520.772C121.619 519.185 121.959 517.746 122.639 516.454C123.319 515.139 124.283 514.097 125.529 513.326C126.799 512.555 128.261 512.17 129.915 512.17C131.57 512.17 133.021 512.555 134.267 513.326C135.537 514.097 136.511 515.139 137.191 516.454C137.871 517.746 138.211 519.185 138.211 520.772C138.211 522.359 137.871 523.809 137.191 525.124C136.511 526.439 135.537 527.481 134.267 528.252C133.021 529.023 131.57 529.408 129.915 529.408ZM129.915 526.688C130.981 526.688 131.899 526.416 132.669 525.872C133.44 525.328 134.018 524.614 134.403 523.73C134.811 522.823 135.015 521.837 135.015 520.772C135.015 519.729 134.811 518.755 134.403 517.848C134.018 516.941 133.44 516.227 132.669 515.706C131.899 515.162 130.981 514.89 129.915 514.89C128.873 514.89 127.966 515.162 127.195 515.706C126.425 516.25 125.835 516.975 125.427 517.882C125.019 518.766 124.815 519.729 124.815 520.772C124.815 521.837 125.019 522.823 125.427 523.73C125.835 524.614 126.425 525.328 127.195 525.872C127.966 526.416 128.873 526.688 129.915 526.688ZM162.054 518.052C162.054 517.055 161.816 516.284 161.34 515.74C160.887 515.173 160.173 514.89 159.198 514.89C158.405 514.89 157.634 515.128 156.886 515.604C156.138 516.057 155.549 516.601 155.118 517.236V529H152.058V518.052C152.058 515.944 151.095 514.89 149.168 514.89C148.42 514.89 147.672 515.128 146.924 515.604C146.199 516.057 145.61 516.613 145.156 517.27V529H142.096V512.578H145.156V514.89C145.564 514.255 146.267 513.643 147.264 513.054C148.284 512.465 149.35 512.17 150.46 512.17C151.662 512.17 152.636 512.453 153.384 513.02C154.132 513.564 154.642 514.301 154.914 515.23C155.436 514.391 156.206 513.677 157.226 513.088C158.246 512.476 159.323 512.17 160.456 512.17C161.975 512.17 163.131 512.589 163.924 513.428C164.718 514.267 165.114 515.502 165.114 517.134V529H162.054V518.052ZM169.987 535.256V512.578H173.047V514.924C173.659 514.085 174.43 513.417 175.359 512.918C176.311 512.419 177.331 512.17 178.419 512.17C179.847 512.17 181.105 512.521 182.193 513.224C183.304 513.904 184.165 514.89 184.777 516.182C185.412 517.474 185.729 519.004 185.729 520.772C185.729 522.54 185.412 524.081 184.777 525.396C184.165 526.688 183.304 527.685 182.193 528.388C181.105 529.068 179.847 529.408 178.419 529.408C177.354 529.408 176.356 529.17 175.427 528.694C174.498 528.218 173.704 527.527 173.047 526.62V535.256H169.987ZM182.533 520.772C182.533 519.049 182.08 517.644 181.173 516.556C180.289 515.445 179.099 514.89 177.603 514.89C176.696 514.89 175.812 515.128 174.951 515.604C174.09 516.057 173.455 516.624 173.047 517.304V524.274C173.478 524.954 174.112 525.532 174.951 526.008C175.812 526.461 176.696 526.688 177.603 526.688C179.099 526.688 180.289 526.144 181.173 525.056C182.08 523.945 182.533 522.517 182.533 520.772ZM194.132 529.408C192.84 529.408 191.865 529.057 191.208 528.354C190.551 527.651 190.222 526.654 190.222 525.362V515.264H187.502V512.578H190.222V508.09H193.282V512.578H196.614V515.264H193.282V524.682C193.282 525.271 193.418 525.759 193.69 526.144C193.962 526.507 194.359 526.688 194.88 526.688C195.22 526.688 195.537 526.631 195.832 526.518C196.149 526.382 196.387 526.223 196.546 526.042L197.328 528.354C196.58 529.057 195.515 529.408 194.132 529.408ZM200.003 512.578H203.063V515.094C203.72 514.233 204.513 513.541 205.443 513.02C206.395 512.476 207.392 512.204 208.435 512.204V515.298C208.117 515.23 207.766 515.196 207.381 515.196C206.61 515.196 205.783 515.445 204.899 515.944C204.037 516.42 203.425 516.964 203.063 517.576V529H200.003V512.578ZM218.767 529.408C217.112 529.408 215.65 529.023 214.381 528.252C213.134 527.481 212.171 526.439 211.491 525.124C210.811 523.809 210.471 522.359 210.471 520.772C210.471 519.185 210.811 517.746 211.491 516.454C212.171 515.139 213.134 514.097 214.381 513.326C215.65 512.555 217.112 512.17 218.767 512.17C220.422 512.17 221.872 512.555 223.119 513.326C224.388 514.097 225.363 515.139 226.043 516.454C226.723 517.746 227.063 519.185 227.063 520.772C227.063 522.359 226.723 523.809 226.043 525.124C225.363 526.439 224.388 527.481 223.119 528.252C221.872 529.023 220.422 529.408 218.767 529.408ZM218.767 526.688C219.832 526.688 220.75 526.416 221.521 525.872C222.292 525.328 222.87 524.614 223.255 523.73C223.663 522.823 223.867 521.837 223.867 520.772C223.867 519.729 223.663 518.755 223.255 517.848C222.87 516.941 222.292 516.227 221.521 515.706C220.75 515.162 219.832 514.89 218.767 514.89C217.724 514.89 216.818 515.162 216.047 515.706C215.276 516.25 214.687 516.975 214.279 517.882C213.871 518.766 213.667 519.729 213.667 520.772C213.667 521.837 213.871 522.823 214.279 523.73C214.687 524.614 215.276 525.328 216.047 525.872C216.818 526.416 217.724 526.688 218.767 526.688ZM230.948 506.322H234.008V529H230.948V506.322ZM238.884 506.322H241.944V529H238.884V506.322ZM245.799 520.772C245.799 519.208 246.15 517.769 246.853 516.454C247.556 515.139 248.53 514.097 249.777 513.326C251.046 512.555 252.463 512.17 254.027 512.17C255.636 512.17 257.042 512.555 258.243 513.326C259.467 514.097 260.396 515.162 261.031 516.522C261.688 517.859 262.017 519.367 262.017 521.044V521.792H249.029C249.142 523.243 249.698 524.455 250.695 525.43C251.715 526.405 253.018 526.892 254.605 526.892C255.489 526.892 256.373 526.722 257.257 526.382C258.141 526.042 258.878 525.566 259.467 524.954L260.895 526.96C260.079 527.753 259.104 528.365 257.971 528.796C256.86 529.204 255.636 529.408 254.299 529.408C252.667 529.408 251.205 529.045 249.913 528.32C248.644 527.595 247.635 526.586 246.887 525.294C246.162 523.979 245.799 522.472 245.799 520.772ZM254.027 514.686C252.984 514.686 252.089 514.935 251.341 515.434C250.616 515.91 250.06 516.522 249.675 517.27C249.29 518.018 249.063 518.789 248.995 519.582H259.025C259.002 518.789 258.81 518.018 258.447 517.27C258.084 516.522 257.529 515.91 256.781 515.434C256.033 514.935 255.115 514.686 254.027 514.686ZM265.844 512.578H268.904V515.094C269.562 514.233 270.355 513.541 271.284 513.02C272.236 512.476 273.234 512.204 274.276 512.204V515.298C273.959 515.23 273.608 515.196 273.222 515.196C272.452 515.196 271.624 515.445 270.74 515.944C269.879 516.42 269.267 516.964 268.904 517.576V529H265.844V512.578Z" fill="white"/>
<path d="M186 136L177.34 151L194.66 151L186 136ZM187.5 236L187.5 149.5L184.5 149.5L184.5 236L187.5 236Z" fill="#A2A4B0"/>
<path d="M186 372L177.34 387L194.66 387L186 372ZM187.5 472L187.5 385.5L184.5 385.5L184.5 472L187.5 472Z" fill="#A2A4B0"/>
<path d="M472 813.5L473.5 813.5L472 813.5ZM471.998 208L470.498 208L471.998 208ZM448 837.5L448 836L448 837.5ZM217.999 136L209.339 151L226.659 151L217.999 136ZM473.5 813.5L473.498 208L470.498 208L470.5 813.5L473.5 813.5ZM372 839L448 839L448 836L372 836L372 839ZM447.998 182.5L229.999 182.5L229.999 185.5L447.998 185.5L447.998 182.5ZM219.499 172L219.499 149.5L216.499 149.5L216.499 172L219.499 172ZM229.999 182.5C224.2 182.5 219.499 177.799 219.499 172L216.499 172C216.499 179.456 222.543 185.5 229.999 185.5L229.999 182.5ZM473.498 208C473.498 193.916 462.081 182.5 447.998 182.5L447.998 185.5C460.424 185.5 470.498 195.573 470.498 208L473.498 208ZM470.5 813.5C470.5 825.926 460.426 836 448 836L448 839C462.083 839 473.5 827.583 473.5 813.5L470.5 813.5Z" fill="#A2A4B0"/>
<path d="M186.53 563.47C186.237 563.177 185.763 563.177 185.47 563.47L180.697 568.243C180.404 568.536 180.404 569.01 180.697 569.303C180.99 569.596 181.464 569.596 181.757 569.303L186 565.061L190.243 569.303C190.536 569.596 191.01 569.596 191.303 569.303C191.596 569.01 191.596 568.536 191.303 568.243L186.53 563.47ZM186.75 634.72L186.75 631.773L185.25 631.773L185.25 634.72L186.75 634.72ZM186.75 625.88L186.75 619.987L185.25 619.987L185.25 625.88L186.75 625.88ZM186.75 614.093L186.75 608.2L185.25 608.2L185.25 614.093L186.75 614.093ZM186.75 602.307L186.75 596.413L185.25 596.413L185.25 602.307L186.75 602.307ZM186.75 590.52L186.75 584.627L185.25 584.627L185.25 590.52L186.75 590.52ZM186.75 578.733L186.75 572.84L185.25 572.84L185.25 578.733L186.75 578.733ZM186.75 566.947L186.75 564L185.25 564L185.25 566.947L186.75 566.947ZM186.75 772L186.75 769.14L185.25 769.14L185.25 772L186.75 772ZM186.75 763.42L186.75 757.7L185.25 757.7L185.25 763.42L186.75 763.42ZM186.75 751.98L186.75 746.26L185.25 746.26L185.25 751.98L186.75 751.98ZM186.75 740.54L186.75 734.82L185.25 734.82L185.25 740.54L186.75 740.54ZM186.75 729.1L186.75 723.38L185.25 723.38L185.25 729.1L186.75 729.1ZM186.75 717.66L186.75 711.94L185.25 711.94L185.25 717.66L186.75 717.66ZM186.75 706.22L186.75 703.36L185.25 703.36L185.25 706.22L186.75 706.22ZM187.061 562.939C186.475 562.354 185.525 562.354 184.939 562.939L175.393 572.485C174.808 573.071 174.808 574.021 175.393 574.607C175.979 575.192 176.929 575.192 177.515 574.607L186 566.121L194.485 574.607C195.071 575.192 196.021 575.192 196.607 574.607C197.192 574.021 197.192 573.071 196.607 572.485L187.061 562.939ZM187.5 634.72L187.5 631.773L184.5 631.773L184.5 634.72L187.5 634.72ZM187.5 625.88L187.5 619.987L184.5 619.987L184.5 625.88L187.5 625.88ZM187.5 614.093L187.5 608.2L184.5 608.2L184.5 614.093L187.5 614.093ZM187.5 602.307L187.5 596.413L184.5 596.413L184.5 602.307L187.5 602.307ZM187.5 590.52L187.5 584.627L184.5 584.627L184.5 590.52L187.5 590.52ZM187.5 578.733L187.5 572.84L184.5 572.84L184.5 578.733L187.5 578.733ZM187.5 566.947L187.5 564L184.5 564L184.5 566.947L187.5 566.947ZM187.5 772L187.5 769.14L184.5 769.14L184.5 772L187.5 772ZM187.5 763.42L187.5 757.7L184.5 757.7L184.5 763.42L187.5 763.42ZM187.5 751.98L187.5 746.26L184.5 746.26L184.5 751.98L187.5 751.98ZM187.5 740.54L187.5 734.82L184.5 734.82L184.5 740.54L187.5 740.54ZM187.5 729.1L187.5 723.38L184.5 723.38L184.5 729.1L187.5 729.1ZM187.5 717.66L187.5 711.94L184.5 711.94L184.5 717.66L187.5 717.66ZM187.5 706.22L187.5 703.36L184.5 703.36L184.5 706.22L187.5 706.22Z" fill="#A2A4B0"/>
<rect y="772" width="372" height="243" rx="16" fill="#3A78FF"/>
<path d="M134.228 840.858C132.505 842.558 129.966 843.408 126.612 843.408C123.257 843.408 120.707 842.558 118.962 840.858C117.239 839.135 116.378 836.835 116.378 833.956V820.322H121.274V833.786C121.274 835.418 121.738 836.721 122.668 837.696C123.597 838.648 124.912 839.124 126.612 839.124C128.312 839.124 129.615 838.648 130.522 837.696C131.451 836.721 131.916 835.418 131.916 833.786V820.322H136.846V833.922C136.846 836.846 135.973 839.158 134.228 840.858ZM156.613 843H152.295V833.072C152.295 831.032 151.287 830.012 149.269 830.012C147.705 830.012 146.459 830.658 145.529 831.95V843H141.211V826.578H145.529V828.72C146.957 827.02 148.873 826.17 151.275 826.17C153.043 826.17 154.369 826.635 155.253 827.564C156.16 828.493 156.613 829.774 156.613 831.406V843ZM163.043 824.81C162.34 824.81 161.728 824.561 161.207 824.062C160.708 823.541 160.459 822.929 160.459 822.226C160.459 821.523 160.708 820.923 161.207 820.424C161.728 819.925 162.34 819.676 163.043 819.676C163.768 819.676 164.38 819.925 164.879 820.424C165.377 820.923 165.627 821.523 165.627 822.226C165.627 822.929 165.377 823.541 164.879 824.062C164.38 824.561 163.768 824.81 163.043 824.81ZM165.219 843H160.901V826.578H165.219V843ZM175.008 843.408C173.49 843.408 172.334 843.023 171.54 842.252C170.747 841.481 170.35 840.371 170.35 838.92V830.352H167.63V826.578H170.35V822.09H174.702V826.578H178.034V830.352H174.702V837.764C174.702 838.285 174.838 838.716 175.11 839.056C175.382 839.396 175.745 839.566 176.198 839.566C176.878 839.566 177.377 839.407 177.694 839.09L178.612 842.354C177.819 843.057 176.618 843.408 175.008 843.408ZM185.307 843H180.989V826.578H185.307V828.822C185.919 828.051 186.701 827.417 187.653 826.918C188.605 826.419 189.568 826.17 190.543 826.17V830.386C190.248 830.318 189.851 830.284 189.353 830.284C188.627 830.284 187.857 830.465 187.041 830.828C186.225 831.191 185.647 831.633 185.307 832.154V843ZM207.181 840.926C205.594 842.581 203.486 843.408 200.857 843.408C198.227 843.408 196.119 842.581 194.533 840.926C192.969 839.249 192.187 837.197 192.187 834.772C192.187 832.347 192.969 830.307 194.533 828.652C196.119 826.997 198.227 826.17 200.857 826.17C203.486 826.17 205.594 826.997 207.181 828.652C208.767 830.307 209.561 832.347 209.561 834.772C209.561 837.197 208.767 839.249 207.181 840.926ZM197.797 838.206C198.545 839.113 199.565 839.566 200.857 839.566C202.149 839.566 203.169 839.113 203.917 838.206C204.687 837.277 205.073 836.132 205.073 834.772C205.073 833.435 204.687 832.313 203.917 831.406C203.169 830.477 202.149 830.012 200.857 830.012C199.565 830.012 198.545 830.477 197.797 831.406C197.049 832.313 196.675 833.435 196.675 834.772C196.675 836.132 197.049 837.277 197.797 838.206ZM217.082 843H212.764V820.322H217.082V843ZM225.682 843H221.364V820.322H225.682V843ZM237.681 843.408C235.143 843.408 233.046 842.615 231.391 841.028C229.737 839.441 228.909 837.356 228.909 834.772C228.909 832.347 229.703 830.307 231.289 828.652C232.899 826.997 234.939 826.17 237.409 826.17C239.857 826.17 241.841 827.009 243.359 828.686C244.878 830.341 245.637 832.517 245.637 835.214V836.166H233.431C233.567 837.254 234.055 838.161 234.893 838.886C235.732 839.611 236.82 839.974 238.157 839.974C238.883 839.974 239.665 839.827 240.503 839.532C241.365 839.237 242.045 838.841 242.543 838.342L244.447 841.13C242.793 842.649 240.537 843.408 237.681 843.408ZM241.455 833.242C241.387 832.313 241.013 831.474 240.333 830.726C239.676 829.978 238.701 829.604 237.409 829.604C236.185 829.604 235.233 829.978 234.553 830.726C233.873 831.451 233.477 832.29 233.363 833.242H241.455ZM253.074 843H248.756V826.578H253.074V828.822C253.686 828.051 254.468 827.417 255.42 826.918C256.372 826.419 257.336 826.17 258.31 826.17V830.386C258.016 830.318 257.619 830.284 257.12 830.284C256.395 830.284 255.624 830.465 254.808 830.828C253.992 831.191 253.414 831.633 253.074 832.154V843Z" fill="white"/>
<rect y="894" width="372" height="3" fill="#121620"/>
<path d="M117.546 942.322H132.778V945.314H120.946V951.944H132.54V954.936H120.946V965H117.546V942.322ZM146.503 963.198C145.846 963.923 145.064 964.479 144.157 964.864C143.25 965.227 142.242 965.408 141.131 965.408C140.179 965.408 139.261 965.204 138.377 964.796C137.516 964.365 136.802 963.742 136.235 962.926C135.691 962.087 135.419 961.101 135.419 959.968C135.419 958.789 135.691 957.803 136.235 957.01C136.779 956.194 137.482 955.593 138.343 955.208C139.227 954.8 140.156 954.596 141.131 954.596C142.264 954.596 143.284 954.777 144.191 955.14C145.12 955.503 145.891 956.047 146.503 956.772V954.052C146.503 953.055 146.129 952.261 145.381 951.672C144.656 951.083 143.692 950.788 142.491 950.788C140.655 950.788 139.012 951.513 137.561 952.964L136.235 950.856C138.048 949.065 140.292 948.17 142.967 948.17C144.916 948.17 146.503 948.635 147.727 949.564C148.951 950.493 149.563 951.944 149.563 953.916V965H146.503V963.198ZM146.503 958.608C146.05 957.996 145.449 957.531 144.701 957.214C143.953 956.897 143.148 956.738 142.287 956.738C141.176 956.738 140.27 957.044 139.567 957.656C138.864 958.245 138.513 959.027 138.513 960.002C138.513 960.977 138.864 961.77 139.567 962.382C140.27 962.971 141.176 963.266 142.287 963.266C143.148 963.266 143.953 963.107 144.701 962.79C145.449 962.473 146.05 962.008 146.503 961.396V958.608ZM154.467 942.322H157.527V965H154.467V942.322ZM162.402 942.322H165.462V965H162.402V942.322ZM170.338 942.322H173.398V950.958C174.055 950.074 174.848 949.394 175.778 948.918C176.707 948.419 177.704 948.17 178.77 948.17C180.198 948.17 181.456 948.533 182.544 949.258C183.654 949.961 184.516 950.969 185.128 952.284C185.762 953.576 186.08 955.083 186.08 956.806C186.08 958.551 185.762 960.081 185.128 961.396C184.516 962.688 183.654 963.685 182.544 964.388C181.456 965.068 180.198 965.408 178.77 965.408C177.704 965.408 176.696 965.159 175.744 964.66C174.814 964.161 174.032 963.493 173.398 962.654V965H170.338V942.322ZM173.398 960.308C173.806 960.988 174.44 961.555 175.302 962.008C176.163 962.461 177.047 962.688 177.954 962.688C179.472 962.688 180.674 962.144 181.558 961.056C182.464 959.968 182.918 958.551 182.918 956.806C182.918 955.061 182.464 953.644 181.558 952.556C180.674 951.445 179.472 950.89 177.954 950.89C177.047 950.89 176.163 951.128 175.302 951.604C174.463 952.08 173.828 952.658 173.398 953.338V960.308ZM200.126 963.198C199.469 963.923 198.687 964.479 197.78 964.864C196.873 965.227 195.865 965.408 194.754 965.408C193.802 965.408 192.884 965.204 192 964.796C191.139 964.365 190.425 963.742 189.858 962.926C189.314 962.087 189.042 961.101 189.042 959.968C189.042 958.789 189.314 957.803 189.858 957.01C190.402 956.194 191.105 955.593 191.966 955.208C192.85 954.8 193.779 954.596 194.754 954.596C195.887 954.596 196.907 954.777 197.814 955.14C198.743 955.503 199.514 956.047 200.126 956.772V954.052C200.126 953.055 199.752 952.261 199.004 951.672C198.279 951.083 197.315 950.788 196.114 950.788C194.278 950.788 192.635 951.513 191.184 952.964L189.858 950.856C191.671 949.065 193.915 948.17 196.59 948.17C198.539 948.17 200.126 948.635 201.35 949.564C202.574 950.493 203.186 951.944 203.186 953.916V965H200.126V963.198ZM200.126 958.608C199.673 957.996 199.072 957.531 198.324 957.214C197.576 956.897 196.771 956.738 195.91 956.738C194.799 956.738 193.893 957.044 193.19 957.656C192.487 958.245 192.136 959.027 192.136 960.002C192.136 960.977 192.487 961.77 193.19 962.382C193.893 962.971 194.799 963.266 195.91 963.266C196.771 963.266 197.576 963.107 198.324 962.79C199.072 962.473 199.673 962.008 200.126 961.396V958.608ZM207.07 956.772C207.07 955.14 207.421 953.678 208.124 952.386C208.826 951.071 209.812 950.04 211.082 949.292C212.351 948.544 213.802 948.17 215.434 948.17C218.108 948.17 220.16 949.133 221.588 951.06L219.548 952.93C218.596 951.57 217.27 950.89 215.57 950.89C213.983 950.89 212.702 951.445 211.728 952.556C210.753 953.644 210.266 955.049 210.266 956.772C210.266 958.495 210.753 959.911 211.728 961.022C212.702 962.133 213.983 962.688 215.57 962.688C217.247 962.688 218.573 962.008 219.548 960.648L221.588 962.518C220.16 964.445 218.108 965.408 215.434 965.408C213.802 965.408 212.351 965.034 211.082 964.286C209.812 963.538 208.826 962.507 208.124 961.192C207.421 959.877 207.07 958.404 207.07 956.772ZM230.499 957.928L228.017 960.444V965H224.957V942.322H228.017V956.908L235.939 948.578H239.781L232.709 956.024L239.849 965H235.973L230.499 957.928ZM246.599 971.766C245.035 969.749 243.811 967.425 242.927 964.796C242.066 962.144 241.635 959.458 241.635 956.738C241.635 954.018 242.066 951.343 242.927 948.714C243.811 946.085 245.035 943.75 246.599 941.71L248.469 943.104C247.29 945.416 246.406 947.615 245.817 949.7C245.25 951.785 244.967 954.131 244.967 956.738C244.967 959.345 245.25 961.691 245.817 963.776C246.406 965.861 247.29 968.049 248.469 970.338L246.599 971.766ZM253.185 956.738C253.185 954.131 252.891 951.785 252.301 949.7C251.735 947.592 250.851 945.393 249.649 943.104L251.519 941.71C253.106 943.75 254.33 946.085 255.191 948.714C256.075 951.321 256.517 953.995 256.517 956.738C256.517 959.481 256.075 962.167 255.191 964.796C254.33 967.425 253.106 969.749 251.519 971.766L249.649 970.338C250.851 968.071 251.735 965.895 252.301 963.81C252.891 961.702 253.185 959.345 253.185 956.738Z" fill="white"/>
<path d="M106.381 658.324H113.325C115.247 658.324 116.946 658.725 118.421 659.528C119.895 660.312 121.043 661.413 121.865 662.832C122.686 664.251 123.097 665.865 123.097 667.676C123.097 669.487 122.686 671.101 121.865 672.52C121.043 673.92 119.895 675.021 118.421 675.824C116.946 676.608 115.247 677 113.325 677H106.381V658.324ZM113.325 674.116C114.631 674.116 115.77 673.836 116.741 673.276C117.711 672.697 118.449 671.923 118.953 670.952C119.475 669.963 119.737 668.871 119.737 667.676C119.737 666.463 119.485 665.371 118.981 664.4C118.495 663.411 117.767 662.636 116.797 662.076C115.826 661.497 114.669 661.208 113.325 661.208H109.657V674.116H113.325ZM125.335 670.224C125.335 668.917 125.625 667.732 126.203 666.668C126.801 665.585 127.622 664.727 128.667 664.092C129.713 663.457 130.889 663.14 132.195 663.14C133.521 663.14 134.687 663.457 135.695 664.092C136.703 664.727 137.478 665.604 138.019 666.724C138.579 667.825 138.859 669.085 138.859 670.504V671.204H128.415C128.527 672.268 128.966 673.155 129.731 673.864C130.497 674.573 131.495 674.928 132.727 674.928C133.418 674.928 134.109 674.797 134.799 674.536C135.509 674.275 136.097 673.911 136.563 673.444L137.907 675.376C137.235 676.011 136.423 676.496 135.471 676.832C134.519 677.168 133.502 677.336 132.419 677.336C131.075 677.336 129.862 677.047 128.779 676.468C127.715 675.871 126.875 675.031 126.259 673.948C125.643 672.865 125.335 671.624 125.335 670.224ZM132.195 665.548C131.038 665.548 130.133 665.912 129.479 666.64C128.826 667.349 128.462 668.18 128.387 669.132H136.003C135.985 668.553 135.835 667.993 135.555 667.452C135.275 666.892 134.855 666.435 134.295 666.08C133.735 665.725 133.035 665.548 132.195 665.548ZM141.761 658.324H144.701V677H141.761V658.324ZM147.675 670.224C147.675 668.917 147.965 667.732 148.543 666.668C149.141 665.585 149.962 664.727 151.007 664.092C152.053 663.457 153.229 663.14 154.535 663.14C155.861 663.14 157.027 663.457 158.035 664.092C159.043 664.727 159.818 665.604 160.359 666.724C160.919 667.825 161.199 669.085 161.199 670.504V671.204H150.755C150.867 672.268 151.306 673.155 152.071 673.864C152.837 674.573 153.835 674.928 155.067 674.928C155.758 674.928 156.449 674.797 157.139 674.536C157.849 674.275 158.437 673.911 158.903 673.444L160.247 675.376C159.575 676.011 158.763 676.496 157.811 676.832C156.859 677.168 155.842 677.336 154.759 677.336C153.415 677.336 152.202 677.047 151.119 676.468C150.055 675.871 149.215 675.031 148.599 673.948C147.983 672.865 147.675 671.624 147.675 670.224ZM154.535 665.548C153.378 665.548 152.473 665.912 151.819 666.64C151.166 667.349 150.802 668.18 150.727 669.132H158.343C158.325 668.553 158.175 667.993 157.895 667.452C157.615 666.892 157.195 666.435 156.635 666.08C156.075 665.725 155.375 665.548 154.535 665.548ZM165.305 678.344C165.828 678.96 166.435 679.399 167.125 679.66C167.835 679.94 168.656 680.08 169.589 680.08C170.709 680.08 171.652 679.781 172.417 679.184C173.201 678.605 173.593 677.681 173.593 676.412V674.788C173.052 675.479 172.408 676.029 171.661 676.44C170.915 676.832 170.112 677.028 169.253 677.028C168.096 677.028 167.06 676.757 166.145 676.216C165.249 675.675 164.54 674.881 164.017 673.836C163.513 672.791 163.261 671.54 163.261 670.084C163.261 668.665 163.513 667.433 164.017 666.388C164.54 665.324 165.249 664.521 166.145 663.98C167.06 663.42 168.096 663.14 169.253 663.14C170.112 663.14 170.915 663.336 171.661 663.728C172.408 664.101 173.052 664.643 173.593 665.352V663.476H176.533V676.3C176.533 678.521 175.861 680.108 174.517 681.06C173.192 682.012 171.549 682.488 169.589 682.488C168.395 682.488 167.349 682.329 166.453 682.012C165.576 681.713 164.736 681.2 163.933 680.472L165.305 678.344ZM173.593 667.564C173.257 667.06 172.763 666.631 172.109 666.276C171.456 665.921 170.793 665.744 170.121 665.744C168.964 665.744 168.04 666.145 167.349 666.948C166.659 667.732 166.313 668.777 166.313 670.084C166.313 671.391 166.659 672.445 167.349 673.248C168.04 674.032 168.964 674.424 170.121 674.424C170.793 674.424 171.456 674.247 172.109 673.892C172.763 673.537 173.257 673.108 173.593 672.604V667.564ZM188.603 675.544C188.099 676.123 187.465 676.571 186.699 676.888C185.953 677.187 185.131 677.336 184.235 677.336C183.47 677.336 182.723 677.168 181.995 676.832C181.267 676.477 180.67 675.964 180.203 675.292C179.755 674.62 179.531 673.808 179.531 672.856C179.531 671.867 179.755 671.045 180.203 670.392C180.67 669.739 181.258 669.253 181.967 668.936C182.695 668.619 183.451 668.46 184.235 668.46C185.15 668.46 185.981 668.609 186.727 668.908C187.493 669.207 188.118 669.636 188.603 670.196V668.18C188.603 667.396 188.314 666.78 187.735 666.332C187.157 665.884 186.391 665.66 185.439 665.66C183.927 665.66 182.593 666.229 181.435 667.368L180.231 665.324C181.762 663.868 183.657 663.14 185.915 663.14C187.577 663.14 188.93 663.532 189.975 664.316C191.021 665.1 191.543 666.341 191.543 668.04V677H188.603V675.544ZM188.603 671.876C188.267 671.428 187.81 671.083 187.231 670.84C186.671 670.597 186.055 670.476 185.383 670.476C184.543 670.476 183.853 670.7 183.311 671.148C182.77 671.596 182.499 672.184 182.499 672.912C182.499 673.64 182.77 674.228 183.311 674.676C183.853 675.105 184.543 675.32 185.383 675.32C186.055 675.32 186.671 675.199 187.231 674.956C187.81 674.713 188.267 674.368 188.603 673.92V671.876ZM199.415 677.336C198.277 677.336 197.409 677.037 196.811 676.44C196.233 675.843 195.943 674.984 195.943 673.864V666.052H193.703V663.476H195.943V659.78H198.883V663.476H201.627V666.052H198.883V673.136C198.883 673.621 198.995 674.013 199.219 674.312C199.443 674.592 199.761 674.732 200.171 674.732C200.433 674.732 200.685 674.685 200.927 674.592C201.189 674.499 201.375 674.387 201.487 674.256L202.187 676.468C201.571 677.047 200.647 677.336 199.415 677.336ZM203.457 670.224C203.457 668.917 203.746 667.732 204.325 666.668C204.922 665.585 205.743 664.727 206.789 664.092C207.834 663.457 209.01 663.14 210.317 663.14C211.642 663.14 212.809 663.457 213.817 664.092C214.825 664.727 215.599 665.604 216.141 666.724C216.701 667.825 216.981 669.085 216.981 670.504V671.204H206.537C206.649 672.268 207.087 673.155 207.853 673.864C208.618 674.573 209.617 674.928 210.849 674.928C211.539 674.928 212.23 674.797 212.921 674.536C213.63 674.275 214.218 673.911 214.685 673.444L216.029 675.376C215.357 676.011 214.545 676.496 213.593 676.832C212.641 677.168 211.623 677.336 210.541 677.336C209.197 677.336 207.983 677.047 206.901 676.468C205.837 675.871 204.997 675.031 204.381 673.948C203.765 672.865 203.457 671.624 203.457 670.224ZM210.317 665.548C209.159 665.548 208.254 665.912 207.601 666.64C206.947 667.349 206.583 668.18 206.509 669.132H214.125C214.106 668.553 213.957 667.993 213.677 667.452C213.397 666.892 212.977 666.435 212.417 666.08C211.857 665.725 211.157 665.548 210.317 665.548ZM226.234 670.224C226.234 668.88 226.533 667.667 227.13 666.584C227.727 665.501 228.558 664.661 229.622 664.064C230.686 663.448 231.89 663.14 233.234 663.14C235.493 663.14 237.219 663.943 238.414 665.548L236.482 667.34C235.735 666.276 234.699 665.744 233.374 665.744C232.142 665.744 231.153 666.164 230.406 667.004C229.659 667.825 229.286 668.899 229.286 670.224C229.286 671.549 229.659 672.632 230.406 673.472C231.153 674.312 232.142 674.732 233.374 674.732C234.662 674.732 235.698 674.2 236.482 673.136L238.414 674.928C237.219 676.533 235.493 677.336 233.234 677.336C231.89 677.336 230.686 677.037 229.622 676.44C228.558 675.824 227.727 674.975 227.13 673.892C226.533 672.809 226.234 671.587 226.234 670.224ZM249.252 675.544C248.748 676.123 248.113 676.571 247.348 676.888C246.601 677.187 245.78 677.336 244.884 677.336C244.119 677.336 243.372 677.168 242.644 676.832C241.916 676.477 241.319 675.964 240.852 675.292C240.404 674.62 240.18 673.808 240.18 672.856C240.18 671.867 240.404 671.045 240.852 670.392C241.319 669.739 241.907 669.253 242.616 668.936C243.344 668.619 244.1 668.46 244.884 668.46C245.799 668.46 246.629 668.609 247.376 668.908C248.141 669.207 248.767 669.636 249.252 670.196V668.18C249.252 667.396 248.963 666.78 248.384 666.332C247.805 665.884 247.04 665.66 246.088 665.66C244.576 665.66 243.241 666.229 242.084 667.368L240.88 665.324C242.411 663.868 244.305 663.14 246.564 663.14C248.225 663.14 249.579 663.532 250.624 664.316C251.669 665.1 252.192 666.341 252.192 668.04V677H249.252V675.544ZM249.252 671.876C248.916 671.428 248.459 671.083 247.88 670.84C247.32 670.597 246.704 670.476 246.032 670.476C245.192 670.476 244.501 670.7 243.96 671.148C243.419 671.596 243.148 672.184 243.148 672.912C243.148 673.64 243.419 674.228 243.96 674.676C244.501 675.105 245.192 675.32 246.032 675.32C246.704 675.32 247.32 675.199 247.88 674.956C248.459 674.713 248.916 674.368 249.252 673.92V671.876ZM256.004 658.324H258.944V677H256.004V658.324ZM262.758 658.324H265.698V677H262.758V658.324Z" fill="white"/>
</svg>
