<svg width="940" height="580" viewBox="0 0 940 580" fill="none" xmlns="http://www.w3.org/2000/svg">
<circle cx="210" cy="210" r="210" fill="#AA0185"/>
<path d="M412.844 155.648C424.201 198.031 421.996 242.907 406.54 283.973C391.084 325.038 363.153 360.231 326.67 384.609C290.186 408.986 246.984 421.323 203.129 419.888C159.274 418.452 116.971 403.315 82.16 376.604C47.3492 349.893 21.7796 312.948 9.0425 270.96C-3.69463 228.971 -2.95947 184.047 11.1447 142.498C25.2489 100.948 52.0136 64.8601 87.6798 39.3021C123.346 13.7441 166.122 -2.91178e-05 210 0L210 210L412.844 155.648Z" fill="#03967B"/>
<circle cx="730" cy="210" r="210" fill="#AA0185"/>
<path d="M409.722 145.106C419.963 176.625 422.599 210.119 417.415 242.851C412.23 275.583 399.373 306.624 379.894 333.435C360.414 360.246 334.866 382.066 305.338 397.111C275.81 412.157 243.14 420 210 420C176.86 420 144.19 412.157 114.662 397.111C85.1339 382.066 59.5857 360.246 40.1064 333.435C20.6271 306.624 7.76971 275.583 2.58544 242.851C-2.59882 210.119 0.0372563 176.625 10.2781 145.106L210 210L409.722 145.106Z" fill="#3A78FF"/>
<path d="M929.722 145.106C943.426 187.284 943.426 232.716 929.722 274.894C916.018 317.071 889.313 353.827 853.435 379.894C817.557 405.96 774.348 420 730 420C685.652 420 642.443 405.96 606.565 379.894C570.687 353.827 543.982 317.071 530.278 274.893C516.574 232.716 516.574 187.283 530.278 145.106C543.982 102.929 570.687 66.1732 606.565 40.1064C642.443 14.0395 685.652 -2.94294e-05 730 0L730 210L929.722 145.106Z" fill="#3A78FF"/>
<circle cx="210" cy="210" r="140" fill="#1F1F1F"/>
<circle cx="730" cy="210" r="140" fill="#1F1F1F"/>
<path d="M122.895 202.7H120.06L116.952 197.471H114.516V202.7H112.059V188.693H118.212C119.584 188.693 120.69 189.099 121.53 189.911C122.37 190.723 122.79 191.78 122.79 193.082C122.79 194.258 122.468 195.203 121.824 195.917C121.18 196.617 120.396 197.044 119.472 197.198L122.895 202.7ZM117.876 195.308C118.576 195.308 119.15 195.105 119.598 194.699C120.046 194.293 120.27 193.754 120.27 193.082C120.27 192.41 120.046 191.871 119.598 191.465C119.15 191.059 118.576 190.856 117.876 190.856H114.516V195.308H117.876ZM129.23 202.952C127.69 202.952 126.416 202.462 125.408 201.482C124.414 200.488 123.917 199.2 123.917 197.618C123.917 196.134 124.4 194.881 125.366 193.859C126.346 192.823 127.578 192.305 129.062 192.305C130.56 192.305 131.764 192.823 132.674 193.859C133.598 194.895 134.06 196.218 134.06 197.828V198.353H126.227C126.311 199.151 126.64 199.816 127.214 200.348C127.788 200.88 128.537 201.146 129.461 201.146C129.979 201.146 130.497 201.048 131.015 200.852C131.547 200.656 131.988 200.383 132.338 200.033L133.346 201.482C132.324 202.462 130.952 202.952 129.23 202.952ZM131.918 196.799C131.89 196.099 131.631 195.476 131.141 194.93C130.665 194.384 129.972 194.111 129.062 194.111C128.194 194.111 127.515 194.384 127.025 194.93C126.535 195.462 126.262 196.085 126.206 196.799H131.918ZM141.276 202.7H138.903L134.766 192.557H137.118L140.079 200.159L143.04 192.557H145.413L141.276 202.7ZM151.481 202.952C149.941 202.952 148.667 202.462 147.659 201.482C146.665 200.488 146.168 199.2 146.168 197.618C146.168 196.134 146.651 194.881 147.617 193.859C148.597 192.823 149.829 192.305 151.313 192.305C152.811 192.305 154.015 192.823 154.925 193.859C155.849 194.895 156.311 196.218 156.311 197.828V198.353H148.478C148.562 199.151 148.891 199.816 149.465 200.348C150.039 200.88 150.788 201.146 151.712 201.146C152.23 201.146 152.748 201.048 153.266 200.852C153.798 200.656 154.239 200.383 154.589 200.033L155.597 201.482C154.575 202.462 153.203 202.952 151.481 202.952ZM154.169 196.799C154.141 196.099 153.882 195.476 153.392 194.93C152.916 194.384 152.223 194.111 151.313 194.111C150.445 194.111 149.766 194.384 149.276 194.93C148.786 195.462 148.513 196.085 148.457 196.799H154.169ZM167.538 202.7H165.333V196.358C165.333 194.958 164.654 194.258 163.296 194.258C162.764 194.258 162.267 194.391 161.805 194.657C161.343 194.923 160.972 195.245 160.692 195.623V202.7H158.487V192.557H160.692V193.943C161.07 193.495 161.574 193.11 162.204 192.788C162.834 192.466 163.52 192.305 164.262 192.305C165.34 192.305 166.152 192.585 166.698 193.145C167.258 193.705 167.538 194.51 167.538 195.56V202.7ZM179.453 202.7H177.248V201.356C176.296 202.42 175.099 202.952 173.657 202.952C171.487 202.952 170.402 201.881 170.402 199.739V192.557H172.607V198.941C172.607 199.683 172.782 200.215 173.132 200.537C173.482 200.845 173.986 200.999 174.644 200.999C175.176 200.999 175.673 200.873 176.135 200.621C176.597 200.369 176.968 200.054 177.248 199.676V192.557H179.453V202.7ZM187 202.952C185.46 202.952 184.186 202.462 183.178 201.482C182.184 200.488 181.687 199.2 181.687 197.618C181.687 196.134 182.17 194.881 183.136 193.859C184.116 192.823 185.348 192.305 186.832 192.305C188.33 192.305 189.534 192.823 190.444 193.859C191.368 194.895 191.83 196.218 191.83 197.828V198.353H183.997C184.081 199.151 184.41 199.816 184.984 200.348C185.558 200.88 186.307 201.146 187.231 201.146C187.749 201.146 188.267 201.048 188.785 200.852C189.317 200.656 189.758 200.383 190.108 200.033L191.116 201.482C190.094 202.462 188.722 202.952 187 202.952ZM189.688 196.799C189.66 196.099 189.401 195.476 188.911 194.93C188.435 194.384 187.742 194.111 186.832 194.111C185.964 194.111 185.285 194.384 184.795 194.93C184.305 195.462 184.032 196.085 183.976 196.799H189.688ZM208.745 202.7H206.54V201.314C205.7 202.406 204.615 202.952 203.285 202.952C201.955 202.952 200.87 202.476 200.03 201.524C199.19 200.572 198.77 199.277 198.77 197.639C198.77 196.015 199.19 194.72 200.03 193.754C200.87 192.788 201.955 192.305 203.285 192.305C204.615 192.305 205.7 192.858 206.54 193.964V188.693H208.745V202.7ZM203.915 200.999C204.433 200.999 204.937 200.873 205.427 200.621C205.917 200.369 206.288 200.047 206.54 199.655V195.623C206.288 195.231 205.917 194.909 205.427 194.657C204.937 194.391 204.433 194.258 203.915 194.258C203.047 194.258 202.354 194.573 201.836 195.203C201.318 195.833 201.059 196.645 201.059 197.639C201.059 198.633 201.318 199.445 201.836 200.075C202.354 200.691 203.047 200.999 203.915 200.999ZM212.694 191.318C212.33 191.318 212.008 191.185 211.728 190.919C211.462 190.653 211.329 190.331 211.329 189.953C211.329 189.575 211.462 189.253 211.728 188.987C212.008 188.721 212.33 188.588 212.694 188.588C213.072 188.588 213.394 188.721 213.66 188.987C213.926 189.253 214.059 189.575 214.059 189.953C214.059 190.331 213.926 190.653 213.66 190.919C213.394 191.185 213.072 191.318 212.694 191.318ZM213.807 202.7H211.602V192.557H213.807V202.7ZM220.133 202.952C218.313 202.952 216.864 202.427 215.786 201.377L216.794 199.781C217.172 200.173 217.683 200.509 218.327 200.789C218.971 201.069 219.608 201.209 220.238 201.209C220.882 201.209 221.372 201.083 221.708 200.831C222.058 200.579 222.233 200.25 222.233 199.844C222.233 199.48 222.023 199.2 221.603 199.004C221.183 198.794 220.672 198.633 220.07 198.521C219.468 198.395 218.866 198.248 218.264 198.08C217.662 197.898 217.151 197.583 216.731 197.135C216.311 196.687 216.101 196.106 216.101 195.392C216.101 194.524 216.458 193.796 217.172 193.208C217.886 192.606 218.859 192.305 220.091 192.305C221.645 192.305 222.961 192.781 224.039 193.733L223.115 195.287C222.793 194.923 222.366 194.629 221.834 194.405C221.302 194.181 220.728 194.069 220.112 194.069C219.538 194.069 219.076 194.188 218.726 194.426C218.39 194.65 218.222 194.944 218.222 195.308C218.222 195.588 218.369 195.819 218.663 196.001C218.971 196.169 219.349 196.295 219.797 196.379C220.259 196.463 220.756 196.582 221.288 196.736C221.82 196.876 222.31 197.044 222.758 197.24C223.22 197.436 223.598 197.758 223.892 198.206C224.2 198.64 224.354 199.172 224.354 199.802C224.354 200.726 223.983 201.482 223.241 202.07C222.499 202.658 221.463 202.952 220.133 202.952ZM229.618 202.952C228.764 202.952 228.113 202.728 227.665 202.28C227.231 201.832 227.014 201.188 227.014 200.348V194.489H225.334V192.557H227.014V189.785H229.219V192.557H231.277V194.489H229.219V199.802C229.219 200.166 229.303 200.46 229.471 200.684C229.639 200.894 229.877 200.999 230.185 200.999C230.633 200.999 230.962 200.88 231.172 200.642L231.697 202.301C231.235 202.735 230.542 202.952 229.618 202.952ZM235.484 202.7H233.279V192.557H235.484V194.048C235.876 193.544 236.366 193.131 236.954 192.809C237.542 192.487 238.151 192.326 238.781 192.326V194.51C238.585 194.468 238.354 194.447 238.088 194.447C237.626 194.447 237.129 194.587 236.597 194.867C236.079 195.133 235.708 195.441 235.484 195.791V202.7ZM241.651 191.318C241.287 191.318 240.965 191.185 240.685 190.919C240.419 190.653 240.286 190.331 240.286 189.953C240.286 189.575 240.419 189.253 240.685 188.987C240.965 188.721 241.287 188.588 241.651 188.588C242.029 188.588 242.351 188.721 242.617 188.987C242.883 189.253 243.016 189.575 243.016 189.953C243.016 190.331 242.883 190.653 242.617 190.919C242.351 191.185 242.029 191.318 241.651 191.318ZM242.764 202.7H240.559V192.557H242.764V202.7ZM247.83 199.655C248.068 200.033 248.432 200.355 248.922 200.621C249.426 200.873 249.93 200.999 250.434 200.999C251.302 200.999 251.995 200.691 252.513 200.075C253.045 199.445 253.311 198.633 253.311 197.639C253.311 196.645 253.045 195.833 252.513 195.203C251.995 194.573 251.302 194.258 250.434 194.258C249.93 194.258 249.433 194.391 248.943 194.657C248.453 194.923 248.082 195.252 247.83 195.644V199.655ZM247.83 202.7H245.625V188.693H247.83V193.964C248.656 192.858 249.741 192.305 251.085 192.305C252.401 192.305 253.479 192.795 254.319 193.775C255.159 194.741 255.579 196.029 255.579 197.639C255.579 199.277 255.159 200.572 254.319 201.524C253.479 202.476 252.401 202.952 251.085 202.952C249.755 202.952 248.67 202.406 247.83 201.314V202.7ZM266.878 202.7H264.673V201.356C263.721 202.42 262.524 202.952 261.082 202.952C258.912 202.952 257.827 201.881 257.827 199.739V192.557H260.032V198.941C260.032 199.683 260.207 200.215 260.557 200.537C260.907 200.845 261.411 200.999 262.069 200.999C262.601 200.999 263.098 200.873 263.56 200.621C264.022 200.369 264.393 200.054 264.673 199.676V192.557H266.878V202.7ZM272.787 202.952C271.933 202.952 271.282 202.728 270.834 202.28C270.4 201.832 270.183 201.188 270.183 200.348V194.489H268.503V192.557H270.183V189.785H272.388V192.557H274.446V194.489H272.388V199.802C272.388 200.166 272.472 200.46 272.64 200.684C272.808 200.894 273.046 200.999 273.354 200.999C273.802 200.999 274.131 200.88 274.341 200.642L274.866 202.301C274.404 202.735 273.711 202.952 272.787 202.952ZM277.54 191.318C277.176 191.318 276.854 191.185 276.574 190.919C276.308 190.653 276.175 190.331 276.175 189.953C276.175 189.575 276.308 189.253 276.574 188.987C276.854 188.721 277.176 188.588 277.54 188.588C277.918 188.588 278.24 188.721 278.506 188.987C278.772 189.253 278.905 189.575 278.905 189.953C278.905 190.331 278.772 190.653 278.506 190.919C278.24 191.185 277.918 191.318 277.54 191.318ZM278.653 202.7H276.448V192.557H278.653V202.7ZM286.091 202.952C284.523 202.952 283.263 202.441 282.311 201.419C281.359 200.383 280.883 199.116 280.883 197.618C280.883 196.12 281.359 194.86 282.311 193.838C283.263 192.816 284.523 192.305 286.091 192.305C287.673 192.305 288.94 192.816 289.892 193.838C290.844 194.86 291.32 196.12 291.32 197.618C291.32 199.13 290.844 200.397 289.892 201.419C288.94 202.441 287.673 202.952 286.091 202.952ZM286.091 200.999C287.001 200.999 287.715 200.677 288.233 200.033C288.765 199.375 289.031 198.57 289.031 197.618C289.031 196.68 288.765 195.889 288.233 195.245C287.715 194.587 287.001 194.258 286.091 194.258C285.195 194.258 284.481 194.587 283.949 195.245C283.431 195.889 283.172 196.68 283.172 197.618C283.172 198.57 283.431 199.375 283.949 200.033C284.481 200.677 285.195 200.999 286.091 200.999ZM302.603 202.7H300.398V196.358C300.398 194.958 299.719 194.258 298.361 194.258C297.829 194.258 297.332 194.391 296.87 194.657C296.408 194.923 296.037 195.245 295.757 195.623V202.7H293.552V192.557H295.757V193.943C296.135 193.495 296.639 193.11 297.269 192.788C297.899 192.466 298.585 192.305 299.327 192.305C300.405 192.305 301.217 192.585 301.763 193.145C302.323 193.705 302.603 194.51 302.603 195.56V202.7ZM108.256 229.7H106.051V221.489H104.371V219.557H106.051V218.99C106.051 217.898 106.338 217.044 106.912 216.428C107.5 215.798 108.284 215.483 109.264 215.483C110.314 215.483 111.126 215.777 111.7 216.365L110.839 217.73C110.517 217.436 110.125 217.289 109.663 217.289C109.229 217.289 108.886 217.436 108.634 217.73C108.382 218.01 108.256 218.43 108.256 218.99V219.557H110.314V221.489H108.256V229.7ZM114.191 229.7H111.986V219.557H114.191V221.048C114.583 220.544 115.073 220.131 115.661 219.809C116.249 219.487 116.858 219.326 117.488 219.326V221.51C117.292 221.468 117.061 221.447 116.795 221.447C116.333 221.447 115.836 221.587 115.304 221.867C114.786 222.133 114.415 222.441 114.191 222.791V229.7ZM123.844 229.952C122.276 229.952 121.016 229.441 120.064 228.419C119.112 227.383 118.636 226.116 118.636 224.618C118.636 223.12 119.112 221.86 120.064 220.838C121.016 219.816 122.276 219.305 123.844 219.305C125.426 219.305 126.693 219.816 127.645 220.838C128.597 221.86 129.073 223.12 129.073 224.618C129.073 226.13 128.597 227.397 127.645 228.419C126.693 229.441 125.426 229.952 123.844 229.952ZM123.844 227.999C124.754 227.999 125.468 227.677 125.986 227.033C126.518 226.375 126.784 225.57 126.784 224.618C126.784 223.68 126.518 222.889 125.986 222.245C125.468 221.587 124.754 221.258 123.844 221.258C122.948 221.258 122.234 221.587 121.702 222.245C121.184 222.889 120.925 223.68 120.925 224.618C120.925 225.57 121.184 226.375 121.702 227.033C122.234 227.677 122.948 227.999 123.844 227.999ZM145.941 229.7H143.736V223.085C143.736 221.867 143.183 221.258 142.077 221.258C141.615 221.258 141.167 221.391 140.733 221.657C140.299 221.923 139.963 222.238 139.725 222.602V229.7H137.52V223.085C137.52 221.867 136.96 221.258 135.84 221.258C135.392 221.258 134.951 221.391 134.517 221.657C134.097 221.923 133.761 222.245 133.509 222.623V229.7H131.304V219.557H133.509V220.943C133.761 220.565 134.195 220.201 134.811 219.851C135.441 219.487 136.106 219.305 136.806 219.305C138.276 219.305 139.2 219.928 139.578 221.174C139.9 220.67 140.376 220.236 141.006 219.872C141.636 219.494 142.308 219.305 143.022 219.305C144.968 219.305 145.941 220.327 145.941 222.371V229.7ZM159.651 229.952C158.307 229.952 157.222 229.399 156.396 228.293V233.564H154.191V219.557H156.396V220.943C157.208 219.851 158.293 219.305 159.651 219.305C160.981 219.305 162.059 219.781 162.885 220.733C163.725 221.685 164.145 222.98 164.145 224.618C164.145 226.256 163.725 227.558 162.885 228.524C162.059 229.476 160.981 229.952 159.651 229.952ZM159 227.999C159.868 227.999 160.561 227.684 161.079 227.054C161.597 226.424 161.856 225.612 161.856 224.618C161.856 223.624 161.597 222.819 161.079 222.203C160.561 221.573 159.868 221.258 159 221.258C158.496 221.258 157.999 221.391 157.509 221.657C157.019 221.923 156.648 222.245 156.396 222.623V226.634C156.648 227.012 157.019 227.334 157.509 227.6C157.999 227.866 158.496 227.999 159 227.999ZM168.536 229.7H166.331V219.557H168.536V221.048C168.928 220.544 169.418 220.131 170.006 219.809C170.594 219.487 171.203 219.326 171.833 219.326V221.51C171.637 221.468 171.406 221.447 171.14 221.447C170.678 221.447 170.181 221.587 169.649 221.867C169.131 222.133 168.76 222.441 168.536 222.791V229.7ZM178.19 229.952C176.622 229.952 175.362 229.441 174.41 228.419C173.458 227.383 172.982 226.116 172.982 224.618C172.982 223.12 173.458 221.86 174.41 220.838C175.362 219.816 176.622 219.305 178.19 219.305C179.772 219.305 181.039 219.816 181.991 220.838C182.943 221.86 183.419 223.12 183.419 224.618C183.419 226.13 182.943 227.397 181.991 228.419C181.039 229.441 179.772 229.952 178.19 229.952ZM178.19 227.999C179.1 227.999 179.814 227.677 180.332 227.033C180.864 226.375 181.13 225.57 181.13 224.618C181.13 223.68 180.864 222.889 180.332 222.245C179.814 221.587 179.1 221.258 178.19 221.258C177.294 221.258 176.58 221.587 176.048 222.245C175.53 222.889 175.271 223.68 175.271 224.618C175.271 225.57 175.53 226.375 176.048 227.033C176.58 227.677 177.294 227.999 178.19 227.999ZM188.695 229.952C187.841 229.952 187.19 229.728 186.742 229.28C186.308 228.832 186.091 228.188 186.091 227.348V221.489H184.411V219.557H186.091V216.785H188.296V219.557H190.354V221.489H188.296V226.802C188.296 227.166 188.38 227.46 188.548 227.684C188.716 227.894 188.954 227.999 189.262 227.999C189.71 227.999 190.039 227.88 190.249 227.642L190.774 229.301C190.312 229.735 189.619 229.952 188.695 229.952ZM196.934 229.952C195.366 229.952 194.106 229.441 193.154 228.419C192.202 227.383 191.726 226.116 191.726 224.618C191.726 223.12 192.202 221.86 193.154 220.838C194.106 219.816 195.366 219.305 196.934 219.305C198.516 219.305 199.783 219.816 200.735 220.838C201.687 221.86 202.163 223.12 202.163 224.618C202.163 226.13 201.687 227.397 200.735 228.419C199.783 229.441 198.516 229.952 196.934 229.952ZM196.934 227.999C197.844 227.999 198.558 227.677 199.076 227.033C199.608 226.375 199.874 225.57 199.874 224.618C199.874 223.68 199.608 222.889 199.076 222.245C198.558 221.587 197.844 221.258 196.934 221.258C196.038 221.258 195.324 221.587 194.792 222.245C194.274 222.889 194.015 223.68 194.015 224.618C194.015 225.57 194.274 226.375 194.792 227.033C195.324 227.677 196.038 227.999 196.934 227.999ZM209.014 229.952C207.474 229.952 206.214 229.455 205.234 228.461C204.254 227.453 203.764 226.172 203.764 224.618C203.764 223.078 204.254 221.811 205.234 220.817C206.214 219.809 207.474 219.305 209.014 219.305C210.708 219.305 212.003 219.907 212.899 221.111L211.45 222.455C210.89 221.657 210.113 221.258 209.119 221.258C208.195 221.258 207.453 221.573 206.893 222.203C206.333 222.819 206.053 223.624 206.053 224.618C206.053 225.612 206.333 226.424 206.893 227.054C207.453 227.684 208.195 227.999 209.119 227.999C210.085 227.999 210.862 227.6 211.45 226.802L212.899 228.146C212.003 229.35 210.708 229.952 209.014 229.952ZM219.41 229.952C217.842 229.952 216.582 229.441 215.63 228.419C214.678 227.383 214.202 226.116 214.202 224.618C214.202 223.12 214.678 221.86 215.63 220.838C216.582 219.816 217.842 219.305 219.41 219.305C220.992 219.305 222.259 219.816 223.211 220.838C224.163 221.86 224.639 223.12 224.639 224.618C224.639 226.13 224.163 227.397 223.211 228.419C222.259 229.441 220.992 229.952 219.41 229.952ZM219.41 227.999C220.32 227.999 221.034 227.677 221.552 227.033C222.084 226.375 222.35 225.57 222.35 224.618C222.35 223.68 222.084 222.889 221.552 222.245C221.034 221.587 220.32 221.258 219.41 221.258C218.514 221.258 217.8 221.587 217.268 222.245C216.75 222.889 216.491 223.68 216.491 224.618C216.491 225.57 216.75 226.375 217.268 227.033C217.8 227.677 218.514 227.999 219.41 227.999ZM229.075 229.7H226.87V215.693H229.075V229.7ZM239.534 229.7H237.329V219.557H239.534V221.048C239.926 220.544 240.416 220.131 241.004 219.809C241.592 219.487 242.201 219.326 242.831 219.326V221.51C242.635 221.468 242.404 221.447 242.138 221.447C241.676 221.447 241.179 221.587 240.647 221.867C240.129 222.133 239.758 222.441 239.534 222.791V229.7ZM249.293 229.952C247.753 229.952 246.479 229.462 245.471 228.482C244.477 227.488 243.98 226.2 243.98 224.618C243.98 223.134 244.463 221.881 245.429 220.859C246.409 219.823 247.641 219.305 249.125 219.305C250.623 219.305 251.827 219.823 252.737 220.859C253.661 221.895 254.123 223.218 254.123 224.828V225.353H246.29C246.374 226.151 246.703 226.816 247.277 227.348C247.851 227.88 248.6 228.146 249.524 228.146C250.042 228.146 250.56 228.048 251.078 227.852C251.61 227.656 252.051 227.383 252.401 227.033L253.409 228.482C252.387 229.462 251.015 229.952 249.293 229.952ZM251.981 223.799C251.953 223.099 251.694 222.476 251.204 221.93C250.728 221.384 250.035 221.111 249.125 221.111C248.257 221.111 247.578 221.384 247.088 221.93C246.598 222.462 246.325 223.085 246.269 223.799H251.981ZM259.764 229.952C257.944 229.952 256.495 229.427 255.417 228.377L256.425 226.781C256.803 227.173 257.314 227.509 257.958 227.789C258.602 228.069 259.239 228.209 259.869 228.209C260.513 228.209 261.003 228.083 261.339 227.831C261.689 227.579 261.864 227.25 261.864 226.844C261.864 226.48 261.654 226.2 261.234 226.004C260.814 225.794 260.303 225.633 259.701 225.521C259.099 225.395 258.497 225.248 257.895 225.08C257.293 224.898 256.782 224.583 256.362 224.135C255.942 223.687 255.732 223.106 255.732 222.392C255.732 221.524 256.089 220.796 256.803 220.208C257.517 219.606 258.49 219.305 259.722 219.305C261.276 219.305 262.592 219.781 263.67 220.733L262.746 222.287C262.424 221.923 261.997 221.629 261.465 221.405C260.933 221.181 260.359 221.069 259.743 221.069C259.169 221.069 258.707 221.188 258.357 221.426C258.021 221.65 257.853 221.944 257.853 222.308C257.853 222.588 258 222.819 258.294 223.001C258.602 223.169 258.98 223.295 259.428 223.379C259.89 223.463 260.387 223.582 260.919 223.736C261.451 223.876 261.941 224.044 262.389 224.24C262.851 224.436 263.229 224.758 263.523 225.206C263.831 225.64 263.985 226.172 263.985 226.802C263.985 227.726 263.614 228.482 262.872 229.07C262.13 229.658 261.094 229.952 259.764 229.952ZM270.887 229.952C269.347 229.952 268.073 229.462 267.065 228.482C266.071 227.488 265.574 226.2 265.574 224.618C265.574 223.134 266.057 221.881 267.023 220.859C268.003 219.823 269.235 219.305 270.719 219.305C272.217 219.305 273.421 219.823 274.331 220.859C275.255 221.895 275.717 223.218 275.717 224.828V225.353H267.884C267.968 226.151 268.297 226.816 268.871 227.348C269.445 227.88 270.194 228.146 271.118 228.146C271.636 228.146 272.154 228.048 272.672 227.852C273.204 227.656 273.645 227.383 273.995 227.033L275.003 228.482C273.981 229.462 272.609 229.952 270.887 229.952ZM273.575 223.799C273.547 223.099 273.288 222.476 272.798 221.93C272.322 221.384 271.629 221.111 270.719 221.111C269.851 221.111 269.172 221.384 268.682 221.93C268.192 222.462 267.919 223.085 267.863 223.799H273.575ZM280.099 229.7H277.894V219.557H280.099V221.048C280.491 220.544 280.981 220.131 281.569 219.809C282.157 219.487 282.766 219.326 283.396 219.326V221.51C283.2 221.468 282.969 221.447 282.703 221.447C282.241 221.447 281.744 221.587 281.212 221.867C280.694 222.133 280.323 222.441 280.099 222.791V229.7ZM290.214 229.7H287.841L283.704 219.557H286.056L289.017 227.159L291.978 219.557H294.351L290.214 229.7ZM300.419 229.952C298.879 229.952 297.605 229.462 296.597 228.482C295.603 227.488 295.106 226.2 295.106 224.618C295.106 223.134 295.589 221.881 296.555 220.859C297.535 219.823 298.767 219.305 300.251 219.305C301.749 219.305 302.953 219.823 303.863 220.859C304.787 221.895 305.249 223.218 305.249 224.828V225.353H297.416C297.5 226.151 297.829 226.816 298.403 227.348C298.977 227.88 299.726 228.146 300.65 228.146C301.168 228.146 301.686 228.048 302.204 227.852C302.736 227.656 303.177 227.383 303.527 227.033L304.535 228.482C303.513 229.462 302.141 229.952 300.419 229.952ZM303.107 223.799C303.079 223.099 302.82 222.476 302.33 221.93C301.854 221.384 301.161 221.111 300.251 221.111C299.383 221.111 298.704 221.384 298.214 221.93C297.724 222.462 297.451 223.085 297.395 223.799H303.107ZM310.89 229.952C309.07 229.952 307.621 229.427 306.543 228.377L307.551 226.781C307.929 227.173 308.44 227.509 309.084 227.789C309.728 228.069 310.365 228.209 310.995 228.209C311.639 228.209 312.129 228.083 312.465 227.831C312.815 227.579 312.99 227.25 312.99 226.844C312.99 226.48 312.78 226.2 312.36 226.004C311.94 225.794 311.429 225.633 310.827 225.521C310.225 225.395 309.623 225.248 309.021 225.08C308.419 224.898 307.908 224.583 307.488 224.135C307.068 223.687 306.858 223.106 306.858 222.392C306.858 221.524 307.215 220.796 307.929 220.208C308.643 219.606 309.616 219.305 310.848 219.305C312.402 219.305 313.718 219.781 314.796 220.733L313.872 222.287C313.55 221.923 313.123 221.629 312.591 221.405C312.059 221.181 311.485 221.069 310.869 221.069C310.295 221.069 309.833 221.188 309.483 221.426C309.147 221.65 308.979 221.944 308.979 222.308C308.979 222.588 309.126 222.819 309.42 223.001C309.728 223.169 310.106 223.295 310.554 223.379C311.016 223.463 311.513 223.582 312.045 223.736C312.577 223.876 313.067 224.044 313.515 224.24C313.977 224.436 314.355 224.758 314.649 225.206C314.957 225.64 315.111 226.172 315.111 226.802C315.111 227.726 314.74 228.482 313.998 229.07C313.256 229.658 312.22 229.952 310.89 229.952Z" fill="white"/>
<path d="M693.57 202.7H690.777L689.748 200.012H683.322L682.293 202.7H679.5L685.002 188.693H688.068L693.57 202.7ZM689.055 197.849L686.535 191.171L684.015 197.849H689.055ZM704.382 202.7H702.177V201.314C701.337 202.406 700.252 202.952 698.922 202.952C697.592 202.952 696.507 202.476 695.667 201.524C694.827 200.572 694.407 199.277 694.407 197.639C694.407 196.015 694.827 194.72 695.667 193.754C696.507 192.788 697.592 192.305 698.922 192.305C700.252 192.305 701.337 192.858 702.177 193.964V188.693H704.382V202.7ZM699.552 200.999C700.07 200.999 700.574 200.873 701.064 200.621C701.554 200.369 701.925 200.047 702.177 199.655V195.623C701.925 195.231 701.554 194.909 701.064 194.657C700.574 194.391 700.07 194.258 699.552 194.258C698.684 194.258 697.991 194.573 697.473 195.203C696.955 195.833 696.696 196.645 696.696 197.639C696.696 198.633 696.955 199.445 697.473 200.075C697.991 200.691 698.684 200.999 699.552 200.999ZM716.584 202.7H714.379V201.314C713.539 202.406 712.454 202.952 711.124 202.952C709.794 202.952 708.709 202.476 707.869 201.524C707.029 200.572 706.609 199.277 706.609 197.639C706.609 196.015 707.029 194.72 707.869 193.754C708.709 192.788 709.794 192.305 711.124 192.305C712.454 192.305 713.539 192.858 714.379 193.964V188.693H716.584V202.7ZM711.754 200.999C712.272 200.999 712.776 200.873 713.266 200.621C713.756 200.369 714.127 200.047 714.379 199.655V195.623C714.127 195.231 713.756 194.909 713.266 194.657C712.776 194.391 712.272 194.258 711.754 194.258C710.886 194.258 710.193 194.573 709.675 195.203C709.157 195.833 708.898 196.645 708.898 197.639C708.898 198.633 709.157 199.445 709.675 200.075C710.193 200.691 710.886 200.999 711.754 200.999ZM720.533 191.318C720.169 191.318 719.847 191.185 719.567 190.919C719.301 190.653 719.168 190.331 719.168 189.953C719.168 189.575 719.301 189.253 719.567 188.987C719.847 188.721 720.169 188.588 720.533 188.588C720.911 188.588 721.233 188.721 721.499 188.987C721.765 189.253 721.898 189.575 721.898 189.953C721.898 190.331 721.765 190.653 721.499 190.919C721.233 191.185 720.911 191.318 720.533 191.318ZM721.646 202.7H719.441V192.557H721.646V202.7ZM727.552 202.952C726.698 202.952 726.047 202.728 725.599 202.28C725.165 201.832 724.948 201.188 724.948 200.348V194.489H723.268V192.557H724.948V189.785H727.153V192.557H729.211V194.489H727.153V199.802C727.153 200.166 727.237 200.46 727.405 200.684C727.573 200.894 727.811 200.999 728.119 200.999C728.567 200.999 728.896 200.88 729.106 200.642L729.631 202.301C729.169 202.735 728.476 202.952 727.552 202.952ZM732.305 191.318C731.941 191.318 731.619 191.185 731.339 190.919C731.073 190.653 730.94 190.331 730.94 189.953C730.94 189.575 731.073 189.253 731.339 188.987C731.619 188.721 731.941 188.588 732.305 188.588C732.683 188.588 733.005 188.721 733.271 188.987C733.537 189.253 733.67 189.575 733.67 189.953C733.67 190.331 733.537 190.653 733.271 190.919C733.005 191.185 732.683 191.318 732.305 191.318ZM733.418 202.7H731.213V192.557H733.418V202.7ZM740.856 202.952C739.288 202.952 738.028 202.441 737.076 201.419C736.124 200.383 735.648 199.116 735.648 197.618C735.648 196.12 736.124 194.86 737.076 193.838C738.028 192.816 739.288 192.305 740.856 192.305C742.438 192.305 743.705 192.816 744.657 193.838C745.609 194.86 746.085 196.12 746.085 197.618C746.085 199.13 745.609 200.397 744.657 201.419C743.705 202.441 742.438 202.952 740.856 202.952ZM740.856 200.999C741.766 200.999 742.48 200.677 742.998 200.033C743.53 199.375 743.796 198.57 743.796 197.618C743.796 196.68 743.53 195.889 742.998 195.245C742.48 194.587 741.766 194.258 740.856 194.258C739.96 194.258 739.246 194.587 738.714 195.245C738.196 195.889 737.937 196.68 737.937 197.618C737.937 198.57 738.196 199.375 738.714 200.033C739.246 200.677 739.96 200.999 740.856 200.999ZM757.367 202.7H755.162V196.358C755.162 194.958 754.483 194.258 753.125 194.258C752.593 194.258 752.096 194.391 751.634 194.657C751.172 194.923 750.801 195.245 750.521 195.623V202.7H748.316V192.557H750.521V193.943C750.899 193.495 751.403 193.11 752.033 192.788C752.663 192.466 753.349 192.305 754.091 192.305C755.169 192.305 755.981 192.585 756.527 193.145C757.087 193.705 757.367 194.51 757.367 195.56V202.7ZM768.631 202.7H766.426V201.608C765.642 202.504 764.55 202.952 763.15 202.952C762.226 202.952 761.407 202.658 760.693 202.07C759.979 201.468 759.622 200.642 759.622 199.592C759.622 198.514 759.972 197.695 760.672 197.135C761.386 196.575 762.212 196.295 763.15 196.295C764.592 196.295 765.684 196.729 766.426 197.597V196.085C766.426 195.497 766.209 195.035 765.775 194.699C765.341 194.363 764.767 194.195 764.053 194.195C762.919 194.195 761.918 194.622 761.05 195.476L760.147 193.943C761.295 192.851 762.716 192.305 764.41 192.305C765.656 192.305 766.671 192.599 767.455 193.187C768.239 193.775 768.631 194.706 768.631 195.98V202.7ZM764.011 201.44C765.117 201.44 765.922 201.09 766.426 200.39V198.857C765.922 198.157 765.117 197.807 764.011 197.807C763.381 197.807 762.863 197.975 762.457 198.311C762.051 198.647 761.848 199.088 761.848 199.634C761.848 200.18 762.051 200.621 762.457 200.957C762.863 201.279 763.381 201.44 764.011 201.44ZM773.695 202.7H771.49V188.693H773.695V202.7ZM655.447 229.7H653.242V219.557H655.447V221.048C655.839 220.544 656.329 220.131 656.917 219.809C657.505 219.487 658.114 219.326 658.744 219.326V221.51C658.548 221.468 658.317 221.447 658.051 221.447C657.589 221.447 657.092 221.587 656.56 221.867C656.042 222.133 655.671 222.441 655.447 222.791V229.7ZM665.205 229.952C663.665 229.952 662.391 229.462 661.383 228.482C660.389 227.488 659.892 226.2 659.892 224.618C659.892 223.134 660.375 221.881 661.341 220.859C662.321 219.823 663.553 219.305 665.037 219.305C666.535 219.305 667.739 219.823 668.649 220.859C669.573 221.895 670.035 223.218 670.035 224.828V225.353H662.202C662.286 226.151 662.615 226.816 663.189 227.348C663.763 227.88 664.512 228.146 665.436 228.146C665.954 228.146 666.472 228.048 666.99 227.852C667.522 227.656 667.963 227.383 668.313 227.033L669.321 228.482C668.299 229.462 666.927 229.952 665.205 229.952ZM667.893 223.799C667.865 223.099 667.606 222.476 667.116 221.93C666.64 221.384 665.947 221.111 665.037 221.111C664.169 221.111 663.49 221.384 663 221.93C662.51 222.462 662.237 223.085 662.181 223.799H667.893ZM677.252 229.7H674.879L670.742 219.557H673.094L676.055 227.159L679.016 219.557H681.389L677.252 229.7ZM687.456 229.952C685.916 229.952 684.642 229.462 683.634 228.482C682.64 227.488 682.143 226.2 682.143 224.618C682.143 223.134 682.626 221.881 683.592 220.859C684.572 219.823 685.804 219.305 687.288 219.305C688.786 219.305 689.99 219.823 690.9 220.859C691.824 221.895 692.286 223.218 692.286 224.828V225.353H684.453C684.537 226.151 684.866 226.816 685.44 227.348C686.014 227.88 686.763 228.146 687.687 228.146C688.205 228.146 688.723 228.048 689.241 227.852C689.773 227.656 690.214 227.383 690.564 227.033L691.572 228.482C690.55 229.462 689.178 229.952 687.456 229.952ZM690.144 223.799C690.116 223.099 689.857 222.476 689.367 221.93C688.891 221.384 688.198 221.111 687.288 221.111C686.42 221.111 685.741 221.384 685.251 221.93C684.761 222.462 684.488 223.085 684.432 223.799H690.144ZM703.514 229.7H701.309V223.358C701.309 221.958 700.63 221.258 699.272 221.258C698.74 221.258 698.243 221.391 697.781 221.657C697.319 221.923 696.948 222.245 696.668 222.623V229.7H694.463V219.557H696.668V220.943C697.046 220.495 697.55 220.11 698.18 219.788C698.81 219.466 699.496 219.305 700.238 219.305C701.316 219.305 702.128 219.585 702.674 220.145C703.234 220.705 703.514 221.51 703.514 222.56V229.7ZM715.429 229.7H713.224V228.356C712.272 229.42 711.075 229.952 709.633 229.952C707.463 229.952 706.378 228.881 706.378 226.739V219.557H708.583V225.941C708.583 226.683 708.758 227.215 709.108 227.537C709.458 227.845 709.962 227.999 710.62 227.999C711.152 227.999 711.649 227.873 712.111 227.621C712.573 227.369 712.944 227.054 713.224 226.676V219.557H715.429V229.7ZM722.976 229.952C721.436 229.952 720.162 229.462 719.154 228.482C718.16 227.488 717.663 226.2 717.663 224.618C717.663 223.134 718.146 221.881 719.112 220.859C720.092 219.823 721.324 219.305 722.808 219.305C724.306 219.305 725.51 219.823 726.42 220.859C727.344 221.895 727.806 223.218 727.806 224.828V225.353H719.973C720.057 226.151 720.386 226.816 720.96 227.348C721.534 227.88 722.283 228.146 723.207 228.146C723.725 228.146 724.243 228.048 724.761 227.852C725.293 227.656 725.734 227.383 726.084 227.033L727.092 228.482C726.07 229.462 724.698 229.952 722.976 229.952ZM725.664 223.799C725.636 223.099 725.377 222.476 724.887 221.93C724.411 221.384 723.718 221.111 722.808 221.111C721.94 221.111 721.261 221.384 720.771 221.93C720.281 222.462 720.008 223.085 719.952 223.799H725.664ZM738.841 229.952C737.021 229.952 735.572 229.427 734.494 228.377L735.502 226.781C735.88 227.173 736.391 227.509 737.035 227.789C737.679 228.069 738.316 228.209 738.946 228.209C739.59 228.209 740.08 228.083 740.416 227.831C740.766 227.579 740.941 227.25 740.941 226.844C740.941 226.48 740.731 226.2 740.311 226.004C739.891 225.794 739.38 225.633 738.778 225.521C738.176 225.395 737.574 225.248 736.972 225.08C736.37 224.898 735.859 224.583 735.439 224.135C735.019 223.687 734.809 223.106 734.809 222.392C734.809 221.524 735.166 220.796 735.88 220.208C736.594 219.606 737.567 219.305 738.799 219.305C740.353 219.305 741.669 219.781 742.747 220.733L741.823 222.287C741.501 221.923 741.074 221.629 740.542 221.405C740.01 221.181 739.436 221.069 738.82 221.069C738.246 221.069 737.784 221.188 737.434 221.426C737.098 221.65 736.93 221.944 736.93 222.308C736.93 222.588 737.077 222.819 737.371 223.001C737.679 223.169 738.057 223.295 738.505 223.379C738.967 223.463 739.464 223.582 739.996 223.736C740.528 223.876 741.018 224.044 741.466 224.24C741.928 224.436 742.306 224.758 742.6 225.206C742.908 225.64 743.062 226.172 743.062 226.802C743.062 227.726 742.691 228.482 741.949 229.07C741.207 229.658 740.171 229.952 738.841 229.952ZM748.326 229.952C747.472 229.952 746.821 229.728 746.373 229.28C745.939 228.832 745.722 228.188 745.722 227.348V221.489H744.042V219.557H745.722V216.785H747.927V219.557H749.985V221.489H747.927V226.802C747.927 227.166 748.011 227.46 748.179 227.684C748.347 227.894 748.585 227.999 748.893 227.999C749.341 227.999 749.67 227.88 749.88 227.642L750.405 229.301C749.943 229.735 749.25 229.952 748.326 229.952ZM754.192 229.7H751.987V219.557H754.192V221.048C754.584 220.544 755.074 220.131 755.662 219.809C756.25 219.487 756.859 219.326 757.489 219.326V221.51C757.293 221.468 757.062 221.447 756.796 221.447C756.334 221.447 755.837 221.587 755.305 221.867C754.787 222.133 754.416 222.441 754.192 222.791V229.7ZM763.95 229.952C762.41 229.952 761.136 229.462 760.128 228.482C759.134 227.488 758.637 226.2 758.637 224.618C758.637 223.134 759.12 221.881 760.086 220.859C761.066 219.823 762.298 219.305 763.782 219.305C765.28 219.305 766.484 219.823 767.394 220.859C768.318 221.895 768.78 223.218 768.78 224.828V225.353H760.947C761.031 226.151 761.36 226.816 761.934 227.348C762.508 227.88 763.257 228.146 764.181 228.146C764.699 228.146 765.217 228.048 765.735 227.852C766.267 227.656 766.708 227.383 767.058 227.033L768.066 228.482C767.044 229.462 765.672 229.952 763.95 229.952ZM766.638 223.799C766.61 223.099 766.351 222.476 765.861 221.93C765.385 221.384 764.692 221.111 763.782 221.111C762.914 221.111 762.235 221.384 761.745 221.93C761.255 222.462 760.982 223.085 760.926 223.799H766.638ZM779.357 229.7H777.152V228.608C776.368 229.504 775.276 229.952 773.876 229.952C772.952 229.952 772.133 229.658 771.419 229.07C770.705 228.468 770.348 227.642 770.348 226.592C770.348 225.514 770.698 224.695 771.398 224.135C772.112 223.575 772.938 223.295 773.876 223.295C775.318 223.295 776.41 223.729 777.152 224.597V223.085C777.152 222.497 776.935 222.035 776.501 221.699C776.067 221.363 775.493 221.195 774.779 221.195C773.645 221.195 772.644 221.622 771.776 222.476L770.873 220.943C772.021 219.851 773.442 219.305 775.136 219.305C776.382 219.305 777.397 219.599 778.181 220.187C778.965 220.775 779.357 221.706 779.357 222.98V229.7ZM774.737 228.44C775.843 228.44 776.648 228.09 777.152 227.39V225.857C776.648 225.157 775.843 224.807 774.737 224.807C774.107 224.807 773.589 224.975 773.183 225.311C772.777 225.647 772.574 226.088 772.574 226.634C772.574 227.18 772.777 227.621 773.183 227.957C773.589 228.279 774.107 228.44 774.737 228.44ZM796.853 229.7H794.648V223.085C794.648 221.867 794.095 221.258 792.989 221.258C792.527 221.258 792.079 221.391 791.645 221.657C791.211 221.923 790.875 222.238 790.637 222.602V229.7H788.432V223.085C788.432 221.867 787.872 221.258 786.752 221.258C786.304 221.258 785.863 221.391 785.429 221.657C785.009 221.923 784.673 222.245 784.421 222.623V229.7H782.216V219.557H784.421V220.943C784.673 220.565 785.107 220.201 785.723 219.851C786.353 219.487 787.018 219.305 787.718 219.305C789.188 219.305 790.112 219.928 790.49 221.174C790.812 220.67 791.288 220.236 791.918 219.872C792.548 219.494 793.22 219.305 793.934 219.305C795.88 219.305 796.853 220.327 796.853 222.371V229.7ZM803.174 229.952C801.354 229.952 799.905 229.427 798.827 228.377L799.835 226.781C800.213 227.173 800.724 227.509 801.368 227.789C802.012 228.069 802.649 228.209 803.279 228.209C803.923 228.209 804.413 228.083 804.749 227.831C805.099 227.579 805.274 227.25 805.274 226.844C805.274 226.48 805.064 226.2 804.644 226.004C804.224 225.794 803.713 225.633 803.111 225.521C802.509 225.395 801.907 225.248 801.305 225.08C800.703 224.898 800.192 224.583 799.772 224.135C799.352 223.687 799.142 223.106 799.142 222.392C799.142 221.524 799.499 220.796 800.213 220.208C800.927 219.606 801.9 219.305 803.132 219.305C804.686 219.305 806.002 219.781 807.08 220.733L806.156 222.287C805.834 221.923 805.407 221.629 804.875 221.405C804.343 221.181 803.769 221.069 803.153 221.069C802.579 221.069 802.117 221.188 801.767 221.426C801.431 221.65 801.263 221.944 801.263 222.308C801.263 222.588 801.41 222.819 801.704 223.001C802.012 223.169 802.39 223.295 802.838 223.379C803.3 223.463 803.797 223.582 804.329 223.736C804.861 223.876 805.351 224.044 805.799 224.24C806.261 224.436 806.639 224.758 806.933 225.206C807.241 225.64 807.395 226.172 807.395 226.802C807.395 227.726 807.024 228.482 806.282 229.07C805.54 229.658 804.504 229.952 803.174 229.952Z" fill="white"/>
<path d="M196.026 389.252C195.032 389.252 194.157 389.063 193.401 388.685C192.645 388.293 192.043 387.761 191.595 387.089C191.147 386.417 190.811 385.661 190.587 384.821C190.363 383.967 190.251 383.036 190.251 382.028C190.251 379.914 190.79 378.178 191.868 376.82C192.946 375.462 194.465 374.783 196.425 374.783C198.049 374.783 199.393 375.301 200.457 376.337L199.302 378.206C198.518 377.38 197.559 376.967 196.425 376.967C195.305 376.967 194.409 377.415 193.737 378.311C193.065 379.207 192.729 380.299 192.729 381.587C192.729 381.769 192.736 381.902 192.75 381.986C193.1 381.468 193.618 381.013 194.304 380.621C194.99 380.229 195.725 380.033 196.509 380.033C197.839 380.033 198.952 380.432 199.848 381.23C200.744 382.014 201.192 383.12 201.192 384.548C201.192 385.878 200.716 386.998 199.764 387.908C198.812 388.804 197.566 389.252 196.026 389.252ZM195.9 387.068C196.768 387.068 197.454 386.823 197.958 386.333C198.462 385.829 198.714 385.262 198.714 384.632C198.714 383.82 198.441 383.204 197.895 382.784C197.349 382.35 196.663 382.133 195.837 382.133C195.249 382.133 194.682 382.287 194.136 382.595C193.59 382.889 193.135 383.288 192.771 383.792C192.855 384.688 193.149 385.458 193.653 386.102C194.157 386.746 194.906 387.068 195.9 387.068ZM210.99 388.622C210.248 389.042 209.408 389.252 208.47 389.252C207.532 389.252 206.692 389.042 205.95 388.622C205.208 388.202 204.62 387.642 204.186 386.942C203.752 386.242 203.423 385.472 203.199 384.632C202.975 383.792 202.863 382.917 202.863 382.007C202.863 381.097 202.975 380.222 203.199 379.382C203.423 378.542 203.752 377.779 204.186 377.093C204.62 376.393 205.208 375.833 205.95 375.413C206.692 374.993 207.532 374.783 208.47 374.783C209.408 374.783 210.248 374.993 210.99 375.413C211.732 375.833 212.32 376.393 212.754 377.093C213.188 377.779 213.517 378.542 213.741 379.382C213.965 380.222 214.077 381.097 214.077 382.007C214.077 382.917 213.965 383.792 213.741 384.632C213.517 385.472 213.188 386.242 212.754 386.942C212.32 387.642 211.732 388.202 210.99 388.622ZM206.118 385.64C206.622 386.592 207.406 387.068 208.47 387.068C209.534 387.068 210.318 386.592 210.822 385.64C211.326 384.688 211.578 383.477 211.578 382.007C211.578 381.069 211.48 380.236 211.284 379.508C211.102 378.78 210.766 378.178 210.276 377.702C209.8 377.212 209.198 376.967 208.47 376.967C207.742 376.967 207.133 377.212 206.643 377.702C206.167 378.178 205.831 378.78 205.635 379.508C205.453 380.236 205.362 381.069 205.362 382.007C205.362 383.477 205.614 384.688 206.118 385.64ZM218.995 381.734C217.973 381.734 217.14 381.412 216.496 380.768C215.852 380.11 215.53 379.284 215.53 378.29C215.53 377.282 215.852 376.449 216.496 375.791C217.14 375.119 217.973 374.783 218.995 374.783C220.031 374.783 220.871 375.119 221.515 375.791C222.173 376.449 222.502 377.282 222.502 378.29C222.502 379.284 222.173 380.11 221.515 380.768C220.871 381.412 220.031 381.734 218.995 381.734ZM219.037 389H217.651L226.597 374.993H228.004L219.037 389ZM229.033 388.286C228.389 388.93 227.556 389.252 226.534 389.252C225.512 389.252 224.679 388.93 224.035 388.286C223.391 387.628 223.069 386.802 223.069 385.808C223.069 384.8 223.391 383.967 224.035 383.309C224.679 382.637 225.512 382.301 226.534 382.301C227.556 382.301 228.389 382.637 229.033 383.309C229.691 383.981 230.02 384.814 230.02 385.808C230.02 386.802 229.691 387.628 229.033 388.286ZM218.995 380.348C219.541 380.348 219.989 380.159 220.339 379.781C220.689 379.389 220.864 378.892 220.864 378.29C220.864 377.66 220.689 377.156 220.339 376.778C219.989 376.386 219.541 376.19 218.995 376.19C218.449 376.19 218.001 376.386 217.651 376.778C217.315 377.156 217.147 377.66 217.147 378.29C217.147 378.892 217.322 379.389 217.672 379.781C218.022 380.159 218.463 380.348 218.995 380.348ZM225.19 387.299C225.54 387.677 225.988 387.866 226.534 387.866C227.08 387.866 227.528 387.677 227.878 387.299C228.228 386.907 228.403 386.41 228.403 385.808C228.403 385.178 228.228 384.674 227.878 384.296C227.528 383.904 227.08 383.708 226.534 383.708C225.988 383.708 225.54 383.904 225.19 384.296C224.854 384.674 224.686 385.178 224.686 385.808C224.686 386.41 224.854 386.907 225.19 387.299Z" fill="white"/>
<path d="M719.51 388.244C718.488 388.916 717.221 389.252 715.709 389.252C714.197 389.252 712.923 388.916 711.887 388.244C710.851 387.558 710.333 386.613 710.333 385.409C710.333 384.555 710.627 383.813 711.215 383.183C711.817 382.553 712.573 382.084 713.483 381.776C712.615 381.496 711.908 381.083 711.362 380.537C710.83 379.991 710.564 379.298 710.564 378.458C710.564 377.842 710.711 377.289 711.005 376.799C711.313 376.309 711.712 375.924 712.202 375.644C712.706 375.364 713.252 375.154 713.84 375.014C714.442 374.86 715.065 374.783 715.709 374.783C716.353 374.783 716.969 374.86 717.557 375.014C718.145 375.154 718.691 375.364 719.195 375.644C719.699 375.924 720.098 376.309 720.392 376.799C720.7 377.289 720.854 377.842 720.854 378.458C720.854 380.04 719.874 381.146 717.914 381.776C718.824 382.084 719.573 382.553 720.161 383.183C720.763 383.813 721.064 384.555 721.064 385.409C721.064 386.613 720.546 387.558 719.51 388.244ZM715.709 380.81C716.087 380.74 716.451 380.649 716.801 380.537C717.151 380.411 717.494 380.201 717.83 379.907C718.18 379.599 718.355 379.242 718.355 378.836C718.355 378.262 718.103 377.807 717.599 377.471C717.109 377.135 716.479 376.967 715.709 376.967C714.925 376.967 714.281 377.135 713.777 377.471C713.287 377.807 713.042 378.262 713.042 378.836C713.042 379.242 713.217 379.599 713.567 379.907C713.917 380.201 714.267 380.411 714.617 380.537C714.967 380.649 715.331 380.74 715.709 380.81ZM715.709 387.068C716.507 387.068 717.186 386.886 717.746 386.522C718.306 386.158 718.586 385.682 718.586 385.094C718.586 384.464 718.257 383.96 717.599 383.582C716.955 383.19 716.325 382.959 715.709 382.889C715.345 382.931 714.96 383.029 714.554 383.183C714.148 383.323 713.756 383.568 713.378 383.918C713 384.254 712.811 384.646 712.811 385.094C712.811 385.682 713.084 386.158 713.63 386.522C714.19 386.886 714.883 387.068 715.709 387.068ZM730.928 388.622C730.186 389.042 729.346 389.252 728.408 389.252C727.47 389.252 726.63 389.042 725.888 388.622C725.146 388.202 724.558 387.642 724.124 386.942C723.69 386.242 723.361 385.472 723.137 384.632C722.913 383.792 722.801 382.917 722.801 382.007C722.801 381.097 722.913 380.222 723.137 379.382C723.361 378.542 723.69 377.779 724.124 377.093C724.558 376.393 725.146 375.833 725.888 375.413C726.63 374.993 727.47 374.783 728.408 374.783C729.346 374.783 730.186 374.993 730.928 375.413C731.67 375.833 732.258 376.393 732.692 377.093C733.126 377.779 733.455 378.542 733.679 379.382C733.903 380.222 734.015 381.097 734.015 382.007C734.015 382.917 733.903 383.792 733.679 384.632C733.455 385.472 733.126 386.242 732.692 386.942C732.258 387.642 731.67 388.202 730.928 388.622ZM726.056 385.64C726.56 386.592 727.344 387.068 728.408 387.068C729.472 387.068 730.256 386.592 730.76 385.64C731.264 384.688 731.516 383.477 731.516 382.007C731.516 381.069 731.418 380.236 731.222 379.508C731.04 378.78 730.704 378.178 730.214 377.702C729.738 377.212 729.136 376.967 728.408 376.967C727.68 376.967 727.071 377.212 726.581 377.702C726.105 378.178 725.769 378.78 725.573 379.508C725.391 380.236 725.3 381.069 725.3 382.007C725.3 383.477 725.552 384.688 726.056 385.64ZM738.934 381.734C737.912 381.734 737.079 381.412 736.435 380.768C735.791 380.11 735.469 379.284 735.469 378.29C735.469 377.282 735.791 376.449 736.435 375.791C737.079 375.119 737.912 374.783 738.934 374.783C739.97 374.783 740.81 375.119 741.454 375.791C742.112 376.449 742.441 377.282 742.441 378.29C742.441 379.284 742.112 380.11 741.454 380.768C740.81 381.412 739.97 381.734 738.934 381.734ZM738.976 389H737.59L746.536 374.993H747.943L738.976 389ZM748.972 388.286C748.328 388.93 747.495 389.252 746.473 389.252C745.451 389.252 744.618 388.93 743.974 388.286C743.33 387.628 743.008 386.802 743.008 385.808C743.008 384.8 743.33 383.967 743.974 383.309C744.618 382.637 745.451 382.301 746.473 382.301C747.495 382.301 748.328 382.637 748.972 383.309C749.63 383.981 749.959 384.814 749.959 385.808C749.959 386.802 749.63 387.628 748.972 388.286ZM738.934 380.348C739.48 380.348 739.928 380.159 740.278 379.781C740.628 379.389 740.803 378.892 740.803 378.29C740.803 377.66 740.628 377.156 740.278 376.778C739.928 376.386 739.48 376.19 738.934 376.19C738.388 376.19 737.94 376.386 737.59 376.778C737.254 377.156 737.086 377.66 737.086 378.29C737.086 378.892 737.261 379.389 737.611 379.781C737.961 380.159 738.402 380.348 738.934 380.348ZM745.129 387.299C745.479 387.677 745.927 387.866 746.473 387.866C747.019 387.866 747.467 387.677 747.817 387.299C748.167 386.907 748.342 386.41 748.342 385.808C748.342 385.178 748.167 384.674 747.817 384.296C747.467 383.904 747.019 383.708 746.473 383.708C745.927 383.708 745.479 383.904 745.129 384.296C744.793 384.674 744.625 385.178 744.625 385.808C744.625 386.41 744.793 386.907 745.129 387.299Z" fill="white"/>
<path d="M311.644 82H301.501V80.068C304.427 77.856 306.415 76.218 307.465 75.154C308.529 74.076 309.061 73.061 309.061 72.109C309.061 71.423 308.809 70.898 308.305 70.534C307.815 70.156 307.22 69.967 306.52 69.967C304.98 69.967 303.72 70.527 302.74 71.647L301.312 70.03C301.914 69.302 302.67 68.749 303.58 68.371C304.504 67.979 305.47 67.783 306.478 67.783C307.906 67.783 309.11 68.168 310.09 68.938C311.07 69.708 311.56 70.765 311.56 72.109C311.56 73.313 311.056 74.51 310.048 75.7C309.04 76.89 307.5 78.269 305.428 79.837H311.644V82ZM321.928 81.622C321.186 82.042 320.346 82.252 319.408 82.252C318.47 82.252 317.63 82.042 316.888 81.622C316.146 81.202 315.558 80.642 315.124 79.942C314.69 79.242 314.361 78.472 314.137 77.632C313.913 76.792 313.801 75.917 313.801 75.007C313.801 74.097 313.913 73.222 314.137 72.382C314.361 71.542 314.69 70.779 315.124 70.093C315.558 69.393 316.146 68.833 316.888 68.413C317.63 67.993 318.47 67.783 319.408 67.783C320.346 67.783 321.186 67.993 321.928 68.413C322.67 68.833 323.258 69.393 323.692 70.093C324.126 70.779 324.455 71.542 324.679 72.382C324.903 73.222 325.015 74.097 325.015 75.007C325.015 75.917 324.903 76.792 324.679 77.632C324.455 78.472 324.126 79.242 323.692 79.942C323.258 80.642 322.67 81.202 321.928 81.622ZM317.056 78.64C317.56 79.592 318.344 80.068 319.408 80.068C320.472 80.068 321.256 79.592 321.76 78.64C322.264 77.688 322.516 76.477 322.516 75.007C322.516 74.069 322.418 73.236 322.222 72.508C322.04 71.78 321.704 71.178 321.214 70.702C320.738 70.212 320.136 69.967 319.408 69.967C318.68 69.967 318.071 70.212 317.581 70.702C317.105 71.178 316.769 71.78 316.573 72.508C316.391 73.236 316.3 74.069 316.3 75.007C316.3 76.477 316.552 77.688 317.056 78.64ZM329.934 74.734C328.912 74.734 328.079 74.412 327.435 73.768C326.791 73.11 326.469 72.284 326.469 71.29C326.469 70.282 326.791 69.449 327.435 68.791C328.079 68.119 328.912 67.783 329.934 67.783C330.97 67.783 331.81 68.119 332.454 68.791C333.112 69.449 333.441 70.282 333.441 71.29C333.441 72.284 333.112 73.11 332.454 73.768C331.81 74.412 330.97 74.734 329.934 74.734ZM329.976 82H328.59L337.536 67.993H338.943L329.976 82ZM339.972 81.286C339.328 81.93 338.495 82.252 337.473 82.252C336.451 82.252 335.618 81.93 334.974 81.286C334.33 80.628 334.008 79.802 334.008 78.808C334.008 77.8 334.33 76.967 334.974 76.309C335.618 75.637 336.451 75.301 337.473 75.301C338.495 75.301 339.328 75.637 339.972 76.309C340.63 76.981 340.959 77.814 340.959 78.808C340.959 79.802 340.63 80.628 339.972 81.286ZM329.934 73.348C330.48 73.348 330.928 73.159 331.278 72.781C331.628 72.389 331.803 71.892 331.803 71.29C331.803 70.66 331.628 70.156 331.278 69.778C330.928 69.386 330.48 69.19 329.934 69.19C329.388 69.19 328.94 69.386 328.59 69.778C328.254 70.156 328.086 70.66 328.086 71.29C328.086 71.892 328.261 72.389 328.611 72.781C328.961 73.159 329.402 73.348 329.934 73.348ZM336.129 80.299C336.479 80.677 336.927 80.866 337.473 80.866C338.019 80.866 338.467 80.677 338.817 80.299C339.167 79.907 339.342 79.41 339.342 78.808C339.342 78.178 339.167 77.674 338.817 77.296C338.467 76.904 338.019 76.708 337.473 76.708C336.927 76.708 336.479 76.904 336.129 77.296C335.793 77.674 335.625 78.178 335.625 78.808C335.625 79.41 335.793 79.907 336.129 80.299Z" fill="white"/>
<path d="M92.6442 82H82.5012V80.068C85.4272 77.856 87.4152 76.218 88.4652 75.154C89.5292 74.076 90.0612 73.061 90.0612 72.109C90.0612 71.423 89.8092 70.898 89.3052 70.534C88.8152 70.156 88.2202 69.967 87.5202 69.967C85.9802 69.967 84.7202 70.527 83.7402 71.647L82.3122 70.03C82.9142 69.302 83.6702 68.749 84.5802 68.371C85.5042 67.979 86.4702 67.783 87.4782 67.783C88.9062 67.783 90.1102 68.168 91.0902 68.938C92.0702 69.708 92.5602 70.765 92.5602 72.109C92.5602 73.313 92.0562 74.51 91.0482 75.7C90.0402 76.89 88.5002 78.269 86.4282 79.837H92.6442V82ZM102.928 81.622C102.186 82.042 101.346 82.252 100.408 82.252C99.4704 82.252 98.6304 82.042 97.8884 81.622C97.1464 81.202 96.5584 80.642 96.1244 79.942C95.6904 79.242 95.3614 78.472 95.1374 77.632C94.9134 76.792 94.8014 75.917 94.8014 75.007C94.8014 74.097 94.9134 73.222 95.1374 72.382C95.3614 71.542 95.6904 70.779 96.1244 70.093C96.5584 69.393 97.1464 68.833 97.8884 68.413C98.6304 67.993 99.4704 67.783 100.408 67.783C101.346 67.783 102.186 67.993 102.928 68.413C103.67 68.833 104.258 69.393 104.692 70.093C105.126 70.779 105.455 71.542 105.679 72.382C105.903 73.222 106.015 74.097 106.015 75.007C106.015 75.917 105.903 76.792 105.679 77.632C105.455 78.472 105.126 79.242 104.692 79.942C104.258 80.642 103.67 81.202 102.928 81.622ZM98.0564 78.64C98.5604 79.592 99.3444 80.068 100.408 80.068C101.472 80.068 102.256 79.592 102.76 78.64C103.264 77.688 103.516 76.477 103.516 75.007C103.516 74.069 103.418 73.236 103.222 72.508C103.04 71.78 102.704 71.178 102.214 70.702C101.738 70.212 101.136 69.967 100.408 69.967C99.6804 69.967 99.0714 70.212 98.5814 70.702C98.1054 71.178 97.7694 71.78 97.5734 72.508C97.3914 73.236 97.3004 74.069 97.3004 75.007C97.3004 76.477 97.5524 77.688 98.0564 78.64ZM110.934 74.734C109.912 74.734 109.079 74.412 108.435 73.768C107.791 73.11 107.469 72.284 107.469 71.29C107.469 70.282 107.791 69.449 108.435 68.791C109.079 68.119 109.912 67.783 110.934 67.783C111.97 67.783 112.81 68.119 113.454 68.791C114.112 69.449 114.441 70.282 114.441 71.29C114.441 72.284 114.112 73.11 113.454 73.768C112.81 74.412 111.97 74.734 110.934 74.734ZM110.976 82H109.59L118.536 67.993H119.943L110.976 82ZM120.972 81.286C120.328 81.93 119.495 82.252 118.473 82.252C117.451 82.252 116.618 81.93 115.974 81.286C115.33 80.628 115.008 79.802 115.008 78.808C115.008 77.8 115.33 76.967 115.974 76.309C116.618 75.637 117.451 75.301 118.473 75.301C119.495 75.301 120.328 75.637 120.972 76.309C121.63 76.981 121.959 77.814 121.959 78.808C121.959 79.802 121.63 80.628 120.972 81.286ZM110.934 73.348C111.48 73.348 111.928 73.159 112.278 72.781C112.628 72.389 112.803 71.892 112.803 71.29C112.803 70.66 112.628 70.156 112.278 69.778C111.928 69.386 111.48 69.19 110.934 69.19C110.388 69.19 109.94 69.386 109.59 69.778C109.254 70.156 109.086 70.66 109.086 71.29C109.086 71.892 109.261 72.389 109.611 72.781C109.961 73.159 110.402 73.348 110.934 73.348ZM117.129 80.299C117.479 80.677 117.927 80.866 118.473 80.866C119.019 80.866 119.467 80.677 119.817 80.299C120.167 79.907 120.342 79.41 120.342 78.808C120.342 78.178 120.167 77.674 119.817 77.296C119.467 76.904 119.019 76.708 118.473 76.708C117.927 76.708 117.479 76.904 117.129 77.296C116.793 77.674 116.625 78.178 116.625 78.808C116.625 79.41 116.793 79.907 117.129 80.299Z" fill="white"/>
<path d="M831.644 82H821.501V80.068C824.427 77.856 826.415 76.218 827.465 75.154C828.529 74.076 829.061 73.061 829.061 72.109C829.061 71.423 828.809 70.898 828.305 70.534C827.815 70.156 827.22 69.967 826.52 69.967C824.98 69.967 823.72 70.527 822.74 71.647L821.312 70.03C821.914 69.302 822.67 68.749 823.58 68.371C824.504 67.979 825.47 67.783 826.478 67.783C827.906 67.783 829.11 68.168 830.09 68.938C831.07 69.708 831.56 70.765 831.56 72.109C831.56 73.313 831.056 74.51 830.048 75.7C829.04 76.89 827.5 78.269 825.428 79.837H831.644V82ZM841.928 81.622C841.186 82.042 840.346 82.252 839.408 82.252C838.47 82.252 837.63 82.042 836.888 81.622C836.146 81.202 835.558 80.642 835.124 79.942C834.69 79.242 834.361 78.472 834.137 77.632C833.913 76.792 833.801 75.917 833.801 75.007C833.801 74.097 833.913 73.222 834.137 72.382C834.361 71.542 834.69 70.779 835.124 70.093C835.558 69.393 836.146 68.833 836.888 68.413C837.63 67.993 838.47 67.783 839.408 67.783C840.346 67.783 841.186 67.993 841.928 68.413C842.67 68.833 843.258 69.393 843.692 70.093C844.126 70.779 844.455 71.542 844.679 72.382C844.903 73.222 845.015 74.097 845.015 75.007C845.015 75.917 844.903 76.792 844.679 77.632C844.455 78.472 844.126 79.242 843.692 79.942C843.258 80.642 842.67 81.202 841.928 81.622ZM837.056 78.64C837.56 79.592 838.344 80.068 839.408 80.068C840.472 80.068 841.256 79.592 841.76 78.64C842.264 77.688 842.516 76.477 842.516 75.007C842.516 74.069 842.418 73.236 842.222 72.508C842.04 71.78 841.704 71.178 841.214 70.702C840.738 70.212 840.136 69.967 839.408 69.967C838.68 69.967 838.071 70.212 837.581 70.702C837.105 71.178 836.769 71.78 836.573 72.508C836.391 73.236 836.3 74.069 836.3 75.007C836.3 76.477 836.552 77.688 837.056 78.64ZM849.934 74.734C848.912 74.734 848.079 74.412 847.435 73.768C846.791 73.11 846.469 72.284 846.469 71.29C846.469 70.282 846.791 69.449 847.435 68.791C848.079 68.119 848.912 67.783 849.934 67.783C850.97 67.783 851.81 68.119 852.454 68.791C853.112 69.449 853.441 70.282 853.441 71.29C853.441 72.284 853.112 73.11 852.454 73.768C851.81 74.412 850.97 74.734 849.934 74.734ZM849.976 82H848.59L857.536 67.993H858.943L849.976 82ZM859.972 81.286C859.328 81.93 858.495 82.252 857.473 82.252C856.451 82.252 855.618 81.93 854.974 81.286C854.33 80.628 854.008 79.802 854.008 78.808C854.008 77.8 854.33 76.967 854.974 76.309C855.618 75.637 856.451 75.301 857.473 75.301C858.495 75.301 859.328 75.637 859.972 76.309C860.63 76.981 860.959 77.814 860.959 78.808C860.959 79.802 860.63 80.628 859.972 81.286ZM849.934 73.348C850.48 73.348 850.928 73.159 851.278 72.781C851.628 72.389 851.803 71.892 851.803 71.29C851.803 70.66 851.628 70.156 851.278 69.778C850.928 69.386 850.48 69.19 849.934 69.19C849.388 69.19 848.94 69.386 848.59 69.778C848.254 70.156 848.086 70.66 848.086 71.29C848.086 71.892 848.261 72.389 848.611 72.781C848.961 73.159 849.402 73.348 849.934 73.348ZM856.129 80.299C856.479 80.677 856.927 80.866 857.473 80.866C858.019 80.866 858.467 80.677 858.817 80.299C859.167 79.907 859.342 79.41 859.342 78.808C859.342 78.178 859.167 77.674 858.817 77.296C858.467 76.904 858.019 76.708 857.473 76.708C856.927 76.708 856.479 76.904 856.129 77.296C855.793 77.674 855.625 78.178 855.625 78.808C855.625 79.41 855.793 79.907 856.129 80.299Z" fill="white"/>
<rect y="520" width="940" height="60" rx="11.2" fill="#1C2233"/>
<circle cx="252.701" cy="549.95" r="8.4" fill="#03967B"/>
<path d="M272.59 543.778H274.718L277.95 552.418L281.182 543.778H283.31L279.118 554.45H276.782L272.59 543.778ZM282.995 550.578C282.995 549.832 283.16 549.154 283.491 548.546C283.832 547.928 284.301 547.437 284.899 547.074C285.496 546.712 286.168 546.53 286.915 546.53C287.672 546.53 288.339 546.712 288.915 547.074C289.491 547.437 289.933 547.938 290.243 548.578C290.563 549.208 290.723 549.928 290.723 550.738V551.138H284.755C284.819 551.746 285.069 552.253 285.507 552.658C285.944 553.064 286.515 553.266 287.219 553.266C287.613 553.266 288.008 553.192 288.403 553.042C288.808 552.893 289.144 552.685 289.411 552.418L290.179 553.522C289.795 553.885 289.331 554.162 288.787 554.354C288.243 554.546 287.661 554.642 287.043 554.642C286.275 554.642 285.581 554.477 284.963 554.146C284.355 553.805 283.875 553.325 283.523 552.706C283.171 552.088 282.995 551.378 282.995 550.578ZM286.915 547.906C286.253 547.906 285.736 548.114 285.363 548.53C284.989 548.936 284.781 549.41 284.739 549.954H289.091C289.08 549.624 288.995 549.304 288.835 548.994C288.675 548.674 288.435 548.413 288.115 548.21C287.795 548.008 287.395 547.906 286.915 547.906ZM297.597 549.618C297.597 549.042 297.464 548.632 297.197 548.386C296.93 548.141 296.546 548.018 296.045 548.018C295.64 548.018 295.261 548.12 294.909 548.322C294.557 548.525 294.274 548.77 294.061 549.058V554.45H292.381V546.722H294.061V547.778C294.349 547.437 294.733 547.144 295.213 546.898C295.693 546.653 296.216 546.53 296.781 546.53C297.602 546.53 298.221 546.744 298.637 547.17C299.064 547.597 299.277 548.21 299.277 549.01V554.45H297.597V549.618ZM306.675 553.426C306.366 553.778 305.971 554.072 305.491 554.306C305.022 554.53 304.504 554.642 303.939 554.642C303.118 554.642 302.499 554.434 302.083 554.018C301.667 553.602 301.459 552.994 301.459 552.194V546.722H303.139V551.586C303.139 552.152 303.272 552.557 303.539 552.802C303.806 553.037 304.19 553.154 304.691 553.154C305.096 553.154 305.475 553.058 305.827 552.866C306.179 552.674 306.462 552.434 306.675 552.146V546.722H308.355V554.45H306.675V553.426ZM310.633 552.226C310.921 552.525 311.311 552.781 311.801 552.994C312.292 553.208 312.777 553.314 313.257 553.314C313.748 553.314 314.121 553.234 314.377 553.074C314.644 552.904 314.777 552.669 314.777 552.37C314.777 552.061 314.628 551.832 314.329 551.682C314.031 551.522 313.593 551.378 313.017 551.25C312.409 551.122 311.908 550.989 311.513 550.85C311.129 550.701 310.799 550.472 310.521 550.162C310.244 549.842 310.105 549.416 310.105 548.882C310.105 548.456 310.223 548.066 310.457 547.714C310.703 547.352 311.055 547.064 311.513 546.85C311.972 546.637 312.516 546.53 313.145 546.53C314.329 546.53 315.332 546.893 316.153 547.618L315.449 548.802C315.204 548.525 314.879 548.301 314.473 548.13C314.068 547.96 313.631 547.874 313.161 547.874C312.713 547.874 312.361 547.954 312.105 548.114C311.849 548.264 311.721 548.472 311.721 548.738C311.721 549.005 311.86 549.208 312.137 549.346C312.415 549.485 312.836 549.618 313.401 549.746C314.009 549.874 314.516 550.018 314.921 550.178C315.327 550.328 315.673 550.568 315.961 550.898C316.249 551.229 316.393 551.677 316.393 552.242C316.393 552.946 316.111 553.522 315.545 553.97C314.98 554.418 314.191 554.642 313.177 554.642C312.516 554.642 311.897 554.541 311.321 554.338C310.745 554.125 310.26 553.826 309.865 553.442L310.633 552.226ZM322.193 557.394V546.722H323.873V547.778C324.161 547.384 324.519 547.08 324.945 546.866C325.383 546.642 325.852 546.53 326.353 546.53C327.025 546.53 327.617 546.696 328.129 547.026C328.652 547.346 329.057 547.81 329.345 548.418C329.633 549.026 329.777 549.746 329.777 550.578C329.777 551.41 329.633 552.136 329.345 552.754C329.057 553.362 328.652 553.832 328.129 554.162C327.617 554.482 327.025 554.642 326.353 554.642C325.863 554.642 325.404 554.536 324.977 554.322C324.551 554.109 324.183 553.794 323.873 553.378V557.394H322.193ZM328.033 550.578C328.033 549.821 327.836 549.208 327.441 548.738C327.047 548.258 326.519 548.018 325.857 548.018C325.473 548.018 325.095 548.12 324.721 548.322C324.348 548.525 324.065 548.77 323.873 549.058V552.114C324.065 552.402 324.348 552.648 324.721 552.85C325.095 553.053 325.473 553.154 325.857 553.154C326.519 553.154 327.047 552.914 327.441 552.434C327.836 551.954 328.033 551.336 328.033 550.578ZM331.475 546.722H333.155V547.858C333.453 547.474 333.827 547.16 334.275 546.914C334.723 546.669 335.187 546.546 335.667 546.546V548.21C335.517 548.178 335.341 548.162 335.139 548.162C334.787 548.162 334.408 548.269 334.003 548.482C333.608 548.685 333.325 548.92 333.155 549.186V554.45H331.475V546.722ZM337.854 545.442C337.576 545.442 337.331 545.341 337.118 545.138C336.915 544.936 336.814 544.69 336.814 544.402C336.814 544.114 336.915 543.869 337.118 543.666C337.331 543.464 337.576 543.362 337.854 543.362C338.142 543.362 338.387 543.464 338.59 543.666C338.792 543.869 338.894 544.114 338.894 544.402C338.894 544.69 338.792 544.936 338.59 545.138C338.387 545.341 338.142 545.442 337.854 545.442ZM337.022 546.722H338.702V554.45H337.022V546.722ZM350.353 549.41C350.353 548.973 350.246 548.632 350.033 548.386C349.83 548.141 349.516 548.018 349.089 548.018C348.737 548.018 348.396 548.12 348.065 548.322C347.734 548.525 347.478 548.765 347.297 549.042V554.45H345.617V549.41C345.617 548.973 345.51 548.632 345.297 548.386C345.094 548.141 344.774 548.018 344.337 548.018C343.996 548.018 343.66 548.12 343.329 548.322C343.009 548.525 342.753 548.77 342.561 549.058V554.45H340.881V546.722H342.561V547.778C342.753 547.49 343.084 547.213 343.553 546.946C344.033 546.669 344.54 546.53 345.073 546.53C345.628 546.53 346.086 546.658 346.449 546.914C346.812 547.17 347.057 547.517 347.185 547.954C347.43 547.57 347.793 547.24 348.273 546.962C348.753 546.674 349.265 546.53 349.809 546.53C350.534 546.53 351.084 546.728 351.457 547.122C351.841 547.506 352.033 548.088 352.033 548.866V554.45H350.353V549.41ZM353.729 550.578C353.729 549.832 353.894 549.154 354.225 548.546C354.566 547.928 355.036 547.437 355.633 547.074C356.23 546.712 356.902 546.53 357.649 546.53C358.406 546.53 359.073 546.712 359.649 547.074C360.225 547.437 360.668 547.938 360.977 548.578C361.297 549.208 361.457 549.928 361.457 550.738V551.138H355.489C355.553 551.746 355.804 552.253 356.241 552.658C356.678 553.064 357.249 553.266 357.953 553.266C358.348 553.266 358.742 553.192 359.137 553.042C359.542 552.893 359.878 552.685 360.145 552.418L360.913 553.522C360.529 553.885 360.065 554.162 359.521 554.354C358.977 554.546 358.396 554.642 357.777 554.642C357.009 554.642 356.316 554.477 355.697 554.146C355.089 553.805 354.609 553.325 354.257 552.706C353.905 552.088 353.729 551.378 353.729 550.578ZM357.649 547.906C356.988 547.906 356.47 548.114 356.097 548.53C355.724 548.936 355.516 549.41 355.473 549.954H359.825C359.814 549.624 359.729 549.304 359.569 548.994C359.409 548.674 359.169 548.413 358.849 548.21C358.529 548.008 358.129 547.906 357.649 547.906Z" fill="white"/>
<circle cx="426.701" cy="550.45" r="8.4" fill="#AA0185"/>
<path d="M457.635 555.45H455.283L452.142 551.065L449 555.45H446.648L450.848 549.705L446.9 544.245H449.252L452.142 548.361L455.014 544.245H457.383L453.452 549.688L457.635 555.45ZM464.576 555.45H462.123L457.721 544.245H459.956L463.349 553.317L466.743 544.245H468.977L464.576 555.45ZM474.032 555.652C472.105 555.652 470.588 555.058 469.479 553.871L470.571 552.359C471.534 553.389 472.716 553.905 474.116 553.905C474.866 553.905 475.426 553.753 475.796 553.451C476.177 553.149 476.367 552.79 476.367 552.376C476.367 551.95 476.143 551.614 475.695 551.368C475.247 551.11 474.704 550.909 474.065 550.763C473.427 550.617 472.783 550.444 472.133 550.242C471.495 550.041 470.952 549.699 470.504 549.217C470.056 548.736 469.832 548.114 469.832 547.353C469.832 546.412 470.207 545.633 470.957 545.017C471.719 544.39 472.705 544.077 473.914 544.077C475.639 544.077 477.039 544.597 478.114 545.639L476.989 547.101C476.137 546.249 475.057 545.824 473.746 545.824C473.164 545.824 472.699 545.953 472.352 546.21C472.016 546.457 471.848 546.793 471.848 547.218C471.848 547.498 471.965 547.733 472.201 547.924C472.447 548.114 472.761 548.271 473.141 548.394C473.522 548.506 473.942 548.618 474.401 548.73C474.872 548.842 475.337 548.982 475.796 549.15C476.266 549.307 476.692 549.503 477.073 549.738C477.453 549.973 477.761 550.298 477.997 550.713C478.243 551.127 478.366 551.62 478.366 552.191C478.366 553.199 478.002 554.028 477.274 554.677C476.546 555.327 475.465 555.652 474.032 555.652ZM486.205 553.014C486.395 553.317 486.686 553.574 487.078 553.787C487.482 553.989 487.885 554.089 488.288 554.089C488.982 554.089 489.537 553.843 489.951 553.35C490.377 552.846 490.59 552.197 490.59 551.401C490.59 550.606 490.377 549.957 489.951 549.453C489.537 548.949 488.982 548.697 488.288 548.697C487.885 548.697 487.487 548.803 487.095 549.016C486.703 549.229 486.406 549.492 486.205 549.805V553.014ZM486.205 555.45H484.441V544.245H486.205V548.461C486.866 547.577 487.734 547.134 488.809 547.134C489.862 547.134 490.724 547.526 491.396 548.31C492.068 549.083 492.404 550.113 492.404 551.401C492.404 552.712 492.068 553.748 491.396 554.509C490.724 555.271 489.862 555.652 488.809 555.652C487.745 555.652 486.877 555.215 486.205 554.341V555.45ZM501.443 555.45H499.679V554.375C498.918 555.226 497.96 555.652 496.807 555.652C495.071 555.652 494.203 554.795 494.203 553.081V547.336H495.967V552.443C495.967 553.037 496.107 553.462 496.387 553.72C496.667 553.966 497.07 554.089 497.596 554.089C498.022 554.089 498.419 553.989 498.789 553.787C499.159 553.585 499.455 553.333 499.679 553.031V547.336H501.443V555.45ZM503.382 558.625L503.651 557.046C503.852 557.136 504.076 557.181 504.323 557.181C504.894 557.181 505.28 556.945 505.482 556.475L505.885 555.551L502.559 547.336H504.44L506.809 553.417L509.178 547.336H511.076L507.162 556.912C506.68 558.11 505.751 558.721 504.373 558.743C504.003 558.743 503.673 558.704 503.382 558.625ZM513.948 553.014C514.138 553.317 514.429 553.574 514.821 553.787C515.225 553.989 515.628 554.089 516.031 554.089C516.725 554.089 517.28 553.843 517.694 553.35C518.12 552.846 518.333 552.197 518.333 551.401C518.333 550.606 518.12 549.957 517.694 549.453C517.28 548.949 516.725 548.697 516.031 548.697C515.628 548.697 515.23 548.803 514.838 549.016C514.446 549.229 514.149 549.492 513.948 549.805V553.014ZM513.948 555.45H512.184V544.245H513.948V548.461C514.609 547.577 515.477 547.134 516.552 547.134C517.605 547.134 518.467 547.526 519.139 548.31C519.811 549.083 520.147 550.113 520.147 551.401C520.147 552.712 519.811 553.748 519.139 554.509C518.467 555.271 517.605 555.652 516.552 555.652C515.488 555.652 514.62 555.215 513.948 554.341V555.45ZM528.666 555.45H526.902V554.577C526.274 555.293 525.401 555.652 524.281 555.652C523.542 555.652 522.886 555.417 522.315 554.946C521.744 554.465 521.458 553.804 521.458 552.964C521.458 552.101 521.738 551.446 522.298 550.998C522.87 550.55 523.53 550.326 524.281 550.326C525.434 550.326 526.308 550.673 526.902 551.368V550.158C526.902 549.688 526.728 549.318 526.381 549.049C526.034 548.781 525.574 548.646 525.003 548.646C524.096 548.646 523.295 548.988 522.601 549.671L521.878 548.445C522.797 547.571 523.934 547.134 525.289 547.134C526.286 547.134 527.098 547.369 527.725 547.84C528.352 548.31 528.666 549.055 528.666 550.074V555.45ZM524.97 554.442C525.854 554.442 526.498 554.162 526.902 553.602V552.376C526.498 551.816 525.854 551.536 524.97 551.536C524.466 551.536 524.051 551.67 523.726 551.939C523.402 552.208 523.239 552.561 523.239 552.997C523.239 553.434 523.402 553.787 523.726 554.056C524.051 554.313 524.466 554.442 524.97 554.442ZM534.649 555.652C533.417 555.652 532.409 555.254 531.625 554.459C530.841 553.653 530.449 552.628 530.449 551.385C530.449 550.153 530.841 549.139 531.625 548.344C532.409 547.537 533.417 547.134 534.649 547.134C536.004 547.134 537.04 547.616 537.757 548.579L536.597 549.654C536.149 549.016 535.528 548.697 534.733 548.697C533.993 548.697 533.4 548.949 532.952 549.453C532.504 549.945 532.28 550.589 532.28 551.385C532.28 552.18 532.504 552.829 532.952 553.333C533.4 553.837 533.993 554.089 534.733 554.089C535.505 554.089 536.127 553.77 536.597 553.132L537.757 554.207C537.04 555.17 536.004 555.652 534.649 555.652ZM546.897 555.45H544.679L542.193 552.107L541.067 553.266V555.45H539.303V544.245H541.067V551.25L544.646 547.336H546.83L543.453 551.015L546.897 555.45Z" fill="white"/>
<circle cx="611.701" cy="550.45" r="8.4" fill="#3A78FF"/>
<path d="M637.458 555.45H635.492V545.975H632.099V544.245H640.851V545.975H637.458V555.45ZM642.967 555.45H641.203V547.336H642.967V548.529C643.281 548.125 643.673 547.795 644.143 547.537C644.614 547.28 645.101 547.151 645.605 547.151V548.898C645.448 548.865 645.263 548.848 645.051 548.848C644.681 548.848 644.283 548.96 643.858 549.184C643.443 549.397 643.147 549.643 642.967 549.923V555.45ZM650.774 555.652C649.542 555.652 648.523 555.26 647.716 554.476C646.921 553.681 646.524 552.65 646.524 551.385C646.524 550.197 646.91 549.195 647.683 548.377C648.467 547.549 649.452 547.134 650.64 547.134C651.838 547.134 652.801 547.549 653.529 548.377C654.268 549.206 654.638 550.265 654.638 551.553V551.973H648.372C648.439 552.611 648.702 553.143 649.161 553.569C649.62 553.994 650.22 554.207 650.959 554.207C651.373 554.207 651.788 554.129 652.202 553.972C652.628 553.815 652.98 553.597 653.26 553.317L654.067 554.476C653.249 555.26 652.152 555.652 650.774 555.652ZM652.924 550.729C652.902 550.169 652.695 549.671 652.303 549.234C651.922 548.797 651.368 548.579 650.64 548.579C649.945 548.579 649.402 548.797 649.01 549.234C648.618 549.66 648.4 550.158 648.355 550.729H652.924ZM663.099 555.45H661.335V554.577C660.708 555.293 659.834 555.652 658.714 555.652C657.975 555.652 657.32 555.417 656.749 554.946C656.178 554.465 655.892 553.804 655.892 552.964C655.892 552.101 656.172 551.446 656.732 550.998C657.303 550.55 657.964 550.326 658.714 550.326C659.868 550.326 660.742 550.673 661.335 551.368V550.158C661.335 549.688 661.162 549.318 660.814 549.049C660.467 548.781 660.008 548.646 659.437 548.646C658.53 548.646 657.729 548.988 657.034 549.671L656.312 548.445C657.23 547.571 658.367 547.134 659.722 547.134C660.719 547.134 661.531 547.369 662.158 547.84C662.786 548.31 663.099 549.055 663.099 550.074V555.45ZM659.403 554.442C660.288 554.442 660.932 554.162 661.335 553.602V552.376C660.932 551.816 660.288 551.536 659.403 551.536C658.899 551.536 658.485 551.67 658.16 551.939C657.835 552.208 657.673 552.561 657.673 552.997C657.673 553.434 657.835 553.787 658.16 554.056C658.485 554.313 658.899 554.442 659.403 554.442ZM668.158 555.652C666.702 555.652 665.543 555.232 664.681 554.392L665.487 553.115C665.789 553.429 666.198 553.697 666.713 553.921C667.229 554.145 667.738 554.257 668.242 554.257C668.757 554.257 669.149 554.157 669.418 553.955C669.698 553.753 669.838 553.49 669.838 553.165C669.838 552.874 669.67 552.65 669.334 552.493C668.998 552.325 668.589 552.197 668.108 552.107C667.626 552.006 667.145 551.889 666.663 551.754C666.181 551.609 665.773 551.357 665.437 550.998C665.101 550.64 664.933 550.175 664.933 549.604C664.933 548.909 665.218 548.327 665.789 547.857C666.361 547.375 667.139 547.134 668.125 547.134C669.368 547.134 670.421 547.515 671.283 548.277L670.544 549.52C670.286 549.229 669.945 548.993 669.519 548.814C669.093 548.635 668.634 548.545 668.141 548.545C667.682 548.545 667.313 548.641 667.033 548.831C666.764 549.01 666.629 549.245 666.629 549.537C666.629 549.761 666.747 549.945 666.982 550.091C667.229 550.225 667.531 550.326 667.889 550.393C668.259 550.461 668.657 550.556 669.082 550.679C669.508 550.791 669.9 550.925 670.258 551.082C670.628 551.239 670.93 551.497 671.165 551.855C671.412 552.202 671.535 552.628 671.535 553.132C671.535 553.871 671.238 554.476 670.645 554.946C670.051 555.417 669.222 555.652 668.158 555.652ZM680.551 555.45H678.787V554.375C678.026 555.226 677.068 555.652 675.914 555.652C674.178 555.652 673.31 554.795 673.31 553.081V547.336H675.074V552.443C675.074 553.037 675.214 553.462 675.494 553.72C675.774 553.966 676.178 554.089 676.704 554.089C677.13 554.089 677.527 553.989 677.897 553.787C678.266 553.585 678.563 553.333 678.787 553.031V547.336H680.551V555.45ZM684.606 555.45H682.842V547.336H684.606V548.529C684.92 548.125 685.312 547.795 685.782 547.537C686.253 547.28 686.74 547.151 687.244 547.151V548.898C687.087 548.865 686.902 548.848 686.69 548.848C686.32 548.848 685.922 548.96 685.497 549.184C685.082 549.397 684.786 549.643 684.606 549.923V555.45ZM688.314 558.625L688.583 557.046C688.784 557.136 689.008 557.181 689.255 557.181C689.826 557.181 690.212 556.945 690.414 556.475L690.817 555.551L687.491 547.336H689.372L691.741 553.417L694.11 547.336H696.008L692.094 556.912C691.612 558.11 690.683 558.721 689.305 558.743C688.935 558.743 688.605 558.704 688.314 558.625Z" fill="white"/>
</svg>
