<svg width="940" height="580" viewBox="0 0 940 580" fill="none" xmlns="http://www.w3.org/2000/svg">
<circle cx="210" cy="210" r="210" fill="#03967B"/>
<path d="M412.844 155.648C424.201 198.031 421.996 242.907 406.54 283.973C391.084 325.038 363.153 360.231 326.67 384.609C290.186 408.986 246.984 421.323 203.129 419.888C159.274 418.452 116.971 403.315 82.16 376.604C47.3492 349.893 21.7796 312.948 9.0425 270.96C-3.69463 228.971 -2.95947 184.047 11.1447 142.498C25.2489 100.948 52.0136 64.8601 87.6798 39.3021C123.346 13.7441 166.122 -2.91178e-05 210 0L210 210L412.844 155.648Z" fill="#AA0185"/>
<path d="M412.844 155.648C424.201 198.031 421.996 242.907 406.54 283.973C391.084 325.038 363.153 360.231 326.67 384.609C290.186 408.986 246.984 421.323 203.129 419.888C159.274 418.452 116.971 403.315 82.16 376.604C47.3492 349.893 21.7796 312.948 9.0425 270.96C-3.69463 228.971 -2.95947 184.047 11.1447 142.498C25.2489 100.948 52.0136 64.8601 87.6798 39.3021C123.346 13.7441 166.122 -2.91178e-05 210 0L210 210L412.844 155.648Z" fill="#AA0185"/>
<path d="M409.722 145.106C419.963 176.625 422.599 210.119 417.415 242.851C412.23 275.583 399.373 306.624 379.894 333.435C360.414 360.246 334.866 382.066 305.338 397.111C275.81 412.157 243.14 420 210 420C176.86 420 144.19 412.157 114.662 397.111C85.1339 382.066 59.5857 360.246 40.1064 333.435C20.6271 306.624 7.76971 275.583 2.58544 242.851C-2.59882 210.119 0.0372563 176.625 10.2781 145.106L210 210L409.722 145.106Z" fill="#F5B242"/>
<path d="M409.722 145.106C421.69 181.94 423.239 221.365 414.198 259.023C405.157 296.682 385.878 331.107 358.492 358.492C331.107 385.878 296.682 405.157 259.024 414.198C221.365 423.239 181.94 421.69 145.107 409.722L210 210L409.722 145.106Z" fill="#3A78FF"/>
<path d="M409.722 145.106C423.426 187.284 423.426 232.716 409.722 274.894C396.018 317.071 369.313 353.827 333.435 379.894L210 210L409.722 145.106Z" fill="#2D3549"/>
<circle cx="210" cy="210" r="140" fill="#121620"/>
<path d="M122.895 202.7H120.06L116.952 197.471H114.516V202.7H112.059V188.693H118.212C119.584 188.693 120.69 189.099 121.53 189.911C122.37 190.723 122.79 191.78 122.79 193.082C122.79 194.258 122.468 195.203 121.824 195.917C121.18 196.617 120.396 197.044 119.472 197.198L122.895 202.7ZM117.876 195.308C118.576 195.308 119.15 195.105 119.598 194.699C120.046 194.293 120.27 193.754 120.27 193.082C120.27 192.41 120.046 191.871 119.598 191.465C119.15 191.059 118.576 190.856 117.876 190.856H114.516V195.308H117.876ZM129.23 202.952C127.69 202.952 126.416 202.462 125.408 201.482C124.414 200.488 123.917 199.2 123.917 197.618C123.917 196.134 124.4 194.881 125.366 193.859C126.346 192.823 127.578 192.305 129.062 192.305C130.56 192.305 131.764 192.823 132.674 193.859C133.598 194.895 134.06 196.218 134.06 197.828V198.353H126.227C126.311 199.151 126.64 199.816 127.214 200.348C127.788 200.88 128.537 201.146 129.461 201.146C129.979 201.146 130.497 201.048 131.015 200.852C131.547 200.656 131.988 200.383 132.338 200.033L133.346 201.482C132.324 202.462 130.952 202.952 129.23 202.952ZM131.918 196.799C131.89 196.099 131.631 195.476 131.141 194.93C130.665 194.384 129.972 194.111 129.062 194.111C128.194 194.111 127.515 194.384 127.025 194.93C126.535 195.462 126.262 196.085 126.206 196.799H131.918ZM141.276 202.7H138.903L134.766 192.557H137.118L140.079 200.159L143.04 192.557H145.413L141.276 202.7ZM151.481 202.952C149.941 202.952 148.667 202.462 147.659 201.482C146.665 200.488 146.168 199.2 146.168 197.618C146.168 196.134 146.651 194.881 147.617 193.859C148.597 192.823 149.829 192.305 151.313 192.305C152.811 192.305 154.015 192.823 154.925 193.859C155.849 194.895 156.311 196.218 156.311 197.828V198.353H148.478C148.562 199.151 148.891 199.816 149.465 200.348C150.039 200.88 150.788 201.146 151.712 201.146C152.23 201.146 152.748 201.048 153.266 200.852C153.798 200.656 154.239 200.383 154.589 200.033L155.597 201.482C154.575 202.462 153.203 202.952 151.481 202.952ZM154.169 196.799C154.141 196.099 153.882 195.476 153.392 194.93C152.916 194.384 152.223 194.111 151.313 194.111C150.445 194.111 149.766 194.384 149.276 194.93C148.786 195.462 148.513 196.085 148.457 196.799H154.169ZM167.538 202.7H165.333V196.358C165.333 194.958 164.654 194.258 163.296 194.258C162.764 194.258 162.267 194.391 161.805 194.657C161.343 194.923 160.972 195.245 160.692 195.623V202.7H158.487V192.557H160.692V193.943C161.07 193.495 161.574 193.11 162.204 192.788C162.834 192.466 163.52 192.305 164.262 192.305C165.34 192.305 166.152 192.585 166.698 193.145C167.258 193.705 167.538 194.51 167.538 195.56V202.7ZM179.453 202.7H177.248V201.356C176.296 202.42 175.099 202.952 173.657 202.952C171.487 202.952 170.402 201.881 170.402 199.739V192.557H172.607V198.941C172.607 199.683 172.782 200.215 173.132 200.537C173.482 200.845 173.986 200.999 174.644 200.999C175.176 200.999 175.673 200.873 176.135 200.621C176.597 200.369 176.968 200.054 177.248 199.676V192.557H179.453V202.7ZM187 202.952C185.46 202.952 184.186 202.462 183.178 201.482C182.184 200.488 181.687 199.2 181.687 197.618C181.687 196.134 182.17 194.881 183.136 193.859C184.116 192.823 185.348 192.305 186.832 192.305C188.33 192.305 189.534 192.823 190.444 193.859C191.368 194.895 191.83 196.218 191.83 197.828V198.353H183.997C184.081 199.151 184.41 199.816 184.984 200.348C185.558 200.88 186.307 201.146 187.231 201.146C187.749 201.146 188.267 201.048 188.785 200.852C189.317 200.656 189.758 200.383 190.108 200.033L191.116 201.482C190.094 202.462 188.722 202.952 187 202.952ZM189.688 196.799C189.66 196.099 189.401 195.476 188.911 194.93C188.435 194.384 187.742 194.111 186.832 194.111C185.964 194.111 185.285 194.384 184.795 194.93C184.305 195.462 184.032 196.085 183.976 196.799H189.688ZM208.745 202.7H206.54V201.314C205.7 202.406 204.615 202.952 203.285 202.952C201.955 202.952 200.87 202.476 200.03 201.524C199.19 200.572 198.77 199.277 198.77 197.639C198.77 196.015 199.19 194.72 200.03 193.754C200.87 192.788 201.955 192.305 203.285 192.305C204.615 192.305 205.7 192.858 206.54 193.964V188.693H208.745V202.7ZM203.915 200.999C204.433 200.999 204.937 200.873 205.427 200.621C205.917 200.369 206.288 200.047 206.54 199.655V195.623C206.288 195.231 205.917 194.909 205.427 194.657C204.937 194.391 204.433 194.258 203.915 194.258C203.047 194.258 202.354 194.573 201.836 195.203C201.318 195.833 201.059 196.645 201.059 197.639C201.059 198.633 201.318 199.445 201.836 200.075C202.354 200.691 203.047 200.999 203.915 200.999ZM212.694 191.318C212.33 191.318 212.008 191.185 211.728 190.919C211.462 190.653 211.329 190.331 211.329 189.953C211.329 189.575 211.462 189.253 211.728 188.987C212.008 188.721 212.33 188.588 212.694 188.588C213.072 188.588 213.394 188.721 213.66 188.987C213.926 189.253 214.059 189.575 214.059 189.953C214.059 190.331 213.926 190.653 213.66 190.919C213.394 191.185 213.072 191.318 212.694 191.318ZM213.807 202.7H211.602V192.557H213.807V202.7ZM220.133 202.952C218.313 202.952 216.864 202.427 215.786 201.377L216.794 199.781C217.172 200.173 217.683 200.509 218.327 200.789C218.971 201.069 219.608 201.209 220.238 201.209C220.882 201.209 221.372 201.083 221.708 200.831C222.058 200.579 222.233 200.25 222.233 199.844C222.233 199.48 222.023 199.2 221.603 199.004C221.183 198.794 220.672 198.633 220.07 198.521C219.468 198.395 218.866 198.248 218.264 198.08C217.662 197.898 217.151 197.583 216.731 197.135C216.311 196.687 216.101 196.106 216.101 195.392C216.101 194.524 216.458 193.796 217.172 193.208C217.886 192.606 218.859 192.305 220.091 192.305C221.645 192.305 222.961 192.781 224.039 193.733L223.115 195.287C222.793 194.923 222.366 194.629 221.834 194.405C221.302 194.181 220.728 194.069 220.112 194.069C219.538 194.069 219.076 194.188 218.726 194.426C218.39 194.65 218.222 194.944 218.222 195.308C218.222 195.588 218.369 195.819 218.663 196.001C218.971 196.169 219.349 196.295 219.797 196.379C220.259 196.463 220.756 196.582 221.288 196.736C221.82 196.876 222.31 197.044 222.758 197.24C223.22 197.436 223.598 197.758 223.892 198.206C224.2 198.64 224.354 199.172 224.354 199.802C224.354 200.726 223.983 201.482 223.241 202.07C222.499 202.658 221.463 202.952 220.133 202.952ZM229.618 202.952C228.764 202.952 228.113 202.728 227.665 202.28C227.231 201.832 227.014 201.188 227.014 200.348V194.489H225.334V192.557H227.014V189.785H229.219V192.557H231.277V194.489H229.219V199.802C229.219 200.166 229.303 200.46 229.471 200.684C229.639 200.894 229.877 200.999 230.185 200.999C230.633 200.999 230.962 200.88 231.172 200.642L231.697 202.301C231.235 202.735 230.542 202.952 229.618 202.952ZM235.484 202.7H233.279V192.557H235.484V194.048C235.876 193.544 236.366 193.131 236.954 192.809C237.542 192.487 238.151 192.326 238.781 192.326V194.51C238.585 194.468 238.354 194.447 238.088 194.447C237.626 194.447 237.129 194.587 236.597 194.867C236.079 195.133 235.708 195.441 235.484 195.791V202.7ZM241.651 191.318C241.287 191.318 240.965 191.185 240.685 190.919C240.419 190.653 240.286 190.331 240.286 189.953C240.286 189.575 240.419 189.253 240.685 188.987C240.965 188.721 241.287 188.588 241.651 188.588C242.029 188.588 242.351 188.721 242.617 188.987C242.883 189.253 243.016 189.575 243.016 189.953C243.016 190.331 242.883 190.653 242.617 190.919C242.351 191.185 242.029 191.318 241.651 191.318ZM242.764 202.7H240.559V192.557H242.764V202.7ZM247.83 199.655C248.068 200.033 248.432 200.355 248.922 200.621C249.426 200.873 249.93 200.999 250.434 200.999C251.302 200.999 251.995 200.691 252.513 200.075C253.045 199.445 253.311 198.633 253.311 197.639C253.311 196.645 253.045 195.833 252.513 195.203C251.995 194.573 251.302 194.258 250.434 194.258C249.93 194.258 249.433 194.391 248.943 194.657C248.453 194.923 248.082 195.252 247.83 195.644V199.655ZM247.83 202.7H245.625V188.693H247.83V193.964C248.656 192.858 249.741 192.305 251.085 192.305C252.401 192.305 253.479 192.795 254.319 193.775C255.159 194.741 255.579 196.029 255.579 197.639C255.579 199.277 255.159 200.572 254.319 201.524C253.479 202.476 252.401 202.952 251.085 202.952C249.755 202.952 248.67 202.406 247.83 201.314V202.7ZM266.878 202.7H264.673V201.356C263.721 202.42 262.524 202.952 261.082 202.952C258.912 202.952 257.827 201.881 257.827 199.739V192.557H260.032V198.941C260.032 199.683 260.207 200.215 260.557 200.537C260.907 200.845 261.411 200.999 262.069 200.999C262.601 200.999 263.098 200.873 263.56 200.621C264.022 200.369 264.393 200.054 264.673 199.676V192.557H266.878V202.7ZM272.787 202.952C271.933 202.952 271.282 202.728 270.834 202.28C270.4 201.832 270.183 201.188 270.183 200.348V194.489H268.503V192.557H270.183V189.785H272.388V192.557H274.446V194.489H272.388V199.802C272.388 200.166 272.472 200.46 272.64 200.684C272.808 200.894 273.046 200.999 273.354 200.999C273.802 200.999 274.131 200.88 274.341 200.642L274.866 202.301C274.404 202.735 273.711 202.952 272.787 202.952ZM277.54 191.318C277.176 191.318 276.854 191.185 276.574 190.919C276.308 190.653 276.175 190.331 276.175 189.953C276.175 189.575 276.308 189.253 276.574 188.987C276.854 188.721 277.176 188.588 277.54 188.588C277.918 188.588 278.24 188.721 278.506 188.987C278.772 189.253 278.905 189.575 278.905 189.953C278.905 190.331 278.772 190.653 278.506 190.919C278.24 191.185 277.918 191.318 277.54 191.318ZM278.653 202.7H276.448V192.557H278.653V202.7ZM286.091 202.952C284.523 202.952 283.263 202.441 282.311 201.419C281.359 200.383 280.883 199.116 280.883 197.618C280.883 196.12 281.359 194.86 282.311 193.838C283.263 192.816 284.523 192.305 286.091 192.305C287.673 192.305 288.94 192.816 289.892 193.838C290.844 194.86 291.32 196.12 291.32 197.618C291.32 199.13 290.844 200.397 289.892 201.419C288.94 202.441 287.673 202.952 286.091 202.952ZM286.091 200.999C287.001 200.999 287.715 200.677 288.233 200.033C288.765 199.375 289.031 198.57 289.031 197.618C289.031 196.68 288.765 195.889 288.233 195.245C287.715 194.587 287.001 194.258 286.091 194.258C285.195 194.258 284.481 194.587 283.949 195.245C283.431 195.889 283.172 196.68 283.172 197.618C283.172 198.57 283.431 199.375 283.949 200.033C284.481 200.677 285.195 200.999 286.091 200.999ZM302.603 202.7H300.398V196.358C300.398 194.958 299.719 194.258 298.361 194.258C297.829 194.258 297.332 194.391 296.87 194.657C296.408 194.923 296.037 195.245 295.757 195.623V202.7H293.552V192.557H295.757V193.943C296.135 193.495 296.639 193.11 297.269 192.788C297.899 192.466 298.585 192.305 299.327 192.305C300.405 192.305 301.217 192.585 301.763 193.145C302.323 193.705 302.603 194.51 302.603 195.56V202.7ZM108.256 229.7H106.051V221.489H104.371V219.557H106.051V218.99C106.051 217.898 106.338 217.044 106.912 216.428C107.5 215.798 108.284 215.483 109.264 215.483C110.314 215.483 111.126 215.777 111.7 216.365L110.839 217.73C110.517 217.436 110.125 217.289 109.663 217.289C109.229 217.289 108.886 217.436 108.634 217.73C108.382 218.01 108.256 218.43 108.256 218.99V219.557H110.314V221.489H108.256V229.7ZM114.191 229.7H111.986V219.557H114.191V221.048C114.583 220.544 115.073 220.131 115.661 219.809C116.249 219.487 116.858 219.326 117.488 219.326V221.51C117.292 221.468 117.061 221.447 116.795 221.447C116.333 221.447 115.836 221.587 115.304 221.867C114.786 222.133 114.415 222.441 114.191 222.791V229.7ZM123.844 229.952C122.276 229.952 121.016 229.441 120.064 228.419C119.112 227.383 118.636 226.116 118.636 224.618C118.636 223.12 119.112 221.86 120.064 220.838C121.016 219.816 122.276 219.305 123.844 219.305C125.426 219.305 126.693 219.816 127.645 220.838C128.597 221.86 129.073 223.12 129.073 224.618C129.073 226.13 128.597 227.397 127.645 228.419C126.693 229.441 125.426 229.952 123.844 229.952ZM123.844 227.999C124.754 227.999 125.468 227.677 125.986 227.033C126.518 226.375 126.784 225.57 126.784 224.618C126.784 223.68 126.518 222.889 125.986 222.245C125.468 221.587 124.754 221.258 123.844 221.258C122.948 221.258 122.234 221.587 121.702 222.245C121.184 222.889 120.925 223.68 120.925 224.618C120.925 225.57 121.184 226.375 121.702 227.033C122.234 227.677 122.948 227.999 123.844 227.999ZM145.941 229.7H143.736V223.085C143.736 221.867 143.183 221.258 142.077 221.258C141.615 221.258 141.167 221.391 140.733 221.657C140.299 221.923 139.963 222.238 139.725 222.602V229.7H137.52V223.085C137.52 221.867 136.96 221.258 135.84 221.258C135.392 221.258 134.951 221.391 134.517 221.657C134.097 221.923 133.761 222.245 133.509 222.623V229.7H131.304V219.557H133.509V220.943C133.761 220.565 134.195 220.201 134.811 219.851C135.441 219.487 136.106 219.305 136.806 219.305C138.276 219.305 139.2 219.928 139.578 221.174C139.9 220.67 140.376 220.236 141.006 219.872C141.636 219.494 142.308 219.305 143.022 219.305C144.968 219.305 145.941 220.327 145.941 222.371V229.7ZM159.651 229.952C158.307 229.952 157.222 229.399 156.396 228.293V233.564H154.191V219.557H156.396V220.943C157.208 219.851 158.293 219.305 159.651 219.305C160.981 219.305 162.059 219.781 162.885 220.733C163.725 221.685 164.145 222.98 164.145 224.618C164.145 226.256 163.725 227.558 162.885 228.524C162.059 229.476 160.981 229.952 159.651 229.952ZM159 227.999C159.868 227.999 160.561 227.684 161.079 227.054C161.597 226.424 161.856 225.612 161.856 224.618C161.856 223.624 161.597 222.819 161.079 222.203C160.561 221.573 159.868 221.258 159 221.258C158.496 221.258 157.999 221.391 157.509 221.657C157.019 221.923 156.648 222.245 156.396 222.623V226.634C156.648 227.012 157.019 227.334 157.509 227.6C157.999 227.866 158.496 227.999 159 227.999ZM168.536 229.7H166.331V219.557H168.536V221.048C168.928 220.544 169.418 220.131 170.006 219.809C170.594 219.487 171.203 219.326 171.833 219.326V221.51C171.637 221.468 171.406 221.447 171.14 221.447C170.678 221.447 170.181 221.587 169.649 221.867C169.131 222.133 168.76 222.441 168.536 222.791V229.7ZM178.19 229.952C176.622 229.952 175.362 229.441 174.41 228.419C173.458 227.383 172.982 226.116 172.982 224.618C172.982 223.12 173.458 221.86 174.41 220.838C175.362 219.816 176.622 219.305 178.19 219.305C179.772 219.305 181.039 219.816 181.991 220.838C182.943 221.86 183.419 223.12 183.419 224.618C183.419 226.13 182.943 227.397 181.991 228.419C181.039 229.441 179.772 229.952 178.19 229.952ZM178.19 227.999C179.1 227.999 179.814 227.677 180.332 227.033C180.864 226.375 181.13 225.57 181.13 224.618C181.13 223.68 180.864 222.889 180.332 222.245C179.814 221.587 179.1 221.258 178.19 221.258C177.294 221.258 176.58 221.587 176.048 222.245C175.53 222.889 175.271 223.68 175.271 224.618C175.271 225.57 175.53 226.375 176.048 227.033C176.58 227.677 177.294 227.999 178.19 227.999ZM188.695 229.952C187.841 229.952 187.19 229.728 186.742 229.28C186.308 228.832 186.091 228.188 186.091 227.348V221.489H184.411V219.557H186.091V216.785H188.296V219.557H190.354V221.489H188.296V226.802C188.296 227.166 188.38 227.46 188.548 227.684C188.716 227.894 188.954 227.999 189.262 227.999C189.71 227.999 190.039 227.88 190.249 227.642L190.774 229.301C190.312 229.735 189.619 229.952 188.695 229.952ZM196.934 229.952C195.366 229.952 194.106 229.441 193.154 228.419C192.202 227.383 191.726 226.116 191.726 224.618C191.726 223.12 192.202 221.86 193.154 220.838C194.106 219.816 195.366 219.305 196.934 219.305C198.516 219.305 199.783 219.816 200.735 220.838C201.687 221.86 202.163 223.12 202.163 224.618C202.163 226.13 201.687 227.397 200.735 228.419C199.783 229.441 198.516 229.952 196.934 229.952ZM196.934 227.999C197.844 227.999 198.558 227.677 199.076 227.033C199.608 226.375 199.874 225.57 199.874 224.618C199.874 223.68 199.608 222.889 199.076 222.245C198.558 221.587 197.844 221.258 196.934 221.258C196.038 221.258 195.324 221.587 194.792 222.245C194.274 222.889 194.015 223.68 194.015 224.618C194.015 225.57 194.274 226.375 194.792 227.033C195.324 227.677 196.038 227.999 196.934 227.999ZM209.014 229.952C207.474 229.952 206.214 229.455 205.234 228.461C204.254 227.453 203.764 226.172 203.764 224.618C203.764 223.078 204.254 221.811 205.234 220.817C206.214 219.809 207.474 219.305 209.014 219.305C210.708 219.305 212.003 219.907 212.899 221.111L211.45 222.455C210.89 221.657 210.113 221.258 209.119 221.258C208.195 221.258 207.453 221.573 206.893 222.203C206.333 222.819 206.053 223.624 206.053 224.618C206.053 225.612 206.333 226.424 206.893 227.054C207.453 227.684 208.195 227.999 209.119 227.999C210.085 227.999 210.862 227.6 211.45 226.802L212.899 228.146C212.003 229.35 210.708 229.952 209.014 229.952ZM219.41 229.952C217.842 229.952 216.582 229.441 215.63 228.419C214.678 227.383 214.202 226.116 214.202 224.618C214.202 223.12 214.678 221.86 215.63 220.838C216.582 219.816 217.842 219.305 219.41 219.305C220.992 219.305 222.259 219.816 223.211 220.838C224.163 221.86 224.639 223.12 224.639 224.618C224.639 226.13 224.163 227.397 223.211 228.419C222.259 229.441 220.992 229.952 219.41 229.952ZM219.41 227.999C220.32 227.999 221.034 227.677 221.552 227.033C222.084 226.375 222.35 225.57 222.35 224.618C222.35 223.68 222.084 222.889 221.552 222.245C221.034 221.587 220.32 221.258 219.41 221.258C218.514 221.258 217.8 221.587 217.268 222.245C216.75 222.889 216.491 223.68 216.491 224.618C216.491 225.57 216.75 226.375 217.268 227.033C217.8 227.677 218.514 227.999 219.41 227.999ZM229.075 229.7H226.87V215.693H229.075V229.7ZM239.534 229.7H237.329V219.557H239.534V221.048C239.926 220.544 240.416 220.131 241.004 219.809C241.592 219.487 242.201 219.326 242.831 219.326V221.51C242.635 221.468 242.404 221.447 242.138 221.447C241.676 221.447 241.179 221.587 240.647 221.867C240.129 222.133 239.758 222.441 239.534 222.791V229.7ZM249.293 229.952C247.753 229.952 246.479 229.462 245.471 228.482C244.477 227.488 243.98 226.2 243.98 224.618C243.98 223.134 244.463 221.881 245.429 220.859C246.409 219.823 247.641 219.305 249.125 219.305C250.623 219.305 251.827 219.823 252.737 220.859C253.661 221.895 254.123 223.218 254.123 224.828V225.353H246.29C246.374 226.151 246.703 226.816 247.277 227.348C247.851 227.88 248.6 228.146 249.524 228.146C250.042 228.146 250.56 228.048 251.078 227.852C251.61 227.656 252.051 227.383 252.401 227.033L253.409 228.482C252.387 229.462 251.015 229.952 249.293 229.952ZM251.981 223.799C251.953 223.099 251.694 222.476 251.204 221.93C250.728 221.384 250.035 221.111 249.125 221.111C248.257 221.111 247.578 221.384 247.088 221.93C246.598 222.462 246.325 223.085 246.269 223.799H251.981ZM259.764 229.952C257.944 229.952 256.495 229.427 255.417 228.377L256.425 226.781C256.803 227.173 257.314 227.509 257.958 227.789C258.602 228.069 259.239 228.209 259.869 228.209C260.513 228.209 261.003 228.083 261.339 227.831C261.689 227.579 261.864 227.25 261.864 226.844C261.864 226.48 261.654 226.2 261.234 226.004C260.814 225.794 260.303 225.633 259.701 225.521C259.099 225.395 258.497 225.248 257.895 225.08C257.293 224.898 256.782 224.583 256.362 224.135C255.942 223.687 255.732 223.106 255.732 222.392C255.732 221.524 256.089 220.796 256.803 220.208C257.517 219.606 258.49 219.305 259.722 219.305C261.276 219.305 262.592 219.781 263.67 220.733L262.746 222.287C262.424 221.923 261.997 221.629 261.465 221.405C260.933 221.181 260.359 221.069 259.743 221.069C259.169 221.069 258.707 221.188 258.357 221.426C258.021 221.65 257.853 221.944 257.853 222.308C257.853 222.588 258 222.819 258.294 223.001C258.602 223.169 258.98 223.295 259.428 223.379C259.89 223.463 260.387 223.582 260.919 223.736C261.451 223.876 261.941 224.044 262.389 224.24C262.851 224.436 263.229 224.758 263.523 225.206C263.831 225.64 263.985 226.172 263.985 226.802C263.985 227.726 263.614 228.482 262.872 229.07C262.13 229.658 261.094 229.952 259.764 229.952ZM270.887 229.952C269.347 229.952 268.073 229.462 267.065 228.482C266.071 227.488 265.574 226.2 265.574 224.618C265.574 223.134 266.057 221.881 267.023 220.859C268.003 219.823 269.235 219.305 270.719 219.305C272.217 219.305 273.421 219.823 274.331 220.859C275.255 221.895 275.717 223.218 275.717 224.828V225.353H267.884C267.968 226.151 268.297 226.816 268.871 227.348C269.445 227.88 270.194 228.146 271.118 228.146C271.636 228.146 272.154 228.048 272.672 227.852C273.204 227.656 273.645 227.383 273.995 227.033L275.003 228.482C273.981 229.462 272.609 229.952 270.887 229.952ZM273.575 223.799C273.547 223.099 273.288 222.476 272.798 221.93C272.322 221.384 271.629 221.111 270.719 221.111C269.851 221.111 269.172 221.384 268.682 221.93C268.192 222.462 267.919 223.085 267.863 223.799H273.575ZM280.099 229.7H277.894V219.557H280.099V221.048C280.491 220.544 280.981 220.131 281.569 219.809C282.157 219.487 282.766 219.326 283.396 219.326V221.51C283.2 221.468 282.969 221.447 282.703 221.447C282.241 221.447 281.744 221.587 281.212 221.867C280.694 222.133 280.323 222.441 280.099 222.791V229.7ZM290.214 229.7H287.841L283.704 219.557H286.056L289.017 227.159L291.978 219.557H294.351L290.214 229.7ZM300.419 229.952C298.879 229.952 297.605 229.462 296.597 228.482C295.603 227.488 295.106 226.2 295.106 224.618C295.106 223.134 295.589 221.881 296.555 220.859C297.535 219.823 298.767 219.305 300.251 219.305C301.749 219.305 302.953 219.823 303.863 220.859C304.787 221.895 305.249 223.218 305.249 224.828V225.353H297.416C297.5 226.151 297.829 226.816 298.403 227.348C298.977 227.88 299.726 228.146 300.65 228.146C301.168 228.146 301.686 228.048 302.204 227.852C302.736 227.656 303.177 227.383 303.527 227.033L304.535 228.482C303.513 229.462 302.141 229.952 300.419 229.952ZM303.107 223.799C303.079 223.099 302.82 222.476 302.33 221.93C301.854 221.384 301.161 221.111 300.251 221.111C299.383 221.111 298.704 221.384 298.214 221.93C297.724 222.462 297.451 223.085 297.395 223.799H303.107ZM310.89 229.952C309.07 229.952 307.621 229.427 306.543 228.377L307.551 226.781C307.929 227.173 308.44 227.509 309.084 227.789C309.728 228.069 310.365 228.209 310.995 228.209C311.639 228.209 312.129 228.083 312.465 227.831C312.815 227.579 312.99 227.25 312.99 226.844C312.99 226.48 312.78 226.2 312.36 226.004C311.94 225.794 311.429 225.633 310.827 225.521C310.225 225.395 309.623 225.248 309.021 225.08C308.419 224.898 307.908 224.583 307.488 224.135C307.068 223.687 306.858 223.106 306.858 222.392C306.858 221.524 307.215 220.796 307.929 220.208C308.643 219.606 309.616 219.305 310.848 219.305C312.402 219.305 313.718 219.781 314.796 220.733L313.872 222.287C313.55 221.923 313.123 221.629 312.591 221.405C312.059 221.181 311.485 221.069 310.869 221.069C310.295 221.069 309.833 221.188 309.483 221.426C309.147 221.65 308.979 221.944 308.979 222.308C308.979 222.588 309.126 222.819 309.42 223.001C309.728 223.169 310.106 223.295 310.554 223.379C311.016 223.463 311.513 223.582 312.045 223.736C312.577 223.876 313.067 224.044 313.515 224.24C313.977 224.436 314.355 224.758 314.649 225.206C314.957 225.64 315.111 226.172 315.111 226.802C315.111 227.726 314.74 228.482 313.998 229.07C313.256 229.658 312.22 229.952 310.89 229.952Z" fill="white"/>
<path d="M368.644 268H358.501V266.068C361.427 263.856 363.415 262.218 364.465 261.154C365.529 260.076 366.061 259.061 366.061 258.109C366.061 257.423 365.809 256.898 365.305 256.534C364.815 256.156 364.22 255.967 363.52 255.967C361.98 255.967 360.72 256.527 359.74 257.647L358.312 256.03C358.914 255.302 359.67 254.749 360.58 254.371C361.504 253.979 362.47 253.783 363.478 253.783C364.906 253.783 366.11 254.168 367.09 254.938C368.07 255.708 368.56 256.765 368.56 258.109C368.56 259.313 368.056 260.51 367.048 261.7C366.04 262.89 364.5 264.269 362.428 265.837H368.644V268ZM378.928 267.622C378.186 268.042 377.346 268.252 376.408 268.252C375.47 268.252 374.63 268.042 373.888 267.622C373.146 267.202 372.558 266.642 372.124 265.942C371.69 265.242 371.361 264.472 371.137 263.632C370.913 262.792 370.801 261.917 370.801 261.007C370.801 260.097 370.913 259.222 371.137 258.382C371.361 257.542 371.69 256.779 372.124 256.093C372.558 255.393 373.146 254.833 373.888 254.413C374.63 253.993 375.47 253.783 376.408 253.783C377.346 253.783 378.186 253.993 378.928 254.413C379.67 254.833 380.258 255.393 380.692 256.093C381.126 256.779 381.455 257.542 381.679 258.382C381.903 259.222 382.015 260.097 382.015 261.007C382.015 261.917 381.903 262.792 381.679 263.632C381.455 264.472 381.126 265.242 380.692 265.942C380.258 266.642 379.67 267.202 378.928 267.622ZM374.056 264.64C374.56 265.592 375.344 266.068 376.408 266.068C377.472 266.068 378.256 265.592 378.76 264.64C379.264 263.688 379.516 262.477 379.516 261.007C379.516 260.069 379.418 259.236 379.222 258.508C379.04 257.78 378.704 257.178 378.214 256.702C377.738 256.212 377.136 255.967 376.408 255.967C375.68 255.967 375.071 256.212 374.581 256.702C374.105 257.178 373.769 257.78 373.573 258.508C373.391 259.236 373.3 260.069 373.3 261.007C373.3 262.477 373.552 263.688 374.056 264.64ZM386.934 260.734C385.912 260.734 385.079 260.412 384.435 259.768C383.791 259.11 383.469 258.284 383.469 257.29C383.469 256.282 383.791 255.449 384.435 254.791C385.079 254.119 385.912 253.783 386.934 253.783C387.97 253.783 388.81 254.119 389.454 254.791C390.112 255.449 390.441 256.282 390.441 257.29C390.441 258.284 390.112 259.11 389.454 259.768C388.81 260.412 387.97 260.734 386.934 260.734ZM386.976 268H385.59L394.536 253.993H395.943L386.976 268ZM396.972 267.286C396.328 267.93 395.495 268.252 394.473 268.252C393.451 268.252 392.618 267.93 391.974 267.286C391.33 266.628 391.008 265.802 391.008 264.808C391.008 263.8 391.33 262.967 391.974 262.309C392.618 261.637 393.451 261.301 394.473 261.301C395.495 261.301 396.328 261.637 396.972 262.309C397.63 262.981 397.959 263.814 397.959 264.808C397.959 265.802 397.63 266.628 396.972 267.286ZM386.934 259.348C387.48 259.348 387.928 259.159 388.278 258.781C388.628 258.389 388.803 257.892 388.803 257.29C388.803 256.66 388.628 256.156 388.278 255.778C387.928 255.386 387.48 255.19 386.934 255.19C386.388 255.19 385.94 255.386 385.59 255.778C385.254 256.156 385.086 256.66 385.086 257.29C385.086 257.892 385.261 258.389 385.611 258.781C385.961 259.159 386.402 259.348 386.934 259.348ZM393.129 266.299C393.479 266.677 393.927 266.866 394.473 266.866C395.019 266.866 395.467 266.677 395.817 266.299C396.167 265.907 396.342 265.41 396.342 264.808C396.342 264.178 396.167 263.674 395.817 263.296C395.467 262.904 395.019 262.708 394.473 262.708C393.927 262.708 393.479 262.904 393.129 263.296C392.793 263.674 392.625 264.178 392.625 264.808C392.625 265.41 392.793 265.907 393.129 266.299Z" fill="white"/>
<path d="M311.644 82H301.501V80.068C304.427 77.856 306.415 76.218 307.465 75.154C308.529 74.076 309.061 73.061 309.061 72.109C309.061 71.423 308.809 70.898 308.305 70.534C307.815 70.156 307.22 69.967 306.52 69.967C304.98 69.967 303.72 70.527 302.74 71.647L301.312 70.03C301.914 69.302 302.67 68.749 303.58 68.371C304.504 67.979 305.47 67.783 306.478 67.783C307.906 67.783 309.11 68.168 310.09 68.938C311.07 69.708 311.56 70.765 311.56 72.109C311.56 73.313 311.056 74.51 310.048 75.7C309.04 76.89 307.5 78.269 305.428 79.837H311.644V82ZM321.928 81.622C321.186 82.042 320.346 82.252 319.408 82.252C318.47 82.252 317.63 82.042 316.888 81.622C316.146 81.202 315.558 80.642 315.124 79.942C314.69 79.242 314.361 78.472 314.137 77.632C313.913 76.792 313.801 75.917 313.801 75.007C313.801 74.097 313.913 73.222 314.137 72.382C314.361 71.542 314.69 70.779 315.124 70.093C315.558 69.393 316.146 68.833 316.888 68.413C317.63 67.993 318.47 67.783 319.408 67.783C320.346 67.783 321.186 67.993 321.928 68.413C322.67 68.833 323.258 69.393 323.692 70.093C324.126 70.779 324.455 71.542 324.679 72.382C324.903 73.222 325.015 74.097 325.015 75.007C325.015 75.917 324.903 76.792 324.679 77.632C324.455 78.472 324.126 79.242 323.692 79.942C323.258 80.642 322.67 81.202 321.928 81.622ZM317.056 78.64C317.56 79.592 318.344 80.068 319.408 80.068C320.472 80.068 321.256 79.592 321.76 78.64C322.264 77.688 322.516 76.477 322.516 75.007C322.516 74.069 322.418 73.236 322.222 72.508C322.04 71.78 321.704 71.178 321.214 70.702C320.738 70.212 320.136 69.967 319.408 69.967C318.68 69.967 318.071 70.212 317.581 70.702C317.105 71.178 316.769 71.78 316.573 72.508C316.391 73.236 316.3 74.069 316.3 75.007C316.3 76.477 316.552 77.688 317.056 78.64ZM329.934 74.734C328.912 74.734 328.079 74.412 327.435 73.768C326.791 73.11 326.469 72.284 326.469 71.29C326.469 70.282 326.791 69.449 327.435 68.791C328.079 68.119 328.912 67.783 329.934 67.783C330.97 67.783 331.81 68.119 332.454 68.791C333.112 69.449 333.441 70.282 333.441 71.29C333.441 72.284 333.112 73.11 332.454 73.768C331.81 74.412 330.97 74.734 329.934 74.734ZM329.976 82H328.59L337.536 67.993H338.943L329.976 82ZM339.972 81.286C339.328 81.93 338.495 82.252 337.473 82.252C336.451 82.252 335.618 81.93 334.974 81.286C334.33 80.628 334.008 79.802 334.008 78.808C334.008 77.8 334.33 76.967 334.974 76.309C335.618 75.637 336.451 75.301 337.473 75.301C338.495 75.301 339.328 75.637 339.972 76.309C340.63 76.981 340.959 77.814 340.959 78.808C340.959 79.802 340.63 80.628 339.972 81.286ZM329.934 73.348C330.48 73.348 330.928 73.159 331.278 72.781C331.628 72.389 331.803 71.892 331.803 71.29C331.803 70.66 331.628 70.156 331.278 69.778C330.928 69.386 330.48 69.19 329.934 69.19C329.388 69.19 328.94 69.386 328.59 69.778C328.254 70.156 328.086 70.66 328.086 71.29C328.086 71.892 328.261 72.389 328.611 72.781C328.961 73.159 329.402 73.348 329.934 73.348ZM336.129 80.299C336.479 80.677 336.927 80.866 337.473 80.866C338.019 80.866 338.467 80.677 338.817 80.299C339.167 79.907 339.342 79.41 339.342 78.808C339.342 78.178 339.167 77.674 338.817 77.296C338.467 76.904 338.019 76.708 337.473 76.708C336.927 76.708 336.479 76.904 336.129 77.296C335.793 77.674 335.625 78.178 335.625 78.808C335.625 79.41 335.793 79.907 336.129 80.299Z" fill="white"/>
<path d="M92.6442 82H82.5012V80.068C85.4272 77.856 87.4152 76.218 88.4652 75.154C89.5292 74.076 90.0612 73.061 90.0612 72.109C90.0612 71.423 89.8092 70.898 89.3052 70.534C88.8152 70.156 88.2202 69.967 87.5202 69.967C85.9802 69.967 84.7202 70.527 83.7402 71.647L82.3122 70.03C82.9142 69.302 83.6702 68.749 84.5802 68.371C85.5042 67.979 86.4702 67.783 87.4782 67.783C88.9062 67.783 90.1102 68.168 91.0902 68.938C92.0702 69.708 92.5602 70.765 92.5602 72.109C92.5602 73.313 92.0562 74.51 91.0482 75.7C90.0402 76.89 88.5002 78.269 86.4282 79.837H92.6442V82ZM102.928 81.622C102.186 82.042 101.346 82.252 100.408 82.252C99.4704 82.252 98.6304 82.042 97.8884 81.622C97.1464 81.202 96.5584 80.642 96.1244 79.942C95.6904 79.242 95.3614 78.472 95.1374 77.632C94.9134 76.792 94.8014 75.917 94.8014 75.007C94.8014 74.097 94.9134 73.222 95.1374 72.382C95.3614 71.542 95.6904 70.779 96.1244 70.093C96.5584 69.393 97.1464 68.833 97.8884 68.413C98.6304 67.993 99.4704 67.783 100.408 67.783C101.346 67.783 102.186 67.993 102.928 68.413C103.67 68.833 104.258 69.393 104.692 70.093C105.126 70.779 105.455 71.542 105.679 72.382C105.903 73.222 106.015 74.097 106.015 75.007C106.015 75.917 105.903 76.792 105.679 77.632C105.455 78.472 105.126 79.242 104.692 79.942C104.258 80.642 103.67 81.202 102.928 81.622ZM98.0564 78.64C98.5604 79.592 99.3444 80.068 100.408 80.068C101.472 80.068 102.256 79.592 102.76 78.64C103.264 77.688 103.516 76.477 103.516 75.007C103.516 74.069 103.418 73.236 103.222 72.508C103.04 71.78 102.704 71.178 102.214 70.702C101.738 70.212 101.136 69.967 100.408 69.967C99.6804 69.967 99.0714 70.212 98.5814 70.702C98.1054 71.178 97.7694 71.78 97.5734 72.508C97.3914 73.236 97.3004 74.069 97.3004 75.007C97.3004 76.477 97.5524 77.688 98.0564 78.64ZM110.934 74.734C109.912 74.734 109.079 74.412 108.435 73.768C107.791 73.11 107.469 72.284 107.469 71.29C107.469 70.282 107.791 69.449 108.435 68.791C109.079 68.119 109.912 67.783 110.934 67.783C111.97 67.783 112.81 68.119 113.454 68.791C114.112 69.449 114.441 70.282 114.441 71.29C114.441 72.284 114.112 73.11 113.454 73.768C112.81 74.412 111.97 74.734 110.934 74.734ZM110.976 82H109.59L118.536 67.993H119.943L110.976 82ZM120.972 81.286C120.328 81.93 119.495 82.252 118.473 82.252C117.451 82.252 116.618 81.93 115.974 81.286C115.33 80.628 115.008 79.802 115.008 78.808C115.008 77.8 115.33 76.967 115.974 76.309C116.618 75.637 117.451 75.301 118.473 75.301C119.495 75.301 120.328 75.637 120.972 76.309C121.63 76.981 121.959 77.814 121.959 78.808C121.959 79.802 121.63 80.628 120.972 81.286ZM110.934 73.348C111.48 73.348 111.928 73.159 112.278 72.781C112.628 72.389 112.803 71.892 112.803 71.29C112.803 70.66 112.628 70.156 112.278 69.778C111.928 69.386 111.48 69.19 110.934 69.19C110.388 69.19 109.94 69.386 109.59 69.778C109.254 70.156 109.086 70.66 109.086 71.29C109.086 71.892 109.261 72.389 109.611 72.781C109.961 73.159 110.402 73.348 110.934 73.348ZM117.129 80.299C117.479 80.677 117.927 80.866 118.473 80.866C119.019 80.866 119.467 80.677 119.817 80.299C120.167 79.907 120.342 79.41 120.342 78.808C120.342 78.178 120.167 77.674 119.817 77.296C119.467 76.904 119.019 76.708 118.473 76.708C117.927 76.708 117.479 76.904 117.129 77.296C116.793 77.674 116.625 78.178 116.625 78.808C116.625 79.41 116.793 79.907 117.129 80.299Z" fill="white"/>
<path d="M47.3185 297H37.1755V295.068C40.1015 292.856 42.0895 291.218 43.1395 290.154C44.2035 289.076 44.7355 288.061 44.7355 287.109C44.7355 286.423 44.4835 285.898 43.9795 285.534C43.4895 285.156 42.8945 284.967 42.1945 284.967C40.6545 284.967 39.3945 285.527 38.4145 286.647L36.9865 285.03C37.5885 284.302 38.3445 283.749 39.2545 283.371C40.1785 282.979 41.1445 282.783 42.1525 282.783C43.5805 282.783 44.7845 283.168 45.7645 283.938C46.7445 284.708 47.2345 285.765 47.2345 287.109C47.2345 288.313 46.7305 289.51 45.7225 290.7C44.7145 291.89 43.1745 293.269 41.1025 294.837H47.3185V297ZM54.9987 297.252C52.7447 297.252 51.0087 296.531 49.7907 295.089L51.1977 293.409C52.1777 294.515 53.4377 295.068 54.9777 295.068C55.8457 295.068 56.5387 294.837 57.0567 294.375C57.5887 293.899 57.8547 293.311 57.8547 292.611C57.8547 291.855 57.5957 291.253 57.0777 290.805C56.5737 290.343 55.8947 290.112 55.0407 290.112C53.8507 290.112 52.8287 290.518 51.9747 291.33L50.2317 290.826V282.993H59.4087V285.156H52.6887V289.209C53.5007 288.397 54.5577 287.991 55.8597 287.991C57.0917 287.991 58.1417 288.404 59.0097 289.23C59.8917 290.042 60.3327 291.134 60.3327 292.506C60.3327 293.948 59.8357 295.103 58.8417 295.971C57.8617 296.825 56.5807 297.252 54.9987 297.252ZM65.2595 289.734C64.2375 289.734 63.4045 289.412 62.7605 288.768C62.1165 288.11 61.7945 287.284 61.7945 286.29C61.7945 285.282 62.1165 284.449 62.7605 283.791C63.4045 283.119 64.2375 282.783 65.2595 282.783C66.2955 282.783 67.1355 283.119 67.7795 283.791C68.4375 284.449 68.7665 285.282 68.7665 286.29C68.7665 287.284 68.4375 288.11 67.7795 288.768C67.1355 289.412 66.2955 289.734 65.2595 289.734ZM65.3015 297H63.9155L72.8615 282.993H74.2685L65.3015 297ZM75.2975 296.286C74.6535 296.93 73.8205 297.252 72.7985 297.252C71.7765 297.252 70.9435 296.93 70.2995 296.286C69.6555 295.628 69.3335 294.802 69.3335 293.808C69.3335 292.8 69.6555 291.967 70.2995 291.309C70.9435 290.637 71.7765 290.301 72.7985 290.301C73.8205 290.301 74.6535 290.637 75.2975 291.309C75.9555 291.981 76.2845 292.814 76.2845 293.808C76.2845 294.802 75.9555 295.628 75.2975 296.286ZM65.2595 288.348C65.8055 288.348 66.2535 288.159 66.6035 287.781C66.9535 287.389 67.1285 286.892 67.1285 286.29C67.1285 285.66 66.9535 285.156 66.6035 284.778C66.2535 284.386 65.8055 284.19 65.2595 284.19C64.7135 284.19 64.2655 284.386 63.9155 284.778C63.5795 285.156 63.4115 285.66 63.4115 286.29C63.4115 286.892 63.5865 287.389 63.9365 287.781C64.2865 288.159 64.7275 288.348 65.2595 288.348ZM71.4545 295.299C71.8045 295.677 72.2525 295.866 72.7985 295.866C73.3445 295.866 73.7925 295.677 74.1425 295.299C74.4925 294.907 74.6675 294.41 74.6675 293.808C74.6675 293.178 74.4925 292.674 74.1425 292.296C73.7925 291.904 73.3445 291.708 72.7985 291.708C72.2525 291.708 71.8045 291.904 71.4545 292.296C71.1185 292.674 70.9505 293.178 70.9505 293.808C70.9505 294.41 71.1185 294.907 71.4545 295.299Z" fill="black"/>
<path d="M225.87 389H223.413V378.185L221.124 380.558L219.696 379.067L223.728 374.993H225.87V389ZM233.743 389.252C231.489 389.252 229.753 388.531 228.535 387.089L229.942 385.409C230.922 386.515 232.182 387.068 233.722 387.068C234.59 387.068 235.283 386.837 235.801 386.375C236.333 385.899 236.599 385.311 236.599 384.611C236.599 383.855 236.34 383.253 235.822 382.805C235.318 382.343 234.639 382.112 233.785 382.112C232.595 382.112 231.573 382.518 230.719 383.33L228.976 382.826V374.993H238.153V377.156H231.433V381.209C232.245 380.397 233.302 379.991 234.604 379.991C235.836 379.991 236.886 380.404 237.754 381.23C238.636 382.042 239.077 383.134 239.077 384.506C239.077 385.948 238.58 387.103 237.586 387.971C236.606 388.825 235.325 389.252 233.743 389.252ZM244.004 381.734C242.982 381.734 242.149 381.412 241.505 380.768C240.861 380.11 240.539 379.284 240.539 378.29C240.539 377.282 240.861 376.449 241.505 375.791C242.149 375.119 242.982 374.783 244.004 374.783C245.04 374.783 245.88 375.119 246.524 375.791C247.182 376.449 247.511 377.282 247.511 378.29C247.511 379.284 247.182 380.11 246.524 380.768C245.88 381.412 245.04 381.734 244.004 381.734ZM244.046 389H242.66L251.606 374.993H253.013L244.046 389ZM254.042 388.286C253.398 388.93 252.565 389.252 251.543 389.252C250.521 389.252 249.688 388.93 249.044 388.286C248.4 387.628 248.078 386.802 248.078 385.808C248.078 384.8 248.4 383.967 249.044 383.309C249.688 382.637 250.521 382.301 251.543 382.301C252.565 382.301 253.398 382.637 254.042 383.309C254.7 383.981 255.029 384.814 255.029 385.808C255.029 386.802 254.7 387.628 254.042 388.286ZM244.004 380.348C244.55 380.348 244.998 380.159 245.348 379.781C245.698 379.389 245.873 378.892 245.873 378.29C245.873 377.66 245.698 377.156 245.348 376.778C244.998 376.386 244.55 376.19 244.004 376.19C243.458 376.19 243.01 376.386 242.66 376.778C242.324 377.156 242.156 377.66 242.156 378.29C242.156 378.892 242.331 379.389 242.681 379.781C243.031 380.159 243.472 380.348 244.004 380.348ZM250.199 387.299C250.549 387.677 250.997 387.866 251.543 387.866C252.089 387.866 252.537 387.677 252.887 387.299C253.237 386.907 253.412 386.41 253.412 385.808C253.412 385.178 253.237 384.674 252.887 384.296C252.537 383.904 252.089 383.708 251.543 383.708C250.997 383.708 250.549 383.904 250.199 384.296C249.863 384.674 249.695 385.178 249.695 385.808C249.695 386.41 249.863 386.907 250.199 387.299Z" fill="white"/>
<circle cx="730" cy="210" r="210" fill="#2D3549"/>
<path d="M932.844 155.648C944.201 198.031 941.996 242.907 926.54 283.973C911.084 325.038 883.153 360.231 846.67 384.609C810.186 408.986 766.984 421.323 723.129 419.888C679.274 418.452 636.971 403.315 602.16 376.604C567.349 349.893 541.78 312.948 529.042 270.96C516.305 228.971 517.041 184.047 531.145 142.498C545.249 100.948 572.014 64.8601 607.68 39.3021C643.346 13.7441 686.122 -2.91178e-05 730 0L730 210L932.844 155.648Z" fill="#AA0185"/>
<path d="M932.844 155.648C944.201 198.031 941.996 242.907 926.54 283.973C911.084 325.038 883.153 360.231 846.67 384.609C810.186 408.986 766.984 421.323 723.129 419.888C679.274 418.452 636.971 403.315 602.16 376.604C567.349 349.893 541.78 312.948 529.042 270.96C516.305 228.971 517.041 184.047 531.145 142.498C545.249 100.948 572.014 64.8601 607.68 39.3021C643.346 13.7441 686.122 -2.91178e-05 730 0L730 210L932.844 155.648Z" fill="#AA0185"/>
<path d="M929.722 145.106C939.963 176.625 942.599 210.119 937.415 242.851C932.23 275.583 919.373 306.624 899.894 333.435C880.414 360.246 854.866 382.066 825.338 397.111C795.81 412.157 763.14 420 730 420C696.86 420 664.19 412.157 634.662 397.111C605.134 382.066 579.586 360.246 560.106 333.435C540.627 306.624 527.77 275.583 522.585 242.851C517.401 210.119 520.037 176.625 530.278 145.106L730 210L929.722 145.106Z" fill="#F5B242"/>
<path d="M929.722 145.106C941.69 181.94 943.239 221.365 934.198 259.023C925.157 296.682 905.878 331.107 878.492 358.492C851.107 385.878 816.682 405.157 779.024 414.198C741.365 423.239 701.94 421.69 665.107 409.722L730 210L929.722 145.106Z" fill="#3A78FF"/>
<circle cx="730" cy="210" r="140" fill="#121620"/>
<path d="M693.57 202.7H690.777L689.748 200.012H683.322L682.293 202.7H679.5L685.002 188.693H688.068L693.57 202.7ZM689.055 197.849L686.535 191.171L684.015 197.849H689.055ZM704.382 202.7H702.177V201.314C701.337 202.406 700.252 202.952 698.922 202.952C697.592 202.952 696.507 202.476 695.667 201.524C694.827 200.572 694.407 199.277 694.407 197.639C694.407 196.015 694.827 194.72 695.667 193.754C696.507 192.788 697.592 192.305 698.922 192.305C700.252 192.305 701.337 192.858 702.177 193.964V188.693H704.382V202.7ZM699.552 200.999C700.07 200.999 700.574 200.873 701.064 200.621C701.554 200.369 701.925 200.047 702.177 199.655V195.623C701.925 195.231 701.554 194.909 701.064 194.657C700.574 194.391 700.07 194.258 699.552 194.258C698.684 194.258 697.991 194.573 697.473 195.203C696.955 195.833 696.696 196.645 696.696 197.639C696.696 198.633 696.955 199.445 697.473 200.075C697.991 200.691 698.684 200.999 699.552 200.999ZM716.584 202.7H714.379V201.314C713.539 202.406 712.454 202.952 711.124 202.952C709.794 202.952 708.709 202.476 707.869 201.524C707.029 200.572 706.609 199.277 706.609 197.639C706.609 196.015 707.029 194.72 707.869 193.754C708.709 192.788 709.794 192.305 711.124 192.305C712.454 192.305 713.539 192.858 714.379 193.964V188.693H716.584V202.7ZM711.754 200.999C712.272 200.999 712.776 200.873 713.266 200.621C713.756 200.369 714.127 200.047 714.379 199.655V195.623C714.127 195.231 713.756 194.909 713.266 194.657C712.776 194.391 712.272 194.258 711.754 194.258C710.886 194.258 710.193 194.573 709.675 195.203C709.157 195.833 708.898 196.645 708.898 197.639C708.898 198.633 709.157 199.445 709.675 200.075C710.193 200.691 710.886 200.999 711.754 200.999ZM720.533 191.318C720.169 191.318 719.847 191.185 719.567 190.919C719.301 190.653 719.168 190.331 719.168 189.953C719.168 189.575 719.301 189.253 719.567 188.987C719.847 188.721 720.169 188.588 720.533 188.588C720.911 188.588 721.233 188.721 721.499 188.987C721.765 189.253 721.898 189.575 721.898 189.953C721.898 190.331 721.765 190.653 721.499 190.919C721.233 191.185 720.911 191.318 720.533 191.318ZM721.646 202.7H719.441V192.557H721.646V202.7ZM727.552 202.952C726.698 202.952 726.047 202.728 725.599 202.28C725.165 201.832 724.948 201.188 724.948 200.348V194.489H723.268V192.557H724.948V189.785H727.153V192.557H729.211V194.489H727.153V199.802C727.153 200.166 727.237 200.46 727.405 200.684C727.573 200.894 727.811 200.999 728.119 200.999C728.567 200.999 728.896 200.88 729.106 200.642L729.631 202.301C729.169 202.735 728.476 202.952 727.552 202.952ZM732.305 191.318C731.941 191.318 731.619 191.185 731.339 190.919C731.073 190.653 730.94 190.331 730.94 189.953C730.94 189.575 731.073 189.253 731.339 188.987C731.619 188.721 731.941 188.588 732.305 188.588C732.683 188.588 733.005 188.721 733.271 188.987C733.537 189.253 733.67 189.575 733.67 189.953C733.67 190.331 733.537 190.653 733.271 190.919C733.005 191.185 732.683 191.318 732.305 191.318ZM733.418 202.7H731.213V192.557H733.418V202.7ZM740.856 202.952C739.288 202.952 738.028 202.441 737.076 201.419C736.124 200.383 735.648 199.116 735.648 197.618C735.648 196.12 736.124 194.86 737.076 193.838C738.028 192.816 739.288 192.305 740.856 192.305C742.438 192.305 743.705 192.816 744.657 193.838C745.609 194.86 746.085 196.12 746.085 197.618C746.085 199.13 745.609 200.397 744.657 201.419C743.705 202.441 742.438 202.952 740.856 202.952ZM740.856 200.999C741.766 200.999 742.48 200.677 742.998 200.033C743.53 199.375 743.796 198.57 743.796 197.618C743.796 196.68 743.53 195.889 742.998 195.245C742.48 194.587 741.766 194.258 740.856 194.258C739.96 194.258 739.246 194.587 738.714 195.245C738.196 195.889 737.937 196.68 737.937 197.618C737.937 198.57 738.196 199.375 738.714 200.033C739.246 200.677 739.96 200.999 740.856 200.999ZM757.367 202.7H755.162V196.358C755.162 194.958 754.483 194.258 753.125 194.258C752.593 194.258 752.096 194.391 751.634 194.657C751.172 194.923 750.801 195.245 750.521 195.623V202.7H748.316V192.557H750.521V193.943C750.899 193.495 751.403 193.11 752.033 192.788C752.663 192.466 753.349 192.305 754.091 192.305C755.169 192.305 755.981 192.585 756.527 193.145C757.087 193.705 757.367 194.51 757.367 195.56V202.7ZM768.631 202.7H766.426V201.608C765.642 202.504 764.55 202.952 763.15 202.952C762.226 202.952 761.407 202.658 760.693 202.07C759.979 201.468 759.622 200.642 759.622 199.592C759.622 198.514 759.972 197.695 760.672 197.135C761.386 196.575 762.212 196.295 763.15 196.295C764.592 196.295 765.684 196.729 766.426 197.597V196.085C766.426 195.497 766.209 195.035 765.775 194.699C765.341 194.363 764.767 194.195 764.053 194.195C762.919 194.195 761.918 194.622 761.05 195.476L760.147 193.943C761.295 192.851 762.716 192.305 764.41 192.305C765.656 192.305 766.671 192.599 767.455 193.187C768.239 193.775 768.631 194.706 768.631 195.98V202.7ZM764.011 201.44C765.117 201.44 765.922 201.09 766.426 200.39V198.857C765.922 198.157 765.117 197.807 764.011 197.807C763.381 197.807 762.863 197.975 762.457 198.311C762.051 198.647 761.848 199.088 761.848 199.634C761.848 200.18 762.051 200.621 762.457 200.957C762.863 201.279 763.381 201.44 764.011 201.44ZM773.695 202.7H771.49V188.693H773.695V202.7ZM655.447 229.7H653.242V219.557H655.447V221.048C655.839 220.544 656.329 220.131 656.917 219.809C657.505 219.487 658.114 219.326 658.744 219.326V221.51C658.548 221.468 658.317 221.447 658.051 221.447C657.589 221.447 657.092 221.587 656.56 221.867C656.042 222.133 655.671 222.441 655.447 222.791V229.7ZM665.205 229.952C663.665 229.952 662.391 229.462 661.383 228.482C660.389 227.488 659.892 226.2 659.892 224.618C659.892 223.134 660.375 221.881 661.341 220.859C662.321 219.823 663.553 219.305 665.037 219.305C666.535 219.305 667.739 219.823 668.649 220.859C669.573 221.895 670.035 223.218 670.035 224.828V225.353H662.202C662.286 226.151 662.615 226.816 663.189 227.348C663.763 227.88 664.512 228.146 665.436 228.146C665.954 228.146 666.472 228.048 666.99 227.852C667.522 227.656 667.963 227.383 668.313 227.033L669.321 228.482C668.299 229.462 666.927 229.952 665.205 229.952ZM667.893 223.799C667.865 223.099 667.606 222.476 667.116 221.93C666.64 221.384 665.947 221.111 665.037 221.111C664.169 221.111 663.49 221.384 663 221.93C662.51 222.462 662.237 223.085 662.181 223.799H667.893ZM677.252 229.7H674.879L670.742 219.557H673.094L676.055 227.159L679.016 219.557H681.389L677.252 229.7ZM687.456 229.952C685.916 229.952 684.642 229.462 683.634 228.482C682.64 227.488 682.143 226.2 682.143 224.618C682.143 223.134 682.626 221.881 683.592 220.859C684.572 219.823 685.804 219.305 687.288 219.305C688.786 219.305 689.99 219.823 690.9 220.859C691.824 221.895 692.286 223.218 692.286 224.828V225.353H684.453C684.537 226.151 684.866 226.816 685.44 227.348C686.014 227.88 686.763 228.146 687.687 228.146C688.205 228.146 688.723 228.048 689.241 227.852C689.773 227.656 690.214 227.383 690.564 227.033L691.572 228.482C690.55 229.462 689.178 229.952 687.456 229.952ZM690.144 223.799C690.116 223.099 689.857 222.476 689.367 221.93C688.891 221.384 688.198 221.111 687.288 221.111C686.42 221.111 685.741 221.384 685.251 221.93C684.761 222.462 684.488 223.085 684.432 223.799H690.144ZM703.514 229.7H701.309V223.358C701.309 221.958 700.63 221.258 699.272 221.258C698.74 221.258 698.243 221.391 697.781 221.657C697.319 221.923 696.948 222.245 696.668 222.623V229.7H694.463V219.557H696.668V220.943C697.046 220.495 697.55 220.11 698.18 219.788C698.81 219.466 699.496 219.305 700.238 219.305C701.316 219.305 702.128 219.585 702.674 220.145C703.234 220.705 703.514 221.51 703.514 222.56V229.7ZM715.429 229.7H713.224V228.356C712.272 229.42 711.075 229.952 709.633 229.952C707.463 229.952 706.378 228.881 706.378 226.739V219.557H708.583V225.941C708.583 226.683 708.758 227.215 709.108 227.537C709.458 227.845 709.962 227.999 710.62 227.999C711.152 227.999 711.649 227.873 712.111 227.621C712.573 227.369 712.944 227.054 713.224 226.676V219.557H715.429V229.7ZM722.976 229.952C721.436 229.952 720.162 229.462 719.154 228.482C718.16 227.488 717.663 226.2 717.663 224.618C717.663 223.134 718.146 221.881 719.112 220.859C720.092 219.823 721.324 219.305 722.808 219.305C724.306 219.305 725.51 219.823 726.42 220.859C727.344 221.895 727.806 223.218 727.806 224.828V225.353H719.973C720.057 226.151 720.386 226.816 720.96 227.348C721.534 227.88 722.283 228.146 723.207 228.146C723.725 228.146 724.243 228.048 724.761 227.852C725.293 227.656 725.734 227.383 726.084 227.033L727.092 228.482C726.07 229.462 724.698 229.952 722.976 229.952ZM725.664 223.799C725.636 223.099 725.377 222.476 724.887 221.93C724.411 221.384 723.718 221.111 722.808 221.111C721.94 221.111 721.261 221.384 720.771 221.93C720.281 222.462 720.008 223.085 719.952 223.799H725.664ZM738.841 229.952C737.021 229.952 735.572 229.427 734.494 228.377L735.502 226.781C735.88 227.173 736.391 227.509 737.035 227.789C737.679 228.069 738.316 228.209 738.946 228.209C739.59 228.209 740.08 228.083 740.416 227.831C740.766 227.579 740.941 227.25 740.941 226.844C740.941 226.48 740.731 226.2 740.311 226.004C739.891 225.794 739.38 225.633 738.778 225.521C738.176 225.395 737.574 225.248 736.972 225.08C736.37 224.898 735.859 224.583 735.439 224.135C735.019 223.687 734.809 223.106 734.809 222.392C734.809 221.524 735.166 220.796 735.88 220.208C736.594 219.606 737.567 219.305 738.799 219.305C740.353 219.305 741.669 219.781 742.747 220.733L741.823 222.287C741.501 221.923 741.074 221.629 740.542 221.405C740.01 221.181 739.436 221.069 738.82 221.069C738.246 221.069 737.784 221.188 737.434 221.426C737.098 221.65 736.93 221.944 736.93 222.308C736.93 222.588 737.077 222.819 737.371 223.001C737.679 223.169 738.057 223.295 738.505 223.379C738.967 223.463 739.464 223.582 739.996 223.736C740.528 223.876 741.018 224.044 741.466 224.24C741.928 224.436 742.306 224.758 742.6 225.206C742.908 225.64 743.062 226.172 743.062 226.802C743.062 227.726 742.691 228.482 741.949 229.07C741.207 229.658 740.171 229.952 738.841 229.952ZM748.326 229.952C747.472 229.952 746.821 229.728 746.373 229.28C745.939 228.832 745.722 228.188 745.722 227.348V221.489H744.042V219.557H745.722V216.785H747.927V219.557H749.985V221.489H747.927V226.802C747.927 227.166 748.011 227.46 748.179 227.684C748.347 227.894 748.585 227.999 748.893 227.999C749.341 227.999 749.67 227.88 749.88 227.642L750.405 229.301C749.943 229.735 749.25 229.952 748.326 229.952ZM754.192 229.7H751.987V219.557H754.192V221.048C754.584 220.544 755.074 220.131 755.662 219.809C756.25 219.487 756.859 219.326 757.489 219.326V221.51C757.293 221.468 757.062 221.447 756.796 221.447C756.334 221.447 755.837 221.587 755.305 221.867C754.787 222.133 754.416 222.441 754.192 222.791V229.7ZM763.95 229.952C762.41 229.952 761.136 229.462 760.128 228.482C759.134 227.488 758.637 226.2 758.637 224.618C758.637 223.134 759.12 221.881 760.086 220.859C761.066 219.823 762.298 219.305 763.782 219.305C765.28 219.305 766.484 219.823 767.394 220.859C768.318 221.895 768.78 223.218 768.78 224.828V225.353H760.947C761.031 226.151 761.36 226.816 761.934 227.348C762.508 227.88 763.257 228.146 764.181 228.146C764.699 228.146 765.217 228.048 765.735 227.852C766.267 227.656 766.708 227.383 767.058 227.033L768.066 228.482C767.044 229.462 765.672 229.952 763.95 229.952ZM766.638 223.799C766.61 223.099 766.351 222.476 765.861 221.93C765.385 221.384 764.692 221.111 763.782 221.111C762.914 221.111 762.235 221.384 761.745 221.93C761.255 222.462 760.982 223.085 760.926 223.799H766.638ZM779.357 229.7H777.152V228.608C776.368 229.504 775.276 229.952 773.876 229.952C772.952 229.952 772.133 229.658 771.419 229.07C770.705 228.468 770.348 227.642 770.348 226.592C770.348 225.514 770.698 224.695 771.398 224.135C772.112 223.575 772.938 223.295 773.876 223.295C775.318 223.295 776.41 223.729 777.152 224.597V223.085C777.152 222.497 776.935 222.035 776.501 221.699C776.067 221.363 775.493 221.195 774.779 221.195C773.645 221.195 772.644 221.622 771.776 222.476L770.873 220.943C772.021 219.851 773.442 219.305 775.136 219.305C776.382 219.305 777.397 219.599 778.181 220.187C778.965 220.775 779.357 221.706 779.357 222.98V229.7ZM774.737 228.44C775.843 228.44 776.648 228.09 777.152 227.39V225.857C776.648 225.157 775.843 224.807 774.737 224.807C774.107 224.807 773.589 224.975 773.183 225.311C772.777 225.647 772.574 226.088 772.574 226.634C772.574 227.18 772.777 227.621 773.183 227.957C773.589 228.279 774.107 228.44 774.737 228.44ZM796.853 229.7H794.648V223.085C794.648 221.867 794.095 221.258 792.989 221.258C792.527 221.258 792.079 221.391 791.645 221.657C791.211 221.923 790.875 222.238 790.637 222.602V229.7H788.432V223.085C788.432 221.867 787.872 221.258 786.752 221.258C786.304 221.258 785.863 221.391 785.429 221.657C785.009 221.923 784.673 222.245 784.421 222.623V229.7H782.216V219.557H784.421V220.943C784.673 220.565 785.107 220.201 785.723 219.851C786.353 219.487 787.018 219.305 787.718 219.305C789.188 219.305 790.112 219.928 790.49 221.174C790.812 220.67 791.288 220.236 791.918 219.872C792.548 219.494 793.22 219.305 793.934 219.305C795.88 219.305 796.853 220.327 796.853 222.371V229.7ZM803.174 229.952C801.354 229.952 799.905 229.427 798.827 228.377L799.835 226.781C800.213 227.173 800.724 227.509 801.368 227.789C802.012 228.069 802.649 228.209 803.279 228.209C803.923 228.209 804.413 228.083 804.749 227.831C805.099 227.579 805.274 227.25 805.274 226.844C805.274 226.48 805.064 226.2 804.644 226.004C804.224 225.794 803.713 225.633 803.111 225.521C802.509 225.395 801.907 225.248 801.305 225.08C800.703 224.898 800.192 224.583 799.772 224.135C799.352 223.687 799.142 223.106 799.142 222.392C799.142 221.524 799.499 220.796 800.213 220.208C800.927 219.606 801.9 219.305 803.132 219.305C804.686 219.305 806.002 219.781 807.08 220.733L806.156 222.287C805.834 221.923 805.407 221.629 804.875 221.405C804.343 221.181 803.769 221.069 803.153 221.069C802.579 221.069 802.117 221.188 801.767 221.426C801.431 221.65 801.263 221.944 801.263 222.308C801.263 222.588 801.41 222.819 801.704 223.001C802.012 223.169 802.39 223.295 802.838 223.379C803.3 223.463 803.797 223.582 804.329 223.736C804.861 223.876 805.351 224.044 805.799 224.24C806.261 224.436 806.639 224.758 806.933 225.206C807.241 225.64 807.395 226.172 807.395 226.802C807.395 227.726 807.024 228.482 806.282 229.07C805.54 229.658 804.504 229.952 803.174 229.952Z" fill="white"/>
<path d="M829.644 82H819.501V80.068C822.427 77.856 824.415 76.218 825.465 75.154C826.529 74.076 827.061 73.061 827.061 72.109C827.061 71.423 826.809 70.898 826.305 70.534C825.815 70.156 825.22 69.967 824.52 69.967C822.98 69.967 821.72 70.527 820.74 71.647L819.312 70.03C819.914 69.302 820.67 68.749 821.58 68.371C822.504 67.979 823.47 67.783 824.478 67.783C825.906 67.783 827.11 68.168 828.09 68.938C829.07 69.708 829.56 70.765 829.56 72.109C829.56 73.313 829.056 74.51 828.048 75.7C827.04 76.89 825.5 78.269 823.428 79.837H829.644V82ZM839.928 81.622C839.186 82.042 838.346 82.252 837.408 82.252C836.47 82.252 835.63 82.042 834.888 81.622C834.146 81.202 833.558 80.642 833.124 79.942C832.69 79.242 832.361 78.472 832.137 77.632C831.913 76.792 831.801 75.917 831.801 75.007C831.801 74.097 831.913 73.222 832.137 72.382C832.361 71.542 832.69 70.779 833.124 70.093C833.558 69.393 834.146 68.833 834.888 68.413C835.63 67.993 836.47 67.783 837.408 67.783C838.346 67.783 839.186 67.993 839.928 68.413C840.67 68.833 841.258 69.393 841.692 70.093C842.126 70.779 842.455 71.542 842.679 72.382C842.903 73.222 843.015 74.097 843.015 75.007C843.015 75.917 842.903 76.792 842.679 77.632C842.455 78.472 842.126 79.242 841.692 79.942C841.258 80.642 840.67 81.202 839.928 81.622ZM835.056 78.64C835.56 79.592 836.344 80.068 837.408 80.068C838.472 80.068 839.256 79.592 839.76 78.64C840.264 77.688 840.516 76.477 840.516 75.007C840.516 74.069 840.418 73.236 840.222 72.508C840.04 71.78 839.704 71.178 839.214 70.702C838.738 70.212 838.136 69.967 837.408 69.967C836.68 69.967 836.071 70.212 835.581 70.702C835.105 71.178 834.769 71.78 834.573 72.508C834.391 73.236 834.3 74.069 834.3 75.007C834.3 76.477 834.552 77.688 835.056 78.64ZM847.934 74.734C846.912 74.734 846.079 74.412 845.435 73.768C844.791 73.11 844.469 72.284 844.469 71.29C844.469 70.282 844.791 69.449 845.435 68.791C846.079 68.119 846.912 67.783 847.934 67.783C848.97 67.783 849.81 68.119 850.454 68.791C851.112 69.449 851.441 70.282 851.441 71.29C851.441 72.284 851.112 73.11 850.454 73.768C849.81 74.412 848.97 74.734 847.934 74.734ZM847.976 82H846.59L855.536 67.993H856.943L847.976 82ZM857.972 81.286C857.328 81.93 856.495 82.252 855.473 82.252C854.451 82.252 853.618 81.93 852.974 81.286C852.33 80.628 852.008 79.802 852.008 78.808C852.008 77.8 852.33 76.967 852.974 76.309C853.618 75.637 854.451 75.301 855.473 75.301C856.495 75.301 857.328 75.637 857.972 76.309C858.63 76.981 858.959 77.814 858.959 78.808C858.959 79.802 858.63 80.628 857.972 81.286ZM847.934 73.348C848.48 73.348 848.928 73.159 849.278 72.781C849.628 72.389 849.803 71.892 849.803 71.29C849.803 70.66 849.628 70.156 849.278 69.778C848.928 69.386 848.48 69.19 847.934 69.19C847.388 69.19 846.94 69.386 846.59 69.778C846.254 70.156 846.086 70.66 846.086 71.29C846.086 71.892 846.261 72.389 846.611 72.781C846.961 73.159 847.402 73.348 847.934 73.348ZM854.129 80.299C854.479 80.677 854.927 80.866 855.473 80.866C856.019 80.866 856.467 80.677 856.817 80.299C857.167 79.907 857.342 79.41 857.342 78.808C857.342 78.178 857.167 77.674 856.817 77.296C856.467 76.904 856.019 76.708 855.473 76.708C854.927 76.708 854.479 76.904 854.129 77.296C853.793 77.674 853.625 78.178 853.625 78.808C853.625 79.41 853.793 79.907 854.129 80.299Z" fill="white"/>
<path d="M612.644 82H602.501V80.068C605.427 77.856 607.415 76.218 608.465 75.154C609.529 74.076 610.061 73.061 610.061 72.109C610.061 71.423 609.809 70.898 609.305 70.534C608.815 70.156 608.22 69.967 607.52 69.967C605.98 69.967 604.72 70.527 603.74 71.647L602.312 70.03C602.914 69.302 603.67 68.749 604.58 68.371C605.504 67.979 606.47 67.783 607.478 67.783C608.906 67.783 610.11 68.168 611.09 68.938C612.07 69.708 612.56 70.765 612.56 72.109C612.56 73.313 612.056 74.51 611.048 75.7C610.04 76.89 608.5 78.269 606.428 79.837H612.644V82ZM622.928 81.622C622.186 82.042 621.346 82.252 620.408 82.252C619.47 82.252 618.63 82.042 617.888 81.622C617.146 81.202 616.558 80.642 616.124 79.942C615.69 79.242 615.361 78.472 615.137 77.632C614.913 76.792 614.801 75.917 614.801 75.007C614.801 74.097 614.913 73.222 615.137 72.382C615.361 71.542 615.69 70.779 616.124 70.093C616.558 69.393 617.146 68.833 617.888 68.413C618.63 67.993 619.47 67.783 620.408 67.783C621.346 67.783 622.186 67.993 622.928 68.413C623.67 68.833 624.258 69.393 624.692 70.093C625.126 70.779 625.455 71.542 625.679 72.382C625.903 73.222 626.015 74.097 626.015 75.007C626.015 75.917 625.903 76.792 625.679 77.632C625.455 78.472 625.126 79.242 624.692 79.942C624.258 80.642 623.67 81.202 622.928 81.622ZM618.056 78.64C618.56 79.592 619.344 80.068 620.408 80.068C621.472 80.068 622.256 79.592 622.76 78.64C623.264 77.688 623.516 76.477 623.516 75.007C623.516 74.069 623.418 73.236 623.222 72.508C623.04 71.78 622.704 71.178 622.214 70.702C621.738 70.212 621.136 69.967 620.408 69.967C619.68 69.967 619.071 70.212 618.581 70.702C618.105 71.178 617.769 71.78 617.573 72.508C617.391 73.236 617.3 74.069 617.3 75.007C617.3 76.477 617.552 77.688 618.056 78.64ZM630.934 74.734C629.912 74.734 629.079 74.412 628.435 73.768C627.791 73.11 627.469 72.284 627.469 71.29C627.469 70.282 627.791 69.449 628.435 68.791C629.079 68.119 629.912 67.783 630.934 67.783C631.97 67.783 632.81 68.119 633.454 68.791C634.112 69.449 634.441 70.282 634.441 71.29C634.441 72.284 634.112 73.11 633.454 73.768C632.81 74.412 631.97 74.734 630.934 74.734ZM630.976 82H629.59L638.536 67.993H639.943L630.976 82ZM640.972 81.286C640.328 81.93 639.495 82.252 638.473 82.252C637.451 82.252 636.618 81.93 635.974 81.286C635.33 80.628 635.008 79.802 635.008 78.808C635.008 77.8 635.33 76.967 635.974 76.309C636.618 75.637 637.451 75.301 638.473 75.301C639.495 75.301 640.328 75.637 640.972 76.309C641.63 76.981 641.959 77.814 641.959 78.808C641.959 79.802 641.63 80.628 640.972 81.286ZM630.934 73.348C631.48 73.348 631.928 73.159 632.278 72.781C632.628 72.389 632.803 71.892 632.803 71.29C632.803 70.66 632.628 70.156 632.278 69.778C631.928 69.386 631.48 69.19 630.934 69.19C630.388 69.19 629.94 69.386 629.59 69.778C629.254 70.156 629.086 70.66 629.086 71.29C629.086 71.892 629.261 72.389 629.611 72.781C629.961 73.159 630.402 73.348 630.934 73.348ZM637.129 80.299C637.479 80.677 637.927 80.866 638.473 80.866C639.019 80.866 639.467 80.677 639.817 80.299C640.167 79.907 640.342 79.41 640.342 78.808C640.342 78.178 640.167 77.674 639.817 77.296C639.467 76.904 639.019 76.708 638.473 76.708C637.927 76.708 637.479 76.904 637.129 77.296C636.793 77.674 636.625 78.178 636.625 78.808C636.625 79.41 636.793 79.907 637.129 80.299Z" fill="white"/>
<path d="M567.318 297H557.175V295.068C560.101 292.856 562.089 291.218 563.139 290.154C564.203 289.076 564.735 288.061 564.735 287.109C564.735 286.423 564.483 285.898 563.979 285.534C563.489 285.156 562.894 284.967 562.194 284.967C560.654 284.967 559.394 285.527 558.414 286.647L556.986 285.03C557.588 284.302 558.344 283.749 559.254 283.371C560.178 282.979 561.144 282.783 562.152 282.783C563.58 282.783 564.784 283.168 565.764 283.938C566.744 284.708 567.234 285.765 567.234 287.109C567.234 288.313 566.73 289.51 565.722 290.7C564.714 291.89 563.174 293.269 561.102 294.837H567.318V297ZM574.999 297.252C572.745 297.252 571.009 296.531 569.791 295.089L571.198 293.409C572.178 294.515 573.438 295.068 574.978 295.068C575.846 295.068 576.539 294.837 577.057 294.375C577.589 293.899 577.855 293.311 577.855 292.611C577.855 291.855 577.596 291.253 577.078 290.805C576.574 290.343 575.895 290.112 575.041 290.112C573.851 290.112 572.829 290.518 571.975 291.33L570.232 290.826V282.993H579.409V285.156H572.689V289.209C573.501 288.397 574.558 287.991 575.86 287.991C577.092 287.991 578.142 288.404 579.01 289.23C579.892 290.042 580.333 291.134 580.333 292.506C580.333 293.948 579.836 295.103 578.842 295.971C577.862 296.825 576.581 297.252 574.999 297.252ZM585.26 289.734C584.238 289.734 583.405 289.412 582.761 288.768C582.117 288.11 581.795 287.284 581.795 286.29C581.795 285.282 582.117 284.449 582.761 283.791C583.405 283.119 584.238 282.783 585.26 282.783C586.296 282.783 587.136 283.119 587.78 283.791C588.438 284.449 588.767 285.282 588.767 286.29C588.767 287.284 588.438 288.11 587.78 288.768C587.136 289.412 586.296 289.734 585.26 289.734ZM585.302 297H583.916L592.862 282.993H594.269L585.302 297ZM595.298 296.286C594.654 296.93 593.821 297.252 592.799 297.252C591.777 297.252 590.944 296.93 590.3 296.286C589.656 295.628 589.334 294.802 589.334 293.808C589.334 292.8 589.656 291.967 590.3 291.309C590.944 290.637 591.777 290.301 592.799 290.301C593.821 290.301 594.654 290.637 595.298 291.309C595.956 291.981 596.285 292.814 596.285 293.808C596.285 294.802 595.956 295.628 595.298 296.286ZM585.26 288.348C585.806 288.348 586.254 288.159 586.604 287.781C586.954 287.389 587.129 286.892 587.129 286.29C587.129 285.66 586.954 285.156 586.604 284.778C586.254 284.386 585.806 284.19 585.26 284.19C584.714 284.19 584.266 284.386 583.916 284.778C583.58 285.156 583.412 285.66 583.412 286.29C583.412 286.892 583.587 287.389 583.937 287.781C584.287 288.159 584.728 288.348 585.26 288.348ZM591.455 295.299C591.805 295.677 592.253 295.866 592.799 295.866C593.345 295.866 593.793 295.677 594.143 295.299C594.493 294.907 594.668 294.41 594.668 293.808C594.668 293.178 594.493 292.674 594.143 292.296C593.793 291.904 593.345 291.708 592.799 291.708C592.253 291.708 591.805 291.904 591.455 292.296C591.119 292.674 590.951 293.178 590.951 293.808C590.951 294.41 591.119 294.907 591.455 295.299Z" fill="black"/>
<path d="M841.137 337.252C839.947 337.252 838.89 337.042 837.966 336.622C837.056 336.202 836.349 335.656 835.845 334.984L837.168 333.367C837.616 333.885 838.19 334.298 838.89 334.606C839.59 334.914 840.311 335.068 841.053 335.068C841.963 335.068 842.677 334.879 843.195 334.501C843.713 334.109 843.972 333.584 843.972 332.926C843.972 331.61 842.936 330.952 840.864 330.952C839.926 330.952 839.387 330.959 839.247 330.973V328.768C839.415 328.782 839.954 328.789 840.864 328.789C841.732 328.789 842.425 328.635 842.943 328.327C843.475 328.019 843.741 327.557 843.741 326.941C843.741 326.311 843.475 325.828 842.943 325.492C842.411 325.142 841.732 324.967 840.906 324.967C839.534 324.967 838.33 325.485 837.294 326.521L836.034 324.988C837.28 323.518 838.981 322.783 841.137 322.783C842.663 322.783 843.888 323.126 844.812 323.812C845.736 324.484 846.198 325.401 846.198 326.563C846.198 327.431 845.89 328.152 845.274 328.726C844.672 329.286 843.965 329.636 843.153 329.776C843.951 329.846 844.693 330.182 845.379 330.784C846.065 331.386 846.408 332.184 846.408 333.178C846.408 334.382 845.925 335.362 844.959 336.118C844.007 336.874 842.733 337.252 841.137 337.252ZM853.783 337.252C851.529 337.252 849.793 336.531 848.575 335.089L849.982 333.409C850.962 334.515 852.222 335.068 853.762 335.068C854.63 335.068 855.323 334.837 855.841 334.375C856.373 333.899 856.639 333.311 856.639 332.611C856.639 331.855 856.38 331.253 855.862 330.805C855.358 330.343 854.679 330.112 853.825 330.112C852.635 330.112 851.613 330.518 850.759 331.33L849.016 330.826V322.993H858.193V325.156H851.473V329.209C852.285 328.397 853.342 327.991 854.644 327.991C855.876 327.991 856.926 328.404 857.794 329.23C858.676 330.042 859.117 331.134 859.117 332.506C859.117 333.948 858.62 335.103 857.626 335.971C856.646 336.825 855.365 337.252 853.783 337.252ZM864.044 329.734C863.022 329.734 862.189 329.412 861.545 328.768C860.901 328.11 860.579 327.284 860.579 326.29C860.579 325.282 860.901 324.449 861.545 323.791C862.189 323.119 863.022 322.783 864.044 322.783C865.08 322.783 865.92 323.119 866.564 323.791C867.222 324.449 867.551 325.282 867.551 326.29C867.551 327.284 867.222 328.11 866.564 328.768C865.92 329.412 865.08 329.734 864.044 329.734ZM864.086 337H862.7L871.646 322.993H873.053L864.086 337ZM874.082 336.286C873.438 336.93 872.605 337.252 871.583 337.252C870.561 337.252 869.728 336.93 869.084 336.286C868.44 335.628 868.118 334.802 868.118 333.808C868.118 332.8 868.44 331.967 869.084 331.309C869.728 330.637 870.561 330.301 871.583 330.301C872.605 330.301 873.438 330.637 874.082 331.309C874.74 331.981 875.069 332.814 875.069 333.808C875.069 334.802 874.74 335.628 874.082 336.286ZM864.044 328.348C864.59 328.348 865.038 328.159 865.388 327.781C865.738 327.389 865.913 326.892 865.913 326.29C865.913 325.66 865.738 325.156 865.388 324.778C865.038 324.386 864.59 324.19 864.044 324.19C863.498 324.19 863.05 324.386 862.7 324.778C862.364 325.156 862.196 325.66 862.196 326.29C862.196 326.892 862.371 327.389 862.721 327.781C863.071 328.159 863.512 328.348 864.044 328.348ZM870.239 335.299C870.589 335.677 871.037 335.866 871.583 335.866C872.129 335.866 872.577 335.677 872.927 335.299C873.277 334.907 873.452 334.41 873.452 333.808C873.452 333.178 873.277 332.674 872.927 332.296C872.577 331.904 872.129 331.708 871.583 331.708C871.037 331.708 870.589 331.904 870.239 332.296C869.903 332.674 869.735 333.178 869.735 333.808C869.735 334.41 869.903 334.907 870.239 335.299Z" fill="white"/>
<rect y="520" width="940" height="60" rx="11.2" fill="#1C2233"/>
<circle cx="95.1969" cy="549.95" r="8.4" fill="#03967B"/>
<path d="M115.086 543.778H117.214L120.446 552.418L123.678 543.778H125.806L121.614 554.45H119.278L115.086 543.778ZM125.491 550.578C125.491 549.832 125.656 549.154 125.987 548.546C126.328 547.928 126.797 547.437 127.395 547.074C127.992 546.712 128.664 546.53 129.411 546.53C130.168 546.53 130.835 546.712 131.411 547.074C131.987 547.437 132.429 547.938 132.739 548.578C133.059 549.208 133.219 549.928 133.219 550.738V551.138H127.251C127.315 551.746 127.565 552.253 128.003 552.658C128.44 553.064 129.011 553.266 129.715 553.266C130.109 553.266 130.504 553.192 130.899 553.042C131.304 552.893 131.64 552.685 131.907 552.418L132.675 553.522C132.291 553.885 131.827 554.162 131.283 554.354C130.739 554.546 130.157 554.642 129.539 554.642C128.771 554.642 128.077 554.477 127.459 554.146C126.851 553.805 126.371 553.325 126.019 552.706C125.667 552.088 125.491 551.378 125.491 550.578ZM129.411 547.906C128.749 547.906 128.232 548.114 127.859 548.53C127.485 548.936 127.277 549.41 127.235 549.954H131.587C131.576 549.624 131.491 549.304 131.331 548.994C131.171 548.674 130.931 548.413 130.611 548.21C130.291 548.008 129.891 547.906 129.411 547.906ZM140.093 549.618C140.093 549.042 139.96 548.632 139.693 548.386C139.426 548.141 139.042 548.018 138.541 548.018C138.136 548.018 137.757 548.12 137.405 548.322C137.053 548.525 136.77 548.77 136.557 549.058V554.45H134.877V546.722H136.557V547.778C136.845 547.437 137.229 547.144 137.709 546.898C138.189 546.653 138.712 546.53 139.277 546.53C140.098 546.53 140.717 546.744 141.133 547.17C141.56 547.597 141.773 548.21 141.773 549.01V554.45H140.093V549.618ZM149.171 553.426C148.862 553.778 148.467 554.072 147.987 554.306C147.518 554.53 147.001 554.642 146.435 554.642C145.614 554.642 144.995 554.434 144.579 554.018C144.163 553.602 143.955 552.994 143.955 552.194V546.722H145.635V551.586C145.635 552.152 145.769 552.557 146.035 552.802C146.302 553.037 146.686 553.154 147.187 553.154C147.593 553.154 147.971 553.058 148.323 552.866C148.675 552.674 148.958 552.434 149.171 552.146V546.722H150.851V554.45H149.171V553.426ZM153.129 552.226C153.417 552.525 153.807 552.781 154.297 552.994C154.788 553.208 155.273 553.314 155.753 553.314C156.244 553.314 156.617 553.234 156.873 553.074C157.14 552.904 157.273 552.669 157.273 552.37C157.273 552.061 157.124 551.832 156.825 551.682C156.527 551.522 156.089 551.378 155.513 551.25C154.905 551.122 154.404 550.989 154.009 550.85C153.625 550.701 153.295 550.472 153.017 550.162C152.74 549.842 152.601 549.416 152.601 548.882C152.601 548.456 152.719 548.066 152.953 547.714C153.199 547.352 153.551 547.064 154.009 546.85C154.468 546.637 155.012 546.53 155.641 546.53C156.825 546.53 157.828 546.893 158.649 547.618L157.945 548.802C157.7 548.525 157.375 548.301 156.969 548.13C156.564 547.96 156.127 547.874 155.657 547.874C155.209 547.874 154.857 547.954 154.601 548.114C154.345 548.264 154.217 548.472 154.217 548.738C154.217 549.005 154.356 549.208 154.633 549.346C154.911 549.485 155.332 549.618 155.897 549.746C156.505 549.874 157.012 550.018 157.417 550.178C157.823 550.328 158.169 550.568 158.457 550.898C158.745 551.229 158.889 551.677 158.889 552.242C158.889 552.946 158.607 553.522 158.041 553.97C157.476 554.418 156.687 554.642 155.673 554.642C155.012 554.642 154.393 554.541 153.817 554.338C153.241 554.125 152.756 553.826 152.361 553.442L153.129 552.226ZM164.69 557.394V546.722H166.37V547.778C166.658 547.384 167.015 547.08 167.442 546.866C167.879 546.642 168.348 546.53 168.85 546.53C169.522 546.53 170.114 546.696 170.626 547.026C171.148 547.346 171.554 547.81 171.842 548.418C172.13 549.026 172.274 549.746 172.274 550.578C172.274 551.41 172.13 552.136 171.842 552.754C171.554 553.362 171.148 553.832 170.626 554.162C170.114 554.482 169.522 554.642 168.85 554.642C168.359 554.642 167.9 554.536 167.474 554.322C167.047 554.109 166.679 553.794 166.37 553.378V557.394H164.69ZM170.53 550.578C170.53 549.821 170.332 549.208 169.938 548.738C169.543 548.258 169.015 548.018 168.354 548.018C167.97 548.018 167.591 548.12 167.218 548.322C166.844 548.525 166.562 548.77 166.37 549.058V552.114C166.562 552.402 166.844 552.648 167.218 552.85C167.591 553.053 167.97 553.154 168.354 553.154C169.015 553.154 169.543 552.914 169.938 552.434C170.332 551.954 170.53 551.336 170.53 550.578ZM173.971 546.722H175.651V547.858C175.949 547.474 176.323 547.16 176.771 546.914C177.219 546.669 177.683 546.546 178.163 546.546V548.21C178.013 548.178 177.837 548.162 177.635 548.162C177.283 548.162 176.904 548.269 176.499 548.482C176.104 548.685 175.821 548.92 175.651 549.186V554.45H173.971V546.722ZM180.35 545.442C180.072 545.442 179.827 545.341 179.614 545.138C179.411 544.936 179.31 544.69 179.31 544.402C179.31 544.114 179.411 543.869 179.614 543.666C179.827 543.464 180.072 543.362 180.35 543.362C180.638 543.362 180.883 543.464 181.086 543.666C181.288 543.869 181.39 544.114 181.39 544.402C181.39 544.69 181.288 544.936 181.086 545.138C180.883 545.341 180.638 545.442 180.35 545.442ZM179.518 546.722H181.198V554.45H179.518V546.722ZM192.849 549.41C192.849 548.973 192.742 548.632 192.529 548.386C192.326 548.141 192.012 548.018 191.585 548.018C191.233 548.018 190.892 548.12 190.561 548.322C190.23 548.525 189.974 548.765 189.793 549.042V554.45H188.113V549.41C188.113 548.973 188.006 548.632 187.793 548.386C187.59 548.141 187.27 548.018 186.833 548.018C186.492 548.018 186.156 548.12 185.825 548.322C185.505 548.525 185.249 548.77 185.057 549.058V554.45H183.377V546.722H185.057V547.778C185.249 547.49 185.58 547.213 186.049 546.946C186.529 546.669 187.036 546.53 187.569 546.53C188.124 546.53 188.582 546.658 188.945 546.914C189.308 547.17 189.553 547.517 189.681 547.954C189.926 547.57 190.289 547.24 190.769 546.962C191.249 546.674 191.761 546.53 192.305 546.53C193.03 546.53 193.58 546.728 193.953 547.122C194.337 547.506 194.529 548.088 194.529 548.866V554.45H192.849V549.41ZM196.225 550.578C196.225 549.832 196.391 549.154 196.721 548.546C197.063 547.928 197.532 547.437 198.129 547.074C198.727 546.712 199.399 546.53 200.145 546.53C200.903 546.53 201.569 546.712 202.145 547.074C202.721 547.437 203.164 547.938 203.473 548.578C203.793 549.208 203.953 549.928 203.953 550.738V551.138H197.985C198.049 551.746 198.3 552.253 198.737 552.658C199.175 553.064 199.745 553.266 200.449 553.266C200.844 553.266 201.239 553.192 201.633 553.042C202.039 552.893 202.375 552.685 202.641 552.418L203.409 553.522C203.025 553.885 202.561 554.162 202.017 554.354C201.473 554.546 200.892 554.642 200.273 554.642C199.505 554.642 198.812 554.477 198.193 554.146C197.585 553.805 197.105 553.325 196.753 552.706C196.401 552.088 196.225 551.378 196.225 550.578ZM200.145 547.906C199.484 547.906 198.967 548.114 198.593 548.53C198.22 548.936 198.012 549.41 197.969 549.954H202.321C202.311 549.624 202.225 549.304 202.065 548.994C201.905 548.674 201.665 548.413 201.345 548.21C201.025 548.008 200.625 547.906 200.145 547.906Z" fill="white"/>
<circle cx="269.197" cy="550.45" r="8.4" fill="#AA0185"/>
<path d="M300.131 555.45H297.779L294.638 551.065L291.496 555.45H289.144L293.344 549.705L289.396 544.245H291.748L294.638 548.361L297.511 544.245H299.879L295.948 549.688L300.131 555.45ZM307.072 555.45H304.619L300.218 544.245H302.452L305.846 553.317L309.239 544.245H311.474L307.072 555.45ZM316.528 555.652C314.601 555.652 313.084 555.058 311.975 553.871L313.067 552.359C314.03 553.389 315.212 553.905 316.612 553.905C317.362 553.905 317.922 553.753 318.292 553.451C318.673 553.149 318.863 552.79 318.863 552.376C318.863 551.95 318.639 551.614 318.191 551.368C317.743 551.11 317.2 550.909 316.561 550.763C315.923 550.617 315.279 550.444 314.629 550.242C313.991 550.041 313.448 549.699 313 549.217C312.552 548.736 312.328 548.114 312.328 547.353C312.328 546.412 312.703 545.633 313.453 545.017C314.215 544.39 315.201 544.077 316.41 544.077C318.135 544.077 319.535 544.597 320.61 545.639L319.485 547.101C318.633 546.249 317.553 545.824 316.242 545.824C315.66 545.824 315.195 545.953 314.848 546.21C314.512 546.457 314.344 546.793 314.344 547.218C314.344 547.498 314.461 547.733 314.697 547.924C314.943 548.114 315.257 548.271 315.637 548.394C316.018 548.506 316.438 548.618 316.897 548.73C317.368 548.842 317.833 548.982 318.292 549.15C318.762 549.307 319.188 549.503 319.569 549.738C319.949 549.973 320.257 550.298 320.493 550.713C320.739 551.127 320.862 551.62 320.862 552.191C320.862 553.199 320.498 554.028 319.77 554.677C319.042 555.327 317.961 555.652 316.528 555.652ZM328.701 553.014C328.891 553.317 329.183 553.574 329.575 553.787C329.978 553.989 330.381 554.089 330.784 554.089C331.479 554.089 332.033 553.843 332.447 553.35C332.873 552.846 333.086 552.197 333.086 551.401C333.086 550.606 332.873 549.957 332.447 549.453C332.033 548.949 331.479 548.697 330.784 548.697C330.381 548.697 329.983 548.803 329.591 549.016C329.199 549.229 328.903 549.492 328.701 549.805V553.014ZM328.701 555.45H326.937V544.245H328.701V548.461C329.362 547.577 330.23 547.134 331.305 547.134C332.358 547.134 333.22 547.526 333.892 548.31C334.564 549.083 334.9 550.113 334.9 551.401C334.9 552.712 334.564 553.748 333.892 554.509C333.22 555.271 332.358 555.652 331.305 555.652C330.241 555.652 329.373 555.215 328.701 554.341V555.45ZM343.939 555.45H342.175V554.375C341.414 555.226 340.456 555.652 339.303 555.652C337.567 555.652 336.699 554.795 336.699 553.081V547.336H338.463V552.443C338.463 553.037 338.603 553.462 338.883 553.72C339.163 553.966 339.566 554.089 340.092 554.089C340.518 554.089 340.915 553.989 341.285 553.787C341.655 553.585 341.951 553.333 342.175 553.031V547.336H343.939V555.45ZM345.878 558.625L346.147 557.046C346.348 557.136 346.572 557.181 346.819 557.181C347.39 557.181 347.776 556.945 347.978 556.475L348.381 555.551L345.055 547.336H346.936L349.305 553.417L351.674 547.336H353.572L349.658 556.912C349.176 558.11 348.247 558.721 346.869 558.743C346.499 558.743 346.169 558.704 345.878 558.625ZM356.444 553.014C356.634 553.317 356.926 553.574 357.318 553.787C357.721 553.989 358.124 554.089 358.527 554.089C359.222 554.089 359.776 553.843 360.19 553.35C360.616 552.846 360.829 552.197 360.829 551.401C360.829 550.606 360.616 549.957 360.19 549.453C359.776 548.949 359.222 548.697 358.527 548.697C358.124 548.697 357.726 548.803 357.334 549.016C356.942 549.229 356.646 549.492 356.444 549.805V553.014ZM356.444 555.45H354.68V544.245H356.444V548.461C357.105 547.577 357.973 547.134 359.048 547.134C360.101 547.134 360.963 547.526 361.635 548.31C362.307 549.083 362.643 550.113 362.643 551.401C362.643 552.712 362.307 553.748 361.635 554.509C360.963 555.271 360.101 555.652 359.048 555.652C357.984 555.652 357.116 555.215 356.444 554.341V555.45ZM371.162 555.45H369.398V554.577C368.77 555.293 367.897 555.652 366.777 555.652C366.038 555.652 365.382 555.417 364.811 554.946C364.24 554.465 363.954 553.804 363.954 552.964C363.954 552.101 364.234 551.446 364.794 550.998C365.366 550.55 366.026 550.326 366.777 550.326C367.93 550.326 368.804 550.673 369.398 551.368V550.158C369.398 549.688 369.224 549.318 368.877 549.049C368.53 548.781 368.07 548.646 367.499 548.646C366.592 548.646 365.791 548.988 365.097 549.671L364.374 548.445C365.293 547.571 366.43 547.134 367.785 547.134C368.782 547.134 369.594 547.369 370.221 547.84C370.848 548.31 371.162 549.055 371.162 550.074V555.45ZM367.466 554.442C368.35 554.442 368.994 554.162 369.398 553.602V552.376C368.994 551.816 368.35 551.536 367.466 551.536C366.962 551.536 366.547 551.67 366.222 551.939C365.898 552.208 365.735 552.561 365.735 552.997C365.735 553.434 365.898 553.787 366.222 554.056C366.547 554.313 366.962 554.442 367.466 554.442ZM377.145 555.652C375.913 555.652 374.905 555.254 374.121 554.459C373.337 553.653 372.945 552.628 372.945 551.385C372.945 550.153 373.337 549.139 374.121 548.344C374.905 547.537 375.913 547.134 377.145 547.134C378.5 547.134 379.536 547.616 380.253 548.579L379.093 549.654C378.645 549.016 378.024 548.697 377.229 548.697C376.489 548.697 375.896 548.949 375.448 549.453C375 549.945 374.776 550.589 374.776 551.385C374.776 552.18 375 552.829 375.448 553.333C375.896 553.837 376.489 554.089 377.229 554.089C378.001 554.089 378.623 553.77 379.093 553.132L380.253 554.207C379.536 555.17 378.5 555.652 377.145 555.652ZM389.393 555.45H387.175L384.689 552.107L383.563 553.266V555.45H381.799V544.245H383.563V551.25L387.142 547.336H389.326L385.949 551.015L389.393 555.45Z" fill="white"/>
<circle cx="454.197" cy="550.45" r="8.4" fill="#3A78FF"/>
<path d="M479.954 555.45H477.988V545.975H474.595V544.245H483.347V545.975H479.954V555.45ZM485.463 555.45H483.699V547.336H485.463V548.529C485.777 548.125 486.169 547.795 486.639 547.537C487.11 547.28 487.597 547.151 488.101 547.151V548.898C487.944 548.865 487.759 548.848 487.547 548.848C487.177 548.848 486.779 548.96 486.354 549.184C485.939 549.397 485.643 549.643 485.463 549.923V555.45ZM493.27 555.652C492.038 555.652 491.019 555.26 490.212 554.476C489.417 553.681 489.02 552.65 489.02 551.385C489.02 550.197 489.406 549.195 490.179 548.377C490.963 547.549 491.948 547.134 493.136 547.134C494.334 547.134 495.297 547.549 496.025 548.377C496.764 549.206 497.134 550.265 497.134 551.553V551.973H490.868C490.935 552.611 491.198 553.143 491.657 553.569C492.116 553.994 492.716 554.207 493.455 554.207C493.869 554.207 494.284 554.129 494.698 553.972C495.124 553.815 495.476 553.597 495.756 553.317L496.563 554.476C495.745 555.26 494.648 555.652 493.27 555.652ZM495.42 550.729C495.398 550.169 495.191 549.671 494.799 549.234C494.418 548.797 493.864 548.579 493.136 548.579C492.441 548.579 491.898 548.797 491.506 549.234C491.114 549.66 490.896 550.158 490.851 550.729H495.42ZM505.595 555.45H503.831V554.577C503.204 555.293 502.33 555.652 501.21 555.652C500.471 555.652 499.816 555.417 499.245 554.946C498.674 554.465 498.388 553.804 498.388 552.964C498.388 552.101 498.668 551.446 499.228 550.998C499.799 550.55 500.46 550.326 501.21 550.326C502.364 550.326 503.238 550.673 503.831 551.368V550.158C503.831 549.688 503.658 549.318 503.31 549.049C502.963 548.781 502.504 548.646 501.933 548.646C501.026 548.646 500.225 548.988 499.53 549.671L498.808 548.445C499.726 547.571 500.863 547.134 502.218 547.134C503.215 547.134 504.027 547.369 504.654 547.84C505.282 548.31 505.595 549.055 505.595 550.074V555.45ZM501.899 554.442C502.784 554.442 503.428 554.162 503.831 553.602V552.376C503.428 551.816 502.784 551.536 501.899 551.536C501.395 551.536 500.981 551.67 500.656 551.939C500.331 552.208 500.169 552.561 500.169 552.997C500.169 553.434 500.331 553.787 500.656 554.056C500.981 554.313 501.395 554.442 501.899 554.442ZM510.654 555.652C509.198 555.652 508.039 555.232 507.177 554.392L507.983 553.115C508.285 553.429 508.694 553.697 509.209 553.921C509.725 554.145 510.234 554.257 510.738 554.257C511.253 554.257 511.645 554.157 511.914 553.955C512.194 553.753 512.334 553.49 512.334 553.165C512.334 552.874 512.166 552.65 511.83 552.493C511.494 552.325 511.085 552.197 510.604 552.107C510.122 552.006 509.641 551.889 509.159 551.754C508.677 551.609 508.269 551.357 507.933 550.998C507.597 550.64 507.429 550.175 507.429 549.604C507.429 548.909 507.714 548.327 508.285 547.857C508.857 547.375 509.635 547.134 510.621 547.134C511.864 547.134 512.917 547.515 513.779 548.277L513.04 549.52C512.782 549.229 512.441 548.993 512.015 548.814C511.589 548.635 511.13 548.545 510.637 548.545C510.178 548.545 509.809 548.641 509.529 548.831C509.26 549.01 509.125 549.245 509.125 549.537C509.125 549.761 509.243 549.945 509.478 550.091C509.725 550.225 510.027 550.326 510.385 550.393C510.755 550.461 511.153 550.556 511.578 550.679C512.004 550.791 512.396 550.925 512.754 551.082C513.124 551.239 513.426 551.497 513.661 551.855C513.908 552.202 514.031 552.628 514.031 553.132C514.031 553.871 513.734 554.476 513.141 554.946C512.547 555.417 511.718 555.652 510.654 555.652ZM523.047 555.45H521.283V554.375C520.522 555.226 519.564 555.652 518.41 555.652C516.674 555.652 515.806 554.795 515.806 553.081V547.336H517.57V552.443C517.57 553.037 517.71 553.462 517.99 553.72C518.27 553.966 518.674 554.089 519.2 554.089C519.626 554.089 520.023 553.989 520.393 553.787C520.762 553.585 521.059 553.333 521.283 553.031V547.336H523.047V555.45ZM527.102 555.45H525.338V547.336H527.102V548.529C527.416 548.125 527.808 547.795 528.278 547.537C528.749 547.28 529.236 547.151 529.74 547.151V548.898C529.583 548.865 529.398 548.848 529.186 548.848C528.816 548.848 528.418 548.96 527.993 549.184C527.578 549.397 527.282 549.643 527.102 549.923V555.45ZM530.81 558.625L531.079 557.046C531.28 557.136 531.504 557.181 531.751 557.181C532.322 557.181 532.708 556.945 532.91 556.475L533.313 555.551L529.987 547.336H531.868L534.237 553.417L536.606 547.336H538.504L534.59 556.912C534.108 558.11 533.179 558.721 531.801 558.743C531.432 558.743 531.101 558.704 530.81 558.625Z" fill="white"/>
<circle cx="603.197" cy="550.45" r="8.4" fill="#414D6A"/>
<path d="M632.687 555.45H630.419L627.933 551.267H625.984V555.45H624.018V544.245H628.941C630.038 544.245 630.923 544.569 631.595 545.219C632.267 545.869 632.603 546.714 632.603 547.756C632.603 548.697 632.345 549.453 631.83 550.024C631.315 550.584 630.688 550.925 629.949 551.049L632.687 555.45ZM628.672 549.537C629.232 549.537 629.691 549.374 630.049 549.049C630.408 548.725 630.587 548.293 630.587 547.756C630.587 547.218 630.408 546.787 630.049 546.462C629.691 546.137 629.232 545.975 628.672 545.975H625.984V549.537H628.672ZM635.391 546.345C635.099 546.345 634.842 546.238 634.618 546.025C634.405 545.813 634.299 545.555 634.299 545.253C634.299 544.95 634.405 544.693 634.618 544.48C634.842 544.267 635.099 544.161 635.391 544.161C635.693 544.161 635.951 544.267 636.163 544.48C636.376 544.693 636.483 544.95 636.483 545.253C636.483 545.555 636.376 545.813 636.163 546.025C635.951 546.238 635.693 546.345 635.391 546.345ZM636.281 555.45H634.517V547.336H636.281V555.45ZM641.341 555.652C639.885 555.652 638.726 555.232 637.864 554.392L638.67 553.115C638.973 553.429 639.381 553.697 639.897 553.921C640.412 554.145 640.921 554.257 641.425 554.257C641.941 554.257 642.333 554.157 642.601 553.955C642.881 553.753 643.021 553.49 643.021 553.165C643.021 552.874 642.853 552.65 642.517 552.493C642.181 552.325 641.773 552.197 641.291 552.107C640.809 552.006 640.328 551.889 639.846 551.754C639.365 551.609 638.956 551.357 638.62 550.998C638.284 550.64 638.116 550.175 638.116 549.604C638.116 548.909 638.401 548.327 638.973 547.857C639.544 547.375 640.322 547.134 641.308 547.134C642.551 547.134 643.604 547.515 644.466 548.277L643.727 549.52C643.469 549.229 643.128 548.993 642.702 548.814C642.277 548.635 641.817 548.545 641.325 548.545C640.865 548.545 640.496 548.641 640.216 548.831C639.947 549.01 639.813 549.245 639.813 549.537C639.813 549.761 639.93 549.945 640.165 550.091C640.412 550.225 640.714 550.326 641.073 550.393C641.442 550.461 641.84 550.556 642.265 550.679C642.691 550.791 643.083 550.925 643.441 551.082C643.811 551.239 644.113 551.497 644.349 551.855C644.595 552.202 644.718 552.628 644.718 553.132C644.718 553.871 644.421 554.476 643.828 554.946C643.234 555.417 642.405 555.652 641.341 555.652ZM654.087 555.45H651.87L649.383 552.107L648.258 553.266V555.45H646.494V544.245H648.258V551.25L651.836 547.336H654.02L650.643 551.015L654.087 555.45ZM661.667 555.45H659.702V544.245H667.379V545.975H661.667V548.881H667.262V550.612H661.667V555.45ZM676.326 555.45H674.562V554.375C673.8 555.226 672.843 555.652 671.689 555.652C669.953 555.652 669.085 554.795 669.085 553.081V547.336H670.849V552.443C670.849 553.037 670.989 553.462 671.269 553.72C671.549 553.966 671.952 554.089 672.479 554.089C672.904 554.089 673.302 553.989 673.671 553.787C674.041 553.585 674.338 553.333 674.562 553.031V547.336H676.326V555.45ZM685.858 555.45H684.094V550.377C684.094 549.257 683.551 548.697 682.464 548.697C682.039 548.697 681.641 548.803 681.271 549.016C680.902 549.229 680.605 549.486 680.381 549.789V555.45H678.617V547.336H680.381V548.445C680.683 548.086 681.087 547.778 681.591 547.521C682.095 547.263 682.643 547.134 683.237 547.134C684.099 547.134 684.749 547.358 685.186 547.806C685.634 548.254 685.858 548.898 685.858 549.738V555.45ZM695.625 555.45H693.861V554.341C693.189 555.215 692.321 555.652 691.257 555.652C690.193 555.652 689.325 555.271 688.653 554.509C687.981 553.748 687.645 552.712 687.645 551.401C687.645 550.102 687.981 549.066 688.653 548.293C689.325 547.521 690.193 547.134 691.257 547.134C692.321 547.134 693.189 547.577 693.861 548.461V544.245H695.625V555.45ZM691.761 554.089C692.175 554.089 692.579 553.989 692.971 553.787C693.363 553.585 693.659 553.328 693.861 553.014V549.789C693.659 549.475 693.363 549.217 692.971 549.016C692.579 548.803 692.175 548.697 691.761 548.697C691.067 548.697 690.512 548.949 690.098 549.453C689.683 549.957 689.476 550.606 689.476 551.401C689.476 552.197 689.683 552.846 690.098 553.35C690.512 553.843 691.067 554.089 691.761 554.089Z" fill="white"/>
<circle cx="761.197" cy="550.45" r="8.4" fill="#F5B242"/>
<path d="M787.729 555.45H782.068V544.245H787.578C788.575 544.245 789.353 544.519 789.913 545.068C790.485 545.605 790.77 546.283 790.77 547.101C790.77 547.773 790.58 548.344 790.199 548.814C789.829 549.273 789.37 549.559 788.821 549.671C789.426 549.761 789.936 550.074 790.35 550.612C790.776 551.138 790.989 551.743 790.989 552.426C790.989 553.322 790.697 554.05 790.115 554.61C789.544 555.17 788.749 555.45 787.729 555.45ZM787.175 548.881C787.668 548.881 788.054 548.747 788.334 548.478C788.614 548.209 788.754 547.862 788.754 547.437C788.754 547 788.614 546.647 788.334 546.378C788.054 546.109 787.668 545.975 787.175 545.975H784.033V548.881H787.175ZM787.259 553.72C787.797 553.72 788.217 553.585 788.519 553.317C788.821 553.037 788.973 552.65 788.973 552.157C788.973 551.721 788.821 551.357 788.519 551.065C788.217 550.763 787.797 550.612 787.259 550.612H784.033V553.72H787.259ZM802.672 555.45H800.774L794.927 547.453V555.45H792.962V544.245H794.978L800.706 552.023V544.245H802.672V555.45ZM810.715 555.45H805.053V544.245H810.563C811.56 544.245 812.339 544.519 812.899 545.068C813.47 545.605 813.755 546.283 813.755 547.101C813.755 547.773 813.565 548.344 813.184 548.814C812.815 549.273 812.355 549.559 811.807 549.671C812.411 549.761 812.921 550.074 813.335 550.612C813.761 551.138 813.974 551.743 813.974 552.426C813.974 553.322 813.683 554.05 813.1 554.61C812.529 555.17 811.734 555.45 810.715 555.45ZM810.16 548.881C810.653 548.881 811.039 548.747 811.319 548.478C811.599 548.209 811.739 547.862 811.739 547.437C811.739 547 811.599 546.647 811.319 546.378C811.039 546.109 810.653 545.975 810.16 545.975H807.019V548.881H810.16ZM810.244 553.72C810.782 553.72 811.202 553.585 811.504 553.317C811.807 553.037 811.958 552.65 811.958 552.157C811.958 551.721 811.807 551.357 811.504 551.065C811.202 550.763 810.782 550.612 810.244 550.612H807.019V553.72H810.244ZM821.975 553.014C822.166 553.317 822.457 553.574 822.849 553.787C823.252 553.989 823.655 554.089 824.058 554.089C824.753 554.089 825.307 553.843 825.722 553.35C826.147 552.846 826.36 552.197 826.36 551.401C826.36 550.606 826.147 549.957 825.722 549.453C825.307 548.949 824.753 548.697 824.058 548.697C823.655 548.697 823.258 548.803 822.866 549.016C822.474 549.229 822.177 549.492 821.975 549.805V553.014ZM821.975 555.45H820.211V544.245H821.975V548.461C822.636 547.577 823.504 547.134 824.579 547.134C825.632 547.134 826.494 547.526 827.166 548.31C827.838 549.083 828.174 550.113 828.174 551.401C828.174 552.712 827.838 553.748 827.166 554.509C826.494 555.271 825.632 555.652 824.579 555.652C823.515 555.652 822.647 555.215 821.975 554.341V555.45ZM837.214 555.45H835.45V554.375C834.688 555.226 833.73 555.652 832.577 555.652C830.841 555.652 829.973 554.795 829.973 553.081V547.336H831.737V552.443C831.737 553.037 831.877 553.462 832.157 553.72C832.437 553.966 832.84 554.089 833.366 554.089C833.792 554.089 834.19 553.989 834.559 553.787C834.929 553.585 835.226 553.333 835.45 553.031V547.336H837.214V555.45ZM841.269 555.45H839.505V547.336H841.269V548.529C841.582 548.125 841.974 547.795 842.445 547.537C842.915 547.28 843.402 547.151 843.906 547.151V548.898C843.75 548.865 843.565 548.848 843.352 548.848C842.982 548.848 842.585 548.96 842.159 549.184C841.745 549.397 841.448 549.643 841.269 549.923V555.45ZM852.57 555.45H850.806V550.377C850.806 549.257 850.263 548.697 849.176 548.697C848.751 548.697 848.353 548.803 847.984 549.016C847.614 549.229 847.317 549.486 847.093 549.789V555.45H845.329V547.336H847.093V548.445C847.396 548.086 847.799 547.778 848.303 547.521C848.807 547.263 849.356 547.134 849.949 547.134C850.812 547.134 851.461 547.358 851.898 547.806C852.346 548.254 852.57 548.898 852.57 549.738V555.45Z" fill="white"/>
</svg>
