<svg width="1397" height="1037" viewBox="0 0 1397 1037" fill="none" xmlns="http://www.w3.org/2000/svg">
<circle cx="701" cy="524" r="318" fill="#1E2431"/>
<path d="M657.4 494H647.41L636.458 475.574H627.874V494H619.216V444.642H640.898C645.733 444.642 649.63 446.073 652.59 448.934C655.55 451.795 657.03 455.52 657.03 460.108C657.03 464.252 655.895 467.582 653.626 470.098C651.357 472.565 648.594 474.069 645.338 474.612L657.4 494ZM639.714 467.952C642.181 467.952 644.203 467.237 645.782 465.806C647.361 464.375 648.15 462.476 648.15 460.108C648.15 457.74 647.361 455.841 645.782 454.41C644.203 452.979 642.181 452.264 639.714 452.264H627.874V467.952H639.714ZM669.309 453.892C668.026 453.892 666.891 453.423 665.905 452.486C664.967 451.549 664.499 450.414 664.499 449.082C664.499 447.75 664.967 446.615 665.905 445.678C666.891 444.741 668.026 444.272 669.309 444.272C670.641 444.272 671.775 444.741 672.713 445.678C673.65 446.615 674.119 447.75 674.119 449.082C674.119 450.414 673.65 451.549 672.713 452.486C671.775 453.423 670.641 453.892 669.309 453.892ZM673.231 494H665.461V458.258H673.231V494ZM695.52 494.888C689.107 494.888 684.001 493.038 680.202 489.338L683.754 483.714C685.086 485.095 686.887 486.279 689.156 487.266C691.426 488.253 693.67 488.746 695.89 488.746C698.16 488.746 699.886 488.302 701.07 487.414C702.304 486.526 702.92 485.367 702.92 483.936C702.92 482.653 702.18 481.667 700.7 480.976C699.22 480.236 697.42 479.669 695.298 479.274C693.177 478.83 691.056 478.312 688.934 477.72C686.813 477.079 685.012 475.969 683.532 474.39C682.052 472.811 681.312 470.764 681.312 468.248C681.312 465.189 682.57 462.624 685.086 460.552C687.602 458.431 691.031 457.37 695.372 457.37C700.848 457.37 705.486 459.047 709.284 462.402L706.028 467.878C704.894 466.595 703.389 465.559 701.514 464.77C699.64 463.981 697.617 463.586 695.446 463.586C693.424 463.586 691.796 464.005 690.562 464.844C689.378 465.633 688.786 466.669 688.786 467.952C688.786 468.939 689.304 469.753 690.34 470.394C691.426 470.986 692.758 471.43 694.336 471.726C695.964 472.022 697.716 472.441 699.59 472.984C701.465 473.477 703.192 474.069 704.77 474.76C706.398 475.451 707.73 476.585 708.766 478.164C709.852 479.693 710.394 481.568 710.394 483.788C710.394 487.044 709.087 489.708 706.472 491.78C703.858 493.852 700.207 494.888 695.52 494.888ZM751.663 494H741.895L730.943 479.274L725.985 484.38V494H718.215V444.642H725.985V475.5L741.747 458.258H751.367L736.493 474.464L751.663 494ZM769.376 494.888C762.962 494.888 757.856 493.038 754.058 489.338L757.61 483.714C758.942 485.095 760.742 486.279 763.012 487.266C765.281 488.253 767.526 488.746 769.746 488.746C772.015 488.746 773.742 488.302 774.926 487.414C776.159 486.526 776.776 485.367 776.776 483.936C776.776 482.653 776.036 481.667 774.556 480.976C773.076 480.236 771.275 479.669 769.154 479.274C767.032 478.83 764.911 478.312 762.79 477.72C760.668 477.079 758.868 475.969 757.388 474.39C755.908 472.811 755.168 470.764 755.168 468.248C755.168 465.189 756.426 462.624 758.942 460.552C761.458 458.431 764.886 457.37 769.228 457.37C774.704 457.37 779.341 459.047 783.14 462.402L779.884 467.878C778.749 466.595 777.244 465.559 775.37 464.77C773.495 463.981 771.472 463.586 769.302 463.586C767.279 463.586 765.651 464.005 764.418 464.844C763.234 465.633 762.642 466.669 762.642 467.952C762.642 468.939 763.16 469.753 764.196 470.394C765.281 470.986 766.613 471.43 768.192 471.726C769.82 472.022 771.571 472.441 773.446 472.984C775.32 473.477 777.047 474.069 778.626 474.76C780.254 475.451 781.586 476.585 782.622 478.164C783.707 479.693 784.25 481.568 784.25 483.788C784.25 487.044 782.942 489.708 780.328 491.78C777.713 493.852 774.062 494.888 769.376 494.888ZM579.459 590H569.321C568.235 589.063 566.78 587.632 564.955 585.708C560.86 589.161 556.247 590.888 551.117 590.888C546.479 590.888 542.656 589.679 539.647 587.262C536.687 584.795 535.207 581.317 535.207 576.828C535.207 573.375 536.144 570.563 538.019 568.392C539.943 566.172 542.582 564.174 545.937 562.398C543.618 558.254 542.459 554.653 542.459 551.594C542.459 548.239 543.717 545.452 546.233 543.232C548.798 541.012 552.005 539.902 555.853 539.902C559.355 539.902 562.266 540.815 564.585 542.64C566.903 544.465 568.063 546.932 568.063 550.04C568.063 551.816 567.742 553.419 567.101 554.85C566.459 556.281 565.448 557.563 564.067 558.698C562.735 559.783 561.477 560.671 560.293 561.362C559.158 562.003 557.629 562.793 555.705 563.73C557.135 565.703 558.763 567.726 560.589 569.798C562.414 572.018 564.042 573.917 565.473 575.496C567.643 572.092 569.271 568.663 570.357 565.21L576.721 568.096C574.402 573.177 572.108 577.247 569.839 580.306C572.552 583.217 575.759 586.448 579.459 590ZM552.079 584.672C555.039 584.672 557.875 583.513 560.589 581.194C557.481 577.839 555.458 575.57 554.521 574.386C552.449 571.87 550.623 569.502 549.045 567.282C545.345 569.699 543.495 572.659 543.495 576.162C543.495 578.777 544.333 580.849 546.011 582.378C547.688 583.907 549.711 584.672 552.079 584.672ZM550.303 551.742C550.303 553.863 551.117 556.355 552.745 559.216C555.507 557.933 557.604 556.626 559.035 555.294C560.465 553.962 561.181 552.334 561.181 550.41C561.181 548.93 560.712 547.771 559.775 546.932C558.837 546.093 557.653 545.674 556.223 545.674C554.545 545.674 553.139 546.241 552.005 547.376C550.87 548.511 550.303 549.966 550.303 551.742ZM621.815 590.888C613.33 590.888 606.645 588.273 601.761 583.044L606.571 576.384C610.814 580.923 616.019 583.192 622.185 583.192C625.491 583.192 627.957 582.526 629.585 581.194C631.263 579.862 632.101 578.283 632.101 576.458C632.101 574.583 631.115 573.103 629.141 572.018C627.168 570.883 624.775 569.995 621.963 569.354C619.151 568.713 616.315 567.948 613.453 567.06C610.641 566.172 608.249 564.667 606.275 562.546C604.302 560.425 603.315 557.687 603.315 554.332C603.315 550.188 604.968 546.759 608.273 544.046C611.628 541.283 615.969 539.902 621.297 539.902C628.895 539.902 635.061 542.196 639.797 546.784L634.839 553.222C631.09 549.473 626.329 547.598 620.557 547.598C617.992 547.598 615.945 548.165 614.415 549.3C612.935 550.385 612.195 551.865 612.195 553.74C612.195 554.973 612.713 556.009 613.749 556.848C614.835 557.687 616.216 558.377 617.893 558.92C619.571 559.413 621.421 559.907 623.443 560.4C625.515 560.893 627.563 561.51 629.585 562.25C631.657 562.941 633.532 563.804 635.209 564.84C636.887 565.876 638.243 567.307 639.279 569.132C640.365 570.957 640.907 573.128 640.907 575.644C640.907 580.084 639.304 583.735 636.097 586.596C632.891 589.457 628.13 590.888 621.815 590.888ZM665.161 590.888C659.734 590.888 655.245 589.161 651.693 585.708C648.19 582.205 646.439 577.667 646.439 572.092C646.439 566.863 648.141 562.447 651.545 558.846C654.998 555.195 659.34 553.37 664.569 553.37C669.848 553.37 674.09 555.195 677.297 558.846C680.553 562.497 682.181 567.159 682.181 572.832V574.682H654.579C654.875 577.494 656.034 579.837 658.057 581.712C660.08 583.587 662.719 584.524 665.975 584.524C667.8 584.524 669.626 584.179 671.451 583.488C673.326 582.797 674.88 581.835 676.113 580.602L679.665 585.708C676.064 589.161 671.229 590.888 665.161 590.888ZM674.633 569.206C674.534 566.739 673.622 564.544 671.895 562.62C670.218 560.696 667.776 559.734 664.569 559.734C661.51 559.734 659.118 560.696 657.391 562.62C655.664 564.495 654.702 566.69 654.505 569.206H674.633ZM706.13 590.888C700.704 590.888 696.264 589.137 692.81 585.634C689.357 582.082 687.63 577.568 687.63 572.092C687.63 566.665 689.357 562.201 692.81 558.698C696.264 555.146 700.704 553.37 706.13 553.37C712.1 553.37 716.663 555.491 719.82 559.734L714.714 564.47C712.741 561.658 710.003 560.252 706.5 560.252C703.244 560.252 700.63 561.362 698.656 563.582C696.683 565.753 695.696 568.589 695.696 572.092C695.696 575.595 696.683 578.456 698.656 580.676C700.63 582.896 703.244 584.006 706.5 584.006C709.904 584.006 712.642 582.6 714.714 579.788L719.82 584.524C716.663 588.767 712.1 590.888 706.13 590.888ZM758.528 590H750.758V585.264C747.403 589.013 743.185 590.888 738.104 590.888C730.457 590.888 726.634 587.114 726.634 579.566V554.258H734.404V576.754C734.404 579.369 735.02 581.243 736.254 582.378C737.487 583.463 739.263 584.006 741.582 584.006C743.456 584.006 745.208 583.562 746.836 582.674C748.464 581.786 749.771 580.676 750.758 579.344V554.258H758.528V590ZM776.39 590H768.62V554.258H776.39V559.512C777.771 557.736 779.498 556.281 781.57 555.146C783.642 554.011 785.788 553.444 788.008 553.444V561.14C787.317 560.992 786.503 560.918 785.566 560.918C783.938 560.918 782.187 561.411 780.312 562.398C778.487 563.335 777.179 564.421 776.39 565.654V590ZM798.122 549.892C796.84 549.892 795.705 549.423 794.718 548.486C793.781 547.549 793.312 546.414 793.312 545.082C793.312 543.75 793.781 542.615 794.718 541.678C795.705 540.741 796.84 540.272 798.122 540.272C799.454 540.272 800.589 540.741 801.526 541.678C802.464 542.615 802.932 543.75 802.932 545.082C802.932 546.414 802.464 547.549 801.526 548.486C800.589 549.423 799.454 549.892 798.122 549.892ZM802.044 590H794.274V554.258H802.044V590ZM822.854 590.888C819.844 590.888 817.55 590.099 815.972 588.52C814.442 586.941 813.678 584.672 813.678 581.712V561.066H807.758V554.258H813.678V544.49H821.448V554.258H828.7V561.066H821.448V579.788C821.448 581.071 821.744 582.107 822.336 582.896C822.928 583.636 823.766 584.006 824.852 584.006C826.43 584.006 827.59 583.587 828.33 582.748L830.18 588.594C828.552 590.123 826.11 590.888 822.854 590.888ZM834.201 603.986L835.385 597.03C836.273 597.425 837.259 597.622 838.345 597.622C840.861 597.622 842.563 596.586 843.451 594.514L845.227 590.444L830.575 554.258H838.863L849.297 581.046L859.731 554.258H868.093L850.851 596.438C848.729 601.717 844.635 604.405 838.567 604.504C836.939 604.504 835.483 604.331 834.201 603.986Z" fill="white"/>
<path d="M643.266 41H638.118V11.652H651.01C653.973 11.652 656.305 12.532 658.006 14.292C659.737 16.052 660.602 18.2373 660.602 20.848C660.602 23.4293 659.737 25.6147 658.006 27.404C656.305 29.164 653.973 30.044 651.01 30.044H643.266V41ZM650.306 25.512C651.773 25.512 652.975 25.0867 653.914 24.236C654.853 23.3853 655.322 22.256 655.322 20.848C655.322 19.44 654.853 18.3107 653.914 17.46C652.975 16.6093 651.773 16.184 650.306 16.184H643.266V25.512H650.306ZM681.496 41H676.876V38.712C675.234 40.5893 672.946 41.528 670.012 41.528C668.076 41.528 666.36 40.912 664.864 39.68C663.368 38.4187 662.62 36.688 662.62 34.488C662.62 32.2293 663.354 30.5133 664.82 29.34C666.316 28.1667 668.047 27.58 670.012 27.58C673.034 27.58 675.322 28.4893 676.876 30.308V27.14C676.876 25.908 676.422 24.94 675.512 24.236C674.603 23.532 673.4 23.18 671.904 23.18C669.528 23.18 667.431 24.0747 665.612 25.864L663.72 22.652C666.126 20.364 669.103 19.22 672.652 19.22C675.263 19.22 677.39 19.836 679.032 21.068C680.675 22.3 681.496 24.2507 681.496 26.92V41ZM671.816 38.36C674.134 38.36 675.82 37.6267 676.876 36.16V32.948C675.82 31.4813 674.134 30.748 671.816 30.748C670.496 30.748 669.411 31.1 668.56 31.804C667.71 32.508 667.284 33.432 667.284 34.576C667.284 35.72 667.71 36.644 668.56 37.348C669.411 38.0227 670.496 38.36 671.816 38.36ZM706.45 41H701.83V38.184C699.835 40.4133 697.327 41.528 694.306 41.528C689.759 41.528 687.486 39.284 687.486 34.796V19.748H692.106V33.124C692.106 34.6787 692.473 35.7933 693.206 36.468C693.939 37.1133 694.995 37.436 696.374 37.436C697.489 37.436 698.53 37.172 699.498 36.644C700.466 36.116 701.243 35.456 701.83 34.664V19.748H706.45V41ZM719.711 41.528C715.898 41.528 712.862 40.428 710.603 38.228L712.715 34.884C713.507 35.7053 714.578 36.4093 715.927 36.996C717.276 37.5827 718.611 37.876 719.931 37.876C721.28 37.876 722.307 37.612 723.011 37.084C723.744 36.556 724.111 35.8667 724.111 35.016C724.111 34.2533 723.671 33.6667 722.791 33.256C721.911 32.816 720.84 32.4787 719.579 32.244C718.318 31.98 717.056 31.672 715.795 31.32C714.534 30.9387 713.463 30.2787 712.583 29.34C711.703 28.4013 711.263 27.184 711.263 25.688C711.263 23.8693 712.011 22.344 713.507 21.112C715.003 19.8507 717.042 19.22 719.623 19.22C722.879 19.22 725.636 20.2173 727.895 22.212L725.959 25.468C725.284 24.7053 724.39 24.0893 723.275 23.62C722.16 23.1507 720.958 22.916 719.667 22.916C718.464 22.916 717.496 23.1653 716.763 23.664C716.059 24.1333 715.707 24.7493 715.707 25.512C715.707 26.0987 716.015 26.5827 716.631 26.964C717.276 27.316 718.068 27.58 719.007 27.756C719.975 27.932 721.016 28.1813 722.131 28.504C723.246 28.7973 724.272 29.1493 725.211 29.56C726.179 29.9707 726.971 30.6453 727.587 31.584C728.232 32.4933 728.555 33.608 728.555 34.928C728.555 36.864 727.778 38.448 726.223 39.68C724.668 40.912 722.498 41.528 719.711 41.528ZM743.017 41.528C739.79 41.528 737.121 40.5013 735.009 38.448C732.926 36.3653 731.885 33.6667 731.885 30.352C731.885 27.2427 732.897 24.6173 734.921 22.476C736.974 20.3053 739.556 19.22 742.665 19.22C745.804 19.22 748.326 20.3053 750.233 22.476C752.169 24.6467 753.137 27.4187 753.137 30.792V31.892H736.725C736.901 33.564 737.59 34.9573 738.793 36.072C739.996 37.1867 741.565 37.744 743.501 37.744C744.586 37.744 745.672 37.5387 746.757 37.128C747.872 36.7173 748.796 36.1453 749.529 35.412L751.641 38.448C749.5 40.5013 746.625 41.528 743.017 41.528ZM748.649 28.636C748.59 27.1693 748.048 25.864 747.021 24.72C746.024 23.576 744.572 23.004 742.665 23.004C740.846 23.004 739.424 23.576 738.397 24.72C737.37 25.8347 736.798 27.14 736.681 28.636H748.649ZM605.076 95H600.456V92.712C598.814 94.5893 596.526 95.528 593.592 95.528C591.656 95.528 589.94 94.912 588.444 93.68C586.948 92.4187 586.2 90.688 586.2 88.488C586.2 86.2293 586.934 84.5133 588.4 83.34C589.896 82.1667 591.627 81.58 593.592 81.58C596.614 81.58 598.902 82.4893 600.456 84.308V81.14C600.456 79.908 600.002 78.94 599.092 78.236C598.183 77.532 596.98 77.18 595.484 77.18C593.108 77.18 591.011 78.0747 589.192 79.864L587.3 76.652C589.706 74.364 592.683 73.22 596.232 73.22C598.843 73.22 600.97 73.836 602.612 75.068C604.255 76.3 605.076 78.2507 605.076 80.92V95ZM595.396 92.36C597.714 92.36 599.4 91.6267 600.456 90.16V86.948C599.4 85.4813 597.714 84.748 595.396 84.748C594.076 84.748 592.991 85.1 592.14 85.804C591.29 86.508 590.864 87.432 590.864 88.576C590.864 89.72 591.29 90.644 592.14 91.348C592.991 92.0227 594.076 92.36 595.396 92.36ZM630.03 95H625.41V81.712C625.41 78.7787 623.988 77.312 621.142 77.312C620.028 77.312 618.986 77.5907 618.018 78.148C617.05 78.7053 616.273 79.38 615.686 80.172V95H611.066V73.748H615.686V76.652C616.478 75.7133 617.534 74.9067 618.854 74.232C620.174 73.5573 621.612 73.22 623.166 73.22C625.425 73.22 627.126 73.8067 628.27 74.98C629.444 76.1533 630.03 77.84 630.03 80.04V95ZM655.611 95H650.991V92.096C649.231 94.384 646.958 95.528 644.171 95.528C641.384 95.528 639.111 94.5307 637.351 92.536C635.591 90.5413 634.711 87.828 634.711 84.396C634.711 80.9933 635.591 78.28 637.351 76.256C639.111 74.232 641.384 73.22 644.171 73.22C646.958 73.22 649.231 74.3787 650.991 76.696V65.652H655.611V95ZM645.491 91.436C646.576 91.436 647.632 91.172 648.659 90.644C649.686 90.116 650.463 89.4413 650.991 88.62V80.172C650.463 79.3507 649.686 78.676 648.659 78.148C647.632 77.5907 646.576 77.312 645.491 77.312C643.672 77.312 642.22 77.972 641.135 79.292C640.05 80.612 639.507 82.3133 639.507 84.396C639.507 86.4787 640.05 88.18 641.135 89.5C642.22 90.7907 643.672 91.436 645.491 91.436ZM677.518 95H672.898V73.748H677.518V76.872C678.34 75.816 679.366 74.9507 680.598 74.276C681.83 73.6013 683.106 73.264 684.426 73.264V77.84C684.016 77.752 683.532 77.708 682.974 77.708C682.006 77.708 680.965 78.0013 679.85 78.588C678.765 79.1453 677.988 79.7907 677.518 80.524V95ZM697.964 95.528C694.737 95.528 692.068 94.5013 689.956 92.448C687.873 90.3653 686.832 87.6667 686.832 84.352C686.832 81.2427 687.844 78.6173 689.868 76.476C691.921 74.3053 694.503 73.22 697.612 73.22C700.751 73.22 703.273 74.3053 705.18 76.476C707.116 78.6467 708.084 81.4187 708.084 84.792V85.892H691.672C691.848 87.564 692.537 88.9573 693.74 90.072C694.943 91.1867 696.512 91.744 698.448 91.744C699.533 91.744 700.619 91.5387 701.704 91.128C702.819 90.7173 703.743 90.1453 704.476 89.412L706.588 92.448C704.447 94.5013 701.572 95.528 697.964 95.528ZM703.596 82.636C703.537 81.1693 702.995 79.864 701.968 78.72C700.971 77.576 699.519 77.004 697.612 77.004C695.793 77.004 694.371 77.576 693.344 78.72C692.317 79.8347 691.745 81.14 691.628 82.636H703.596ZM719.904 95.528C716.091 95.528 713.055 94.428 710.796 92.228L712.908 88.884C713.7 89.7053 714.771 90.4093 716.12 90.996C717.47 91.5827 718.804 91.876 720.124 91.876C721.474 91.876 722.5 91.612 723.204 91.084C723.938 90.556 724.304 89.8667 724.304 89.016C724.304 88.2533 723.864 87.6667 722.984 87.256C722.104 86.816 721.034 86.4787 719.772 86.244C718.511 85.98 717.25 85.672 715.988 85.32C714.727 84.9387 713.656 84.2787 712.776 83.34C711.896 82.4013 711.456 81.184 711.456 79.688C711.456 77.8693 712.204 76.344 713.7 75.112C715.196 73.8507 717.235 73.22 719.816 73.22C723.072 73.22 725.83 74.2173 728.088 76.212L726.152 79.468C725.478 78.7053 724.583 78.0893 723.468 77.62C722.354 77.1507 721.151 76.916 719.86 76.916C718.658 76.916 717.69 77.1653 716.956 77.664C716.252 78.1333 715.9 78.7493 715.9 79.512C715.9 80.0987 716.208 80.5827 716.824 80.964C717.47 81.316 718.262 81.58 719.2 81.756C720.168 81.932 721.21 82.1813 722.324 82.504C723.439 82.7973 724.466 83.1493 725.404 83.56C726.372 83.9707 727.164 84.6453 727.78 85.584C728.426 86.4933 728.748 87.608 728.748 88.928C728.748 90.864 727.971 92.448 726.416 93.68C724.862 94.912 722.691 95.528 719.904 95.528ZM752.362 95H747.742V92.184C745.748 94.4133 743.24 95.528 740.218 95.528C735.672 95.528 733.398 93.284 733.398 88.796V73.748H738.018V87.124C738.018 88.6787 738.385 89.7933 739.118 90.468C739.852 91.1133 740.908 91.436 742.286 91.436C743.401 91.436 744.442 91.172 745.41 90.644C746.378 90.116 747.156 89.456 747.742 88.664V73.748H752.362V95ZM789.031 95H784.411V81.14C784.411 78.588 783.252 77.312 780.935 77.312C779.967 77.312 779.028 77.5907 778.119 78.148C777.21 78.7053 776.506 79.3653 776.007 80.128V95H771.387V81.14C771.387 78.588 770.214 77.312 767.867 77.312C766.928 77.312 766.004 77.5907 765.095 78.148C764.215 78.7053 763.511 79.38 762.983 80.172V95H758.363V73.748H762.983V76.652C763.511 75.86 764.42 75.0973 765.711 74.364C767.031 73.6013 768.424 73.22 769.891 73.22C772.971 73.22 774.907 74.5253 775.699 77.136C776.374 76.08 777.371 75.1707 778.691 74.408C780.011 73.616 781.419 73.22 782.915 73.22C786.992 73.22 789.031 75.3613 789.031 79.644V95ZM804.827 95.528C801.601 95.528 798.931 94.5013 796.819 92.448C794.737 90.3653 793.695 87.6667 793.695 84.352C793.695 81.2427 794.707 78.6173 796.731 76.476C798.785 74.3053 801.366 73.22 804.475 73.22C807.614 73.22 810.137 74.3053 812.043 76.476C813.979 78.6467 814.947 81.4187 814.947 84.792V85.892H798.535C798.711 87.564 799.401 88.9573 800.603 90.072C801.806 91.1867 803.375 91.744 805.311 91.744C806.397 91.744 807.482 91.5387 808.567 91.128C809.682 90.7173 810.606 90.1453 811.339 89.412L813.451 92.448C811.31 94.5013 808.435 95.528 804.827 95.528ZM810.459 82.636C810.401 81.1693 809.858 79.864 808.831 78.72C807.834 77.576 806.382 77.004 804.475 77.004C802.657 77.004 801.234 77.576 800.207 78.72C799.181 79.8347 798.609 81.14 798.491 82.636H810.459Z" fill="white"/>
<path d="M1093.21 351H1075.12V321.652H1080.27V346.468H1093.21V351ZM1100.01 327.152C1099.25 327.152 1098.57 326.873 1097.99 326.316C1097.43 325.759 1097.15 325.084 1097.15 324.292C1097.15 323.5 1097.43 322.825 1097.99 322.268C1098.57 321.711 1099.25 321.432 1100.01 321.432C1100.8 321.432 1101.48 321.711 1102.03 322.268C1102.59 322.825 1102.87 323.5 1102.87 324.292C1102.87 325.084 1102.59 325.759 1102.03 326.316C1101.48 326.873 1100.8 327.152 1100.01 327.152ZM1102.34 351H1097.72V329.748H1102.34V351ZM1139 351H1134.38V337.14C1134.38 334.588 1133.23 333.312 1130.91 333.312C1129.94 333.312 1129 333.591 1128.09 334.148C1127.18 334.705 1126.48 335.365 1125.98 336.128V351H1121.36V337.14C1121.36 334.588 1120.19 333.312 1117.84 333.312C1116.9 333.312 1115.98 333.591 1115.07 334.148C1114.19 334.705 1113.48 335.38 1112.96 336.172V351H1108.34V329.748H1112.96V332.652C1113.48 331.86 1114.39 331.097 1115.68 330.364C1117 329.601 1118.4 329.22 1119.86 329.22C1122.94 329.22 1124.88 330.525 1125.67 333.136C1126.35 332.08 1127.34 331.171 1128.66 330.408C1129.98 329.616 1131.39 329.22 1132.89 329.22C1136.97 329.22 1139 331.361 1139 335.644V351ZM1147.28 327.152C1146.51 327.152 1145.84 326.873 1145.25 326.316C1144.69 325.759 1144.42 325.084 1144.42 324.292C1144.42 323.5 1144.69 322.825 1145.25 322.268C1145.84 321.711 1146.51 321.432 1147.28 321.432C1148.07 321.432 1148.74 321.711 1149.3 322.268C1149.86 322.825 1150.14 323.5 1150.14 324.292C1150.14 325.084 1149.86 325.759 1149.3 326.316C1148.74 326.873 1148.07 327.152 1147.28 327.152ZM1149.61 351H1144.99V329.748H1149.61V351ZM1161.98 351.528C1160.19 351.528 1158.83 351.059 1157.89 350.12C1156.98 349.181 1156.53 347.832 1156.53 346.072V333.796H1153.01V329.748H1156.53V323.94H1161.15V329.748H1165.46V333.796H1161.15V344.928C1161.15 345.691 1161.32 346.307 1161.67 346.776C1162.03 347.216 1162.52 347.436 1163.17 347.436C1164.11 347.436 1164.8 347.187 1165.24 346.688L1166.34 350.164C1165.37 351.073 1163.92 351.528 1161.98 351.528ZM1190.54 351.528C1187.26 351.528 1184.62 350.457 1182.62 348.316C1180.63 346.145 1179.63 343.491 1179.63 340.352C1179.63 337.213 1180.63 334.573 1182.62 332.432C1184.62 330.291 1187.26 329.22 1190.54 329.22C1193.86 329.22 1196.51 330.291 1198.51 332.432C1200.5 334.573 1201.5 337.213 1201.5 340.352C1201.5 343.52 1200.5 346.175 1198.51 348.316C1196.51 350.457 1193.86 351.528 1190.54 351.528ZM1190.54 347.436C1192.45 347.436 1193.95 346.761 1195.03 345.412C1196.15 344.033 1196.7 342.347 1196.7 340.352C1196.7 338.387 1196.15 336.729 1195.03 335.38C1193.95 334.001 1192.45 333.312 1190.54 333.312C1188.67 333.312 1187.17 334.001 1186.06 335.38C1184.97 336.729 1184.43 338.387 1184.43 340.352C1184.43 342.347 1184.97 344.033 1186.06 345.412C1187.17 346.761 1188.67 347.436 1190.54 347.436ZM1225.14 351H1220.52V337.712C1220.52 334.779 1219.1 333.312 1216.25 333.312C1215.14 333.312 1214.1 333.591 1213.13 334.148C1212.16 334.705 1211.38 335.38 1210.8 336.172V351H1206.18V329.748H1210.8V332.652C1211.59 331.713 1212.64 330.907 1213.96 330.232C1215.28 329.557 1216.72 329.22 1218.28 329.22C1220.53 329.22 1222.24 329.807 1223.38 330.98C1224.55 332.153 1225.14 333.84 1225.14 336.04V351ZM1100.91 405H1094.75L1086.52 393.516L1078.29 405H1072.13L1083.13 389.952L1072.79 375.652H1078.95L1086.52 386.432L1094.04 375.652H1100.25L1089.95 389.908L1100.91 405ZM1119.09 405H1112.66L1101.13 375.652H1106.99L1115.87 399.412L1124.76 375.652H1130.61L1119.09 405ZM1143.85 405.528C1138.81 405.528 1134.83 403.973 1131.93 400.864L1134.79 396.904C1137.31 399.603 1140.4 400.952 1144.07 400.952C1146.04 400.952 1147.5 400.556 1148.47 399.764C1149.47 398.972 1149.97 398.033 1149.97 396.948C1149.97 395.833 1149.38 394.953 1148.21 394.308C1147.03 393.633 1145.61 393.105 1143.94 392.724C1142.27 392.343 1140.58 391.888 1138.88 391.36C1137.21 390.832 1135.78 389.937 1134.61 388.676C1133.44 387.415 1132.85 385.787 1132.85 383.792C1132.85 381.328 1133.83 379.289 1135.8 377.676C1137.79 376.033 1140.38 375.212 1143.54 375.212C1148.06 375.212 1151.73 376.576 1154.54 379.304L1151.6 383.132C1149.37 380.903 1146.54 379.788 1143.1 379.788C1141.58 379.788 1140.36 380.125 1139.45 380.8C1138.57 381.445 1138.13 382.325 1138.13 383.44C1138.13 384.173 1138.44 384.789 1139.06 385.288C1139.7 385.787 1140.52 386.197 1141.52 386.52C1142.52 386.813 1143.62 387.107 1144.82 387.4C1146.05 387.693 1147.27 388.06 1148.47 388.5C1149.7 388.911 1150.82 389.424 1151.82 390.04C1152.81 390.656 1153.62 391.507 1154.24 392.592C1154.88 393.677 1155.2 394.968 1155.2 396.464C1155.2 399.104 1154.25 401.275 1152.34 402.976C1150.44 404.677 1147.61 405.528 1143.85 405.528ZM1177.49 405.528C1175.7 405.528 1174.34 405.059 1173.4 404.12C1172.49 403.181 1172.04 401.832 1172.04 400.072V387.796H1168.52V383.748H1172.04V377.94H1176.66V383.748H1180.97V387.796H1176.66V398.928C1176.66 399.691 1176.83 400.307 1177.19 400.776C1177.54 401.216 1178.04 401.436 1178.68 401.436C1179.62 401.436 1180.31 401.187 1180.75 400.688L1181.85 404.164C1180.88 405.073 1179.43 405.528 1177.49 405.528ZM1189.78 405H1185.16V383.748H1189.78V386.872C1190.61 385.816 1191.63 384.951 1192.86 384.276C1194.1 383.601 1195.37 383.264 1196.69 383.264V387.84C1196.28 387.752 1195.8 387.708 1195.24 387.708C1194.27 387.708 1193.23 388.001 1192.12 388.588C1191.03 389.145 1190.25 389.791 1189.78 390.524V405ZM1218.02 405H1213.4V402.712C1211.76 404.589 1209.47 405.528 1206.53 405.528C1204.6 405.528 1202.88 404.912 1201.39 403.68C1199.89 402.419 1199.14 400.688 1199.14 398.488C1199.14 396.229 1199.88 394.513 1201.34 393.34C1202.84 392.167 1204.57 391.58 1206.53 391.58C1209.56 391.58 1211.84 392.489 1213.4 394.308V391.14C1213.4 389.908 1212.94 388.94 1212.03 388.236C1211.12 387.532 1209.92 387.18 1208.43 387.18C1206.05 387.18 1203.95 388.075 1202.13 389.864L1200.24 386.652C1202.65 384.364 1205.62 383.22 1209.17 383.22C1211.78 383.22 1213.91 383.836 1215.55 385.068C1217.2 386.3 1218.02 388.251 1218.02 390.92V405ZM1208.34 402.36C1210.66 402.36 1212.34 401.627 1213.4 400.16V396.948C1212.34 395.481 1210.66 394.748 1208.34 394.748C1207.02 394.748 1205.93 395.1 1205.08 395.804C1204.23 396.508 1203.81 397.432 1203.81 398.576C1203.81 399.72 1204.23 400.644 1205.08 401.348C1205.93 402.023 1207.02 402.36 1208.34 402.36ZM1242.97 405H1238.35V391.712C1238.35 388.779 1236.93 387.312 1234.08 387.312C1232.97 387.312 1231.93 387.591 1230.96 388.148C1229.99 388.705 1229.21 389.38 1228.63 390.172V405H1224.01V383.748H1228.63V386.652C1229.42 385.713 1230.48 384.907 1231.8 384.232C1233.12 383.557 1234.55 383.22 1236.11 383.22C1238.37 383.22 1240.07 383.807 1241.21 384.98C1242.38 386.153 1242.97 387.84 1242.97 390.04V405ZM1256.23 405.528C1252.42 405.528 1249.38 404.428 1247.12 402.228L1249.24 398.884C1250.03 399.705 1251.1 400.409 1252.45 400.996C1253.8 401.583 1255.13 401.876 1256.45 401.876C1257.8 401.876 1258.83 401.612 1259.53 401.084C1260.27 400.556 1260.63 399.867 1260.63 399.016C1260.63 398.253 1260.19 397.667 1259.31 397.256C1258.43 396.816 1257.36 396.479 1256.1 396.244C1254.84 395.98 1253.58 395.672 1252.32 395.32C1251.06 394.939 1249.98 394.279 1249.1 393.34C1248.22 392.401 1247.78 391.184 1247.78 389.688C1247.78 387.869 1248.53 386.344 1250.03 385.112C1251.52 383.851 1253.56 383.22 1256.14 383.22C1259.4 383.22 1262.16 384.217 1264.42 386.212L1262.48 389.468C1261.81 388.705 1260.91 388.089 1259.8 387.62C1258.68 387.151 1257.48 386.916 1256.19 386.916C1254.99 386.916 1254.02 387.165 1253.28 387.664C1252.58 388.133 1252.23 388.749 1252.23 389.512C1252.23 390.099 1252.54 390.583 1253.15 390.964C1253.8 391.316 1254.59 391.58 1255.53 391.756C1256.5 391.932 1257.54 392.181 1258.65 392.504C1259.77 392.797 1260.79 393.149 1261.73 393.56C1262.7 393.971 1263.49 394.645 1264.11 395.584C1264.75 396.493 1265.08 397.608 1265.08 398.928C1265.08 400.864 1264.3 402.448 1262.74 403.68C1261.19 404.912 1259.02 405.528 1256.23 405.528ZM1275.45 405H1270.83V387.796H1267.31V383.748H1270.83V382.56C1270.83 380.272 1271.43 378.483 1272.63 377.192C1273.86 375.872 1275.51 375.212 1277.56 375.212C1279.76 375.212 1281.46 375.828 1282.66 377.06L1280.86 379.92C1280.18 379.304 1279.36 378.996 1278.39 378.996C1277.49 378.996 1276.77 379.304 1276.24 379.92C1275.71 380.507 1275.45 381.387 1275.45 382.56V383.748H1279.76V387.796H1275.45V405ZM1293.07 405.528C1289.85 405.528 1287.18 404.501 1285.07 402.448C1282.98 400.365 1281.94 397.667 1281.94 394.352C1281.94 391.243 1282.95 388.617 1284.98 386.476C1287.03 384.305 1289.61 383.22 1292.72 383.22C1295.86 383.22 1298.38 384.305 1300.29 386.476C1302.23 388.647 1303.19 391.419 1303.19 394.792V395.892H1286.78C1286.96 397.564 1287.65 398.957 1288.85 400.072C1290.05 401.187 1291.62 401.744 1293.56 401.744C1294.64 401.744 1295.73 401.539 1296.81 401.128C1297.93 400.717 1298.85 400.145 1299.59 399.412L1301.7 402.448C1299.56 404.501 1296.68 405.528 1293.07 405.528ZM1298.71 392.636C1298.65 391.169 1298.1 389.864 1297.08 388.72C1296.08 387.576 1294.63 387.004 1292.72 387.004C1290.9 387.004 1289.48 387.576 1288.45 388.72C1287.43 389.835 1286.85 391.14 1286.74 392.636H1298.71ZM1312.37 405H1307.75V383.748H1312.37V386.872C1313.2 385.816 1314.22 384.951 1315.45 384.276C1316.69 383.601 1317.96 383.264 1319.28 383.264V387.84C1318.87 387.752 1318.39 387.708 1317.83 387.708C1316.86 387.708 1315.82 388.001 1314.71 388.588C1313.62 389.145 1312.84 389.791 1312.37 390.524V405ZM1330.27 405.528C1326.45 405.528 1323.42 404.428 1321.16 402.228L1323.27 398.884C1324.06 399.705 1325.13 400.409 1326.48 400.996C1327.83 401.583 1329.17 401.876 1330.49 401.876C1331.84 401.876 1332.86 401.612 1333.57 401.084C1334.3 400.556 1334.67 399.867 1334.67 399.016C1334.67 398.253 1334.23 397.667 1333.35 397.256C1332.47 396.816 1331.4 396.479 1330.14 396.244C1328.87 395.98 1327.61 395.672 1326.35 395.32C1325.09 394.939 1324.02 394.279 1323.14 393.34C1322.26 392.401 1321.82 391.184 1321.82 389.688C1321.82 387.869 1322.57 386.344 1324.06 385.112C1325.56 383.851 1327.6 383.22 1330.18 383.22C1333.44 383.22 1336.19 384.217 1338.45 386.212L1336.52 389.468C1335.84 388.705 1334.95 388.089 1333.83 387.62C1332.72 387.151 1331.51 386.916 1330.22 386.916C1329.02 386.916 1328.05 387.165 1327.32 387.664C1326.62 388.133 1326.26 388.749 1326.26 389.512C1326.26 390.099 1326.57 390.583 1327.19 390.964C1327.83 391.316 1328.62 391.58 1329.56 391.756C1330.53 391.932 1331.57 392.181 1332.69 392.504C1333.8 392.797 1334.83 393.149 1335.77 393.56C1336.74 393.971 1337.53 394.645 1338.14 395.584C1338.79 396.493 1339.11 397.608 1339.11 398.928C1339.11 400.864 1338.33 402.448 1336.78 403.68C1335.22 404.912 1333.05 405.528 1330.27 405.528Z" fill="white"/>
<path d="M1087.27 673H1082.12V648.184H1073.23V643.652H1096.16V648.184H1087.27V673ZM1105.34 673.528C1102.05 673.528 1099.41 672.457 1097.42 670.316C1095.42 668.145 1094.43 665.491 1094.43 662.352C1094.43 659.213 1095.42 656.573 1097.42 654.432C1099.41 652.291 1102.05 651.22 1105.34 651.22C1108.65 651.22 1111.31 652.291 1113.3 654.432C1115.3 656.573 1116.29 659.213 1116.29 662.352C1116.29 665.52 1115.3 668.175 1113.3 670.316C1111.31 672.457 1108.65 673.528 1105.34 673.528ZM1105.34 669.436C1107.24 669.436 1108.74 668.761 1109.83 667.412C1110.94 666.033 1111.5 664.347 1111.5 662.352C1111.5 660.387 1110.94 658.729 1109.83 657.38C1108.74 656.001 1107.24 655.312 1105.34 655.312C1103.46 655.312 1101.96 656.001 1100.85 657.38C1099.76 658.729 1099.22 660.387 1099.22 662.352C1099.22 664.347 1099.76 666.033 1100.85 667.412C1101.96 668.761 1103.46 669.436 1105.34 669.436ZM1140.86 673H1135.05L1128.54 664.244L1125.59 667.28V673H1120.97V643.652H1125.59V662L1134.96 651.748H1140.68L1131.84 661.384L1140.86 673ZM1153.73 673.528C1150.5 673.528 1147.83 672.501 1145.72 670.448C1143.64 668.365 1142.59 665.667 1142.59 662.352C1142.59 659.243 1143.61 656.617 1145.63 654.476C1147.68 652.305 1150.26 651.22 1153.37 651.22C1156.51 651.22 1159.04 652.305 1160.94 654.476C1162.88 656.647 1163.85 659.419 1163.85 662.792V663.892H1147.43C1147.61 665.564 1148.3 666.957 1149.5 668.072C1150.7 669.187 1152.27 669.744 1154.21 669.744C1155.3 669.744 1156.38 669.539 1157.47 669.128C1158.58 668.717 1159.5 668.145 1160.24 667.412L1162.35 670.448C1160.21 672.501 1157.33 673.528 1153.73 673.528ZM1159.36 660.636C1159.3 659.169 1158.76 657.864 1157.73 656.72C1156.73 655.576 1155.28 655.004 1153.37 655.004C1151.56 655.004 1150.13 655.576 1149.11 656.72C1148.08 657.835 1147.51 659.14 1147.39 660.636H1159.36ZM1187.37 673H1182.75V659.712C1182.75 656.779 1181.33 655.312 1178.48 655.312C1177.37 655.312 1176.33 655.591 1175.36 656.148C1174.39 656.705 1173.61 657.38 1173.03 658.172V673H1168.41V651.748H1173.03V654.652C1173.82 653.713 1174.87 652.907 1176.19 652.232C1177.51 651.557 1178.95 651.22 1180.51 651.22C1182.76 651.22 1184.47 651.807 1185.61 652.98C1186.78 654.153 1187.37 655.84 1187.37 658.04V673ZM1214.35 673.528C1211.13 673.528 1208.49 672.487 1206.43 670.404C1204.38 668.292 1203.35 665.608 1203.35 662.352C1203.35 659.125 1204.38 656.471 1206.43 654.388C1208.49 652.276 1211.13 651.22 1214.35 651.22C1217.9 651.22 1220.61 652.481 1222.49 655.004L1219.46 657.82C1218.28 656.148 1216.65 655.312 1214.57 655.312C1212.64 655.312 1211.08 655.972 1209.91 657.292C1208.73 658.583 1208.15 660.269 1208.15 662.352C1208.15 664.435 1208.73 666.136 1209.91 667.456C1211.08 668.776 1212.64 669.436 1214.57 669.436C1216.6 669.436 1218.22 668.6 1219.46 666.928L1222.49 669.744C1220.61 672.267 1217.9 673.528 1214.35 673.528ZM1236.13 673.528C1232.85 673.528 1230.21 672.457 1228.21 670.316C1226.22 668.145 1225.22 665.491 1225.22 662.352C1225.22 659.213 1226.22 656.573 1228.21 654.432C1230.21 652.291 1232.85 651.22 1236.13 651.22C1239.45 651.22 1242.1 652.291 1244.1 654.432C1246.09 656.573 1247.09 659.213 1247.09 662.352C1247.09 665.52 1246.09 668.175 1244.1 670.316C1242.1 672.457 1239.45 673.528 1236.13 673.528ZM1236.13 669.436C1238.04 669.436 1239.54 668.761 1240.62 667.412C1241.74 666.033 1242.29 664.347 1242.29 662.352C1242.29 660.387 1241.74 658.729 1240.62 657.38C1239.54 656.001 1238.04 655.312 1236.13 655.312C1234.26 655.312 1232.76 656.001 1231.65 657.38C1230.56 658.729 1230.02 660.387 1230.02 662.352C1230.02 664.347 1230.56 666.033 1231.65 667.412C1232.76 668.761 1234.26 669.436 1236.13 669.436ZM1270.73 673H1266.11V659.712C1266.11 656.779 1264.69 655.312 1261.84 655.312C1260.73 655.312 1259.69 655.591 1258.72 656.148C1257.75 656.705 1256.97 657.38 1256.39 658.172V673H1251.77V651.748H1256.39V654.652C1257.18 653.713 1258.23 652.907 1259.55 652.232C1260.87 651.557 1262.31 651.22 1263.87 651.22C1266.12 651.22 1267.83 651.807 1268.97 652.98C1270.14 654.153 1270.73 655.84 1270.73 658.04V673ZM1283.11 673.528C1281.32 673.528 1279.96 673.059 1279.02 672.12C1278.11 671.181 1277.65 669.832 1277.65 668.072V655.796H1274.13V651.748H1277.65V645.94H1282.27V651.748H1286.59V655.796H1282.27V666.928C1282.27 667.691 1282.45 668.307 1282.8 668.776C1283.15 669.216 1283.65 669.436 1284.3 669.436C1285.24 669.436 1285.93 669.187 1286.37 668.688L1287.47 672.164C1286.5 673.073 1285.05 673.528 1283.11 673.528ZM1295.4 673H1290.78V651.748H1295.4V654.872C1296.22 653.816 1297.25 652.951 1298.48 652.276C1299.71 651.601 1300.99 651.264 1302.31 651.264V655.84C1301.9 655.752 1301.41 655.708 1300.86 655.708C1299.89 655.708 1298.85 656.001 1297.73 656.588C1296.65 657.145 1295.87 657.791 1295.4 658.524V673ZM1315.63 673.528C1312.34 673.528 1309.7 672.457 1307.71 670.316C1305.71 668.145 1304.71 665.491 1304.71 662.352C1304.71 659.213 1305.71 656.573 1307.71 654.432C1309.7 652.291 1312.34 651.22 1315.63 651.22C1318.94 651.22 1321.6 652.291 1323.59 654.432C1325.59 656.573 1326.58 659.213 1326.58 662.352C1326.58 665.52 1325.59 668.175 1323.59 670.316C1321.6 672.457 1318.94 673.528 1315.63 673.528ZM1315.63 669.436C1317.53 669.436 1319.03 668.761 1320.11 667.412C1321.23 666.033 1321.79 664.347 1321.79 662.352C1321.79 660.387 1321.23 658.729 1320.11 657.38C1319.03 656.001 1317.53 655.312 1315.63 655.312C1313.75 655.312 1312.25 656.001 1311.14 657.38C1310.05 658.729 1309.51 660.387 1309.51 662.352C1309.51 664.347 1310.05 666.033 1311.14 667.412C1312.25 668.761 1313.75 669.436 1315.63 669.436ZM1335.88 673H1331.26V643.652H1335.88V673ZM1346.49 673H1341.87V643.652H1346.49V673ZM1362.3 673.528C1359.07 673.528 1356.4 672.501 1354.29 670.448C1352.21 668.365 1351.16 665.667 1351.16 662.352C1351.16 659.243 1352.18 656.617 1354.2 654.476C1356.25 652.305 1358.83 651.22 1361.94 651.22C1365.08 651.22 1367.61 652.305 1369.51 654.476C1371.45 656.647 1372.42 659.419 1372.42 662.792V663.892H1356C1356.18 665.564 1356.87 666.957 1358.07 668.072C1359.27 669.187 1360.84 669.744 1362.78 669.744C1363.87 669.744 1364.95 669.539 1366.04 669.128C1367.15 668.717 1368.07 668.145 1368.81 667.412L1370.92 670.448C1368.78 672.501 1365.9 673.528 1362.3 673.528ZM1367.93 660.636C1367.87 659.169 1367.33 657.864 1366.3 656.72C1365.3 655.576 1363.85 655.004 1361.94 655.004C1360.13 655.004 1358.7 655.576 1357.68 656.72C1356.65 657.835 1356.08 659.14 1355.96 660.636H1367.93ZM1381.6 673H1376.98V651.748H1381.6V654.872C1382.42 653.816 1383.44 652.951 1384.68 652.276C1385.91 651.601 1387.18 651.264 1388.5 651.264V655.84C1388.09 655.752 1387.61 655.708 1387.05 655.708C1386.08 655.708 1385.04 656.001 1383.93 656.588C1382.84 657.145 1382.07 657.791 1381.6 658.524V673ZM1084.67 727.528C1081.45 727.528 1078.81 726.487 1076.75 724.404C1074.7 722.292 1073.67 719.608 1073.67 716.352C1073.67 713.125 1074.7 710.471 1076.75 708.388C1078.81 706.276 1081.45 705.22 1084.67 705.22C1088.22 705.22 1090.93 706.481 1092.81 709.004L1089.78 711.82C1088.6 710.148 1086.97 709.312 1084.89 709.312C1082.96 709.312 1081.4 709.972 1080.23 711.292C1079.05 712.583 1078.47 714.269 1078.47 716.352C1078.47 718.435 1079.05 720.136 1080.23 721.456C1081.4 722.776 1082.96 723.436 1084.89 723.436C1086.92 723.436 1088.54 722.6 1089.78 720.928L1092.81 723.744C1090.93 726.267 1088.22 727.528 1084.67 727.528ZM1106.46 727.528C1103.17 727.528 1100.53 726.457 1098.54 724.316C1096.54 722.145 1095.54 719.491 1095.54 716.352C1095.54 713.213 1096.54 710.573 1098.54 708.432C1100.53 706.291 1103.17 705.22 1106.46 705.22C1109.77 705.22 1112.42 706.291 1114.42 708.432C1116.41 710.573 1117.41 713.213 1117.41 716.352C1117.41 719.52 1116.41 722.175 1114.42 724.316C1112.42 726.457 1109.77 727.528 1106.46 727.528ZM1106.46 723.436C1108.36 723.436 1109.86 722.761 1110.94 721.412C1112.06 720.033 1112.62 718.347 1112.62 716.352C1112.62 714.387 1112.06 712.729 1110.94 711.38C1109.86 710.001 1108.36 709.312 1106.46 709.312C1104.58 709.312 1103.08 710.001 1101.97 711.38C1100.88 712.729 1100.34 714.387 1100.34 716.352C1100.34 718.347 1100.88 720.033 1101.97 721.412C1103.08 722.761 1104.58 723.436 1106.46 723.436ZM1141.05 727H1136.43V713.712C1136.43 710.779 1135.01 709.312 1132.16 709.312C1131.05 709.312 1130.01 709.591 1129.04 710.148C1128.07 710.705 1127.29 711.38 1126.71 712.172V727H1122.09V705.748H1126.71V708.652C1127.5 707.713 1128.55 706.907 1129.87 706.232C1131.19 705.557 1132.63 705.22 1134.19 705.22C1136.44 705.22 1138.15 705.807 1139.29 706.98C1140.46 708.153 1141.05 709.84 1141.05 712.04V727ZM1153.43 727.528C1151.64 727.528 1150.28 727.059 1149.34 726.12C1148.43 725.181 1147.97 723.832 1147.97 722.072V709.796H1144.45V705.748H1147.97V699.94H1152.59V705.748H1156.91V709.796H1152.59V720.928C1152.59 721.691 1152.77 722.307 1153.12 722.776C1153.47 723.216 1153.97 723.436 1154.62 723.436C1155.56 723.436 1156.25 723.187 1156.69 722.688L1157.79 726.164C1156.82 727.073 1155.37 727.528 1153.43 727.528ZM1165.72 727H1161.1V705.748H1165.72V708.872C1166.54 707.816 1167.57 706.951 1168.8 706.276C1170.03 705.601 1171.31 705.264 1172.63 705.264V709.84C1172.22 709.752 1171.73 709.708 1171.18 709.708C1170.21 709.708 1169.17 710.001 1168.05 710.588C1166.97 711.145 1166.19 711.791 1165.72 712.524V727ZM1193.96 727H1189.34V724.712C1187.69 726.589 1185.4 727.528 1182.47 727.528C1180.54 727.528 1178.82 726.912 1177.32 725.68C1175.83 724.419 1175.08 722.688 1175.08 720.488C1175.08 718.229 1175.81 716.513 1177.28 715.34C1178.78 714.167 1180.51 713.58 1182.47 713.58C1185.49 713.58 1187.78 714.489 1189.34 716.308V713.14C1189.34 711.908 1188.88 710.94 1187.97 710.236C1187.06 709.532 1185.86 709.18 1184.36 709.18C1181.99 709.18 1179.89 710.075 1178.07 711.864L1176.18 708.652C1178.58 706.364 1181.56 705.22 1185.11 705.22C1187.72 705.22 1189.85 705.836 1191.49 707.068C1193.13 708.3 1193.96 710.251 1193.96 712.92V727ZM1184.28 724.36C1186.59 724.36 1188.28 723.627 1189.34 722.16V718.948C1188.28 717.481 1186.59 716.748 1184.28 716.748C1182.96 716.748 1181.87 717.1 1181.02 717.804C1180.17 718.508 1179.74 719.432 1179.74 720.576C1179.74 721.72 1180.17 722.644 1181.02 723.348C1181.87 724.023 1182.96 724.36 1184.28 724.36ZM1209.63 727.528C1206.4 727.528 1203.76 726.487 1201.71 724.404C1199.65 722.292 1198.63 719.608 1198.63 716.352C1198.63 713.125 1199.65 710.471 1201.71 708.388C1203.76 706.276 1206.4 705.22 1209.63 705.22C1213.17 705.22 1215.89 706.481 1217.77 709.004L1214.73 711.82C1213.56 710.148 1211.93 709.312 1209.85 709.312C1207.91 709.312 1206.35 709.972 1205.18 711.292C1204.01 712.583 1203.42 714.269 1203.42 716.352C1203.42 718.435 1204.01 720.136 1205.18 721.456C1206.35 722.776 1207.91 723.436 1209.85 723.436C1211.87 723.436 1213.5 722.6 1214.73 720.928L1217.77 723.744C1215.89 726.267 1213.17 727.528 1209.63 727.528ZM1228.2 727.528C1226.41 727.528 1225.04 727.059 1224.1 726.12C1223.19 725.181 1222.74 723.832 1222.74 722.072V709.796H1219.22V705.748H1222.74V699.94H1227.36V705.748H1231.67V709.796H1227.36V720.928C1227.36 721.691 1227.54 722.307 1227.89 722.776C1228.24 723.216 1228.74 723.436 1229.38 723.436C1230.32 723.436 1231.01 723.187 1231.45 722.688L1232.55 726.164C1231.58 727.073 1230.13 727.528 1228.2 727.528Z" fill="white"/>
<path d="M78.7196 673.528C74.3196 673.528 70.653 672.12 67.7196 669.304C64.7863 666.459 63.3196 662.807 63.3196 658.348C63.3196 653.889 64.7863 650.252 67.7196 647.436C70.653 644.591 74.3196 643.168 78.7196 643.168C83.8236 643.168 87.7543 645.368 90.5116 649.768L86.1116 652.012C85.3783 650.751 84.337 649.724 82.9876 648.932C81.6676 648.14 80.245 647.744 78.7196 647.744C75.8156 647.744 73.3956 648.741 71.4596 650.736C69.553 652.731 68.5996 655.268 68.5996 658.348C68.5996 661.428 69.553 663.965 71.4596 665.96C73.3956 667.955 75.8156 668.952 78.7196 668.952C80.2743 668.952 81.7116 668.556 83.0316 667.764C84.3516 666.972 85.3783 665.945 86.1116 664.684L90.5116 666.928C87.6956 671.328 83.765 673.528 78.7196 673.528ZM112.1 673H107.48V670.712C105.837 672.589 103.549 673.528 100.616 673.528C98.6798 673.528 96.9638 672.912 95.4678 671.68C93.9718 670.419 93.2238 668.688 93.2238 666.488C93.2238 664.229 93.9571 662.513 95.4238 661.34C96.9198 660.167 98.6505 659.58 100.616 659.58C103.637 659.58 105.925 660.489 107.48 662.308V659.14C107.48 657.908 107.025 656.94 106.116 656.236C105.206 655.532 104.004 655.18 102.508 655.18C100.132 655.18 98.0345 656.075 96.2158 657.864L94.3238 654.652C96.7291 652.364 99.7065 651.22 103.256 651.22C105.866 651.22 107.993 651.836 109.636 653.068C111.278 654.3 112.1 656.251 112.1 658.92V673ZM102.42 670.36C104.737 670.36 106.424 669.627 107.48 668.16V664.948C106.424 663.481 104.737 662.748 102.42 662.748C101.1 662.748 100.014 663.1 99.1638 663.804C98.3131 664.508 97.8878 665.432 97.8878 666.576C97.8878 667.72 98.3131 668.644 99.1638 669.348C100.014 670.023 101.1 670.36 102.42 670.36ZM129.53 673.528C126.714 673.528 124.44 672.369 122.71 670.052V681.096H118.09V651.748H122.71V654.652C124.411 652.364 126.684 651.22 129.53 651.22C132.316 651.22 134.575 652.217 136.306 654.212C138.066 656.207 138.946 658.92 138.946 662.352C138.946 665.784 138.066 668.512 136.306 670.536C134.575 672.531 132.316 673.528 129.53 673.528ZM128.166 669.436C129.984 669.436 131.436 668.776 132.522 667.456C133.607 666.136 134.15 664.435 134.15 662.352C134.15 660.269 133.607 658.583 132.522 657.292C131.436 655.972 129.984 655.312 128.166 655.312C127.11 655.312 126.068 655.591 125.042 656.148C124.015 656.705 123.238 657.38 122.71 658.172V666.576C123.238 667.368 124.015 668.043 125.042 668.6C126.068 669.157 127.11 669.436 128.166 669.436ZM164.42 673.528C161.135 673.528 158.495 672.457 156.5 670.316C154.505 668.145 153.508 665.491 153.508 662.352C153.508 659.213 154.505 656.573 156.5 654.432C158.495 652.291 161.135 651.22 164.42 651.22C167.735 651.22 170.389 652.291 172.384 654.432C174.379 656.573 175.376 659.213 175.376 662.352C175.376 665.52 174.379 668.175 172.384 670.316C170.389 672.457 167.735 673.528 164.42 673.528ZM164.42 669.436C166.327 669.436 167.823 668.761 168.908 667.412C170.023 666.033 170.58 664.347 170.58 662.352C170.58 660.387 170.023 658.729 168.908 657.38C167.823 656.001 166.327 655.312 164.42 655.312C162.543 655.312 161.047 656.001 159.932 657.38C158.847 658.729 158.304 660.387 158.304 662.352C158.304 664.347 158.847 666.033 159.932 667.412C161.047 668.761 162.543 669.436 164.42 669.436ZM199.015 673H194.395V659.712C194.395 656.779 192.972 655.312 190.127 655.312C189.012 655.312 187.971 655.591 187.003 656.148C186.035 656.705 185.257 657.38 184.671 658.172V673H180.051V651.748H184.671V654.652C185.463 653.713 186.519 652.907 187.839 652.232C189.159 651.557 190.596 651.22 192.151 651.22C194.409 651.22 196.111 651.807 197.255 652.98C198.428 654.153 199.015 655.84 199.015 658.04V673ZM222.696 673.528C220.907 673.528 219.543 673.059 218.604 672.12C217.695 671.181 217.24 669.832 217.24 668.072V655.796H213.72V651.748H217.24V645.94H221.86V651.748H226.172V655.796H221.86V666.928C221.86 667.691 222.036 668.307 222.388 668.776C222.74 669.216 223.239 669.436 223.884 669.436C224.823 669.436 225.512 669.187 225.952 668.688L227.052 672.164C226.084 673.073 224.632 673.528 222.696 673.528ZM239.959 673.528C236.674 673.528 234.034 672.457 232.039 670.316C230.044 668.145 229.047 665.491 229.047 662.352C229.047 659.213 230.044 656.573 232.039 654.432C234.034 652.291 236.674 651.22 239.959 651.22C243.274 651.22 245.928 652.291 247.923 654.432C249.918 656.573 250.915 659.213 250.915 662.352C250.915 665.52 249.918 668.175 247.923 670.316C245.928 672.457 243.274 673.528 239.959 673.528ZM239.959 669.436C241.866 669.436 243.362 668.761 244.447 667.412C245.562 666.033 246.119 664.347 246.119 662.352C246.119 660.387 245.562 658.729 244.447 657.38C243.362 656.001 241.866 655.312 239.959 655.312C238.082 655.312 236.586 656.001 235.471 657.38C234.386 658.729 233.843 660.387 233.843 662.352C233.843 664.347 234.386 666.033 235.471 667.412C236.586 668.761 238.082 669.436 239.959 669.436ZM275.478 673H269.67L263.158 664.244L260.21 667.28V673H255.59V643.652H260.21V662L269.582 651.748H275.302L266.458 661.384L275.478 673ZM288.347 673.528C285.12 673.528 282.451 672.501 280.339 670.448C278.256 668.365 277.215 665.667 277.215 662.352C277.215 659.243 278.227 656.617 280.251 654.476C282.304 652.305 284.886 651.22 287.995 651.22C291.134 651.22 293.656 652.305 295.563 654.476C297.499 656.647 298.467 659.419 298.467 662.792V663.892H282.055C282.231 665.564 282.92 666.957 284.123 668.072C285.326 669.187 286.895 669.744 288.831 669.744C289.916 669.744 291.002 669.539 292.087 669.128C293.202 668.717 294.126 668.145 294.859 667.412L296.971 670.448C294.83 672.501 291.955 673.528 288.347 673.528ZM293.979 660.636C293.92 659.169 293.378 657.864 292.351 656.72C291.354 655.576 289.902 655.004 287.995 655.004C286.176 655.004 284.754 655.576 283.727 656.72C282.7 657.835 282.128 659.14 282.011 660.636H293.979ZM321.991 673H317.371V659.712C317.371 656.779 315.948 655.312 313.103 655.312C311.988 655.312 310.947 655.591 309.979 656.148C309.011 656.705 308.234 657.38 307.647 658.172V673H303.027V651.748H307.647V654.652C308.439 653.713 309.495 652.907 310.815 652.232C312.135 651.557 313.572 651.22 315.127 651.22C317.386 651.22 319.087 651.807 320.231 652.98C321.404 654.153 321.991 655.84 321.991 658.04V673ZM211.277 727H206.657V713.14C206.657 710.588 205.499 709.312 203.181 709.312C202.213 709.312 201.275 709.591 200.365 710.148C199.456 710.705 198.752 711.365 198.253 712.128V727H193.633V713.14C193.633 710.588 192.46 709.312 190.113 709.312C189.175 709.312 188.251 709.591 187.341 710.148C186.461 710.705 185.757 711.38 185.229 712.172V727H180.609V705.748H185.229V708.652C185.757 707.86 186.667 707.097 187.957 706.364C189.277 705.601 190.671 705.22 192.137 705.22C195.217 705.22 197.153 706.525 197.945 709.136C198.62 708.08 199.617 707.171 200.937 706.408C202.257 705.616 203.665 705.22 205.161 705.22C209.239 705.22 211.277 707.361 211.277 711.644V727ZM219.55 703.152C218.787 703.152 218.112 702.873 217.526 702.316C216.968 701.759 216.69 701.084 216.69 700.292C216.69 699.5 216.968 698.825 217.526 698.268C218.112 697.711 218.787 697.432 219.55 697.432C220.342 697.432 221.016 697.711 221.574 698.268C222.131 698.825 222.41 699.5 222.41 700.292C222.41 701.084 222.131 701.759 221.574 702.316C221.016 702.873 220.342 703.152 219.55 703.152ZM221.882 727H217.262V705.748H221.882V727ZM246.839 727H242.219V713.712C242.219 710.779 240.796 709.312 237.951 709.312C236.836 709.312 235.795 709.591 234.827 710.148C233.859 710.705 233.081 711.38 232.495 712.172V727H227.875V705.748H232.495V708.652C233.287 707.713 234.343 706.907 235.663 706.232C236.983 705.557 238.42 705.22 239.975 705.22C242.233 705.22 243.935 705.807 245.079 706.98C246.252 708.153 246.839 709.84 246.839 712.04V727ZM259.22 727.528C257.43 727.528 256.066 727.059 255.128 726.12C254.218 725.181 253.764 723.832 253.764 722.072V709.796H250.244V705.748H253.764V699.94H258.384V705.748H262.696V709.796H258.384V720.928C258.384 721.691 258.56 722.307 258.912 722.776C259.264 723.216 259.762 723.436 260.408 723.436C261.346 723.436 262.036 723.187 262.476 722.688L263.576 726.164C262.608 727.073 261.156 727.528 259.22 727.528ZM269.178 703.152C268.416 703.152 267.741 702.873 267.154 702.316C266.597 701.759 266.318 701.084 266.318 700.292C266.318 699.5 266.597 698.825 267.154 698.268C267.741 697.711 268.416 697.432 269.178 697.432C269.97 697.432 270.645 697.711 271.202 698.268C271.76 698.825 272.038 699.5 272.038 700.292C272.038 701.084 271.76 701.759 271.202 702.316C270.645 702.873 269.97 703.152 269.178 703.152ZM271.51 727H266.89V705.748H271.51V727ZM296.468 727H291.848V713.712C291.848 710.779 290.425 709.312 287.58 709.312C286.465 709.312 285.424 709.591 284.456 710.148C283.488 710.705 282.71 711.38 282.124 712.172V727H277.504V705.748H282.124V708.652C282.916 707.713 283.972 706.907 285.292 706.232C286.612 705.557 288.049 705.22 289.604 705.22C291.862 705.22 293.564 705.807 294.708 706.98C295.881 708.153 296.468 709.84 296.468 712.04V727ZM311.093 735.624C307.485 735.624 304.522 734.568 302.205 732.456L304.361 729.112C305.945 730.931 308.189 731.84 311.093 731.84C312.853 731.84 314.334 731.371 315.537 730.432C316.769 729.523 317.385 728.071 317.385 726.076V723.524C315.566 725.871 313.293 727.044 310.565 727.044C307.778 727.044 305.505 726.076 303.745 724.14C302.014 722.204 301.149 719.535 301.149 716.132C301.149 712.759 302.014 710.104 303.745 708.168C305.505 706.203 307.778 705.22 310.565 705.22C313.351 705.22 315.625 706.379 317.385 708.696V705.748H322.005V725.9C322.005 727.719 321.682 729.288 321.037 730.608C320.421 731.957 319.57 732.969 318.485 733.644C317.399 734.348 316.241 734.847 315.009 735.14C313.806 735.463 312.501 735.624 311.093 735.624ZM311.929 722.952C312.985 722.952 314.026 722.673 315.053 722.116C316.079 721.559 316.857 720.884 317.385 720.092V712.172C316.857 711.38 316.079 710.705 315.053 710.148C314.026 709.591 312.985 709.312 311.929 709.312C310.11 709.312 308.658 709.943 307.573 711.204C306.487 712.436 305.945 714.079 305.945 716.132C305.945 718.185 306.487 719.843 307.573 721.104C308.658 722.336 310.11 722.952 311.929 722.952Z" fill="white"/>
<path d="M139.248 347.26C136.432 350.105 132.839 351.528 128.468 351.528C124.097 351.528 120.504 350.105 117.688 347.26C114.872 344.385 113.464 340.748 113.464 336.348C113.464 331.948 114.872 328.325 117.688 325.48C120.504 322.605 124.097 321.168 128.468 321.168C132.839 321.168 136.432 322.605 139.248 325.48C142.064 328.325 143.472 331.948 143.472 336.348C143.472 340.748 142.064 344.385 139.248 347.26ZM128.468 346.952C131.372 346.952 133.719 345.955 135.508 343.96C137.297 341.936 138.192 339.399 138.192 336.348C138.192 333.268 137.297 330.731 135.508 328.736C133.719 326.741 131.372 325.744 128.468 325.744C125.535 325.744 123.173 326.741 121.384 328.736C119.624 330.731 118.744 333.268 118.744 336.348C118.744 339.428 119.624 341.965 121.384 343.96C123.173 345.955 125.535 346.952 128.468 346.952ZM171.661 351H166.821L161.893 335.424L156.965 351H152.125L145.525 329.748H150.321L154.809 345.192L159.869 329.748H163.917L168.977 345.192L173.465 329.748H178.261L171.661 351ZM200.433 351H195.813V337.712C195.813 334.779 194.39 333.312 191.545 333.312C190.43 333.312 189.389 333.591 188.421 334.148C187.453 334.705 186.675 335.38 186.089 336.172V351H181.469V329.748H186.089V332.652C186.881 331.713 187.937 330.907 189.257 330.232C190.577 329.557 192.014 329.22 193.569 329.22C195.827 329.22 197.529 329.807 198.673 330.98C199.846 332.153 200.433 333.84 200.433 336.04V351ZM216.245 351.528C213.019 351.528 210.349 350.501 208.237 348.448C206.155 346.365 205.113 343.667 205.113 340.352C205.113 337.243 206.125 334.617 208.149 332.476C210.203 330.305 212.784 329.22 215.893 329.22C219.032 329.22 221.555 330.305 223.461 332.476C225.397 334.647 226.365 337.419 226.365 340.792V341.892H209.953C210.129 343.564 210.819 344.957 212.021 346.072C213.224 347.187 214.793 347.744 216.729 347.744C217.815 347.744 218.9 347.539 219.985 347.128C221.1 346.717 222.024 346.145 222.757 345.412L224.869 348.448C222.728 350.501 219.853 351.528 216.245 351.528ZM221.877 338.636C221.819 337.169 221.276 335.864 220.249 334.72C219.252 333.576 217.8 333.004 215.893 333.004C214.075 333.004 212.652 333.576 211.625 334.72C210.599 335.835 210.027 337.14 209.909 338.636H221.877ZM235.546 351H230.926V329.748H235.546V332.872C236.367 331.816 237.394 330.951 238.626 330.276C239.858 329.601 241.134 329.264 242.454 329.264V333.84C242.043 333.752 241.559 333.708 241.002 333.708C240.034 333.708 238.992 334.001 237.878 334.588C236.792 335.145 236.015 335.791 235.546 336.524V351ZM253.44 351.528C249.626 351.528 246.59 350.428 244.332 348.228L246.444 344.884C247.236 345.705 248.306 346.409 249.655 346.996C251.005 347.583 252.34 347.876 253.66 347.876C255.009 347.876 256.036 347.612 256.74 347.084C257.473 346.556 257.84 345.867 257.84 345.016C257.84 344.253 257.4 343.667 256.52 343.256C255.64 342.816 254.569 342.479 253.308 342.244C252.046 341.98 250.785 341.672 249.524 341.32C248.262 340.939 247.192 340.279 246.312 339.34C245.432 338.401 244.992 337.184 244.992 335.688C244.992 333.869 245.74 332.344 247.236 331.112C248.732 329.851 250.77 329.22 253.352 329.22C256.608 329.22 259.365 330.217 261.624 332.212L259.688 335.468C259.013 334.705 258.118 334.089 257.004 333.62C255.889 333.151 254.686 332.916 253.396 332.916C252.193 332.916 251.225 333.165 250.492 333.664C249.788 334.133 249.436 334.749 249.436 335.512C249.436 336.099 249.744 336.583 250.36 336.964C251.005 337.316 251.797 337.58 252.736 337.756C253.704 337.932 254.745 338.181 255.86 338.504C256.974 338.797 258.001 339.149 258.94 339.56C259.908 339.971 260.7 340.645 261.316 341.584C261.961 342.493 262.284 343.608 262.284 344.928C262.284 346.864 261.506 348.448 259.952 349.68C258.397 350.912 256.226 351.528 253.44 351.528ZM285.941 351H281.321V337.624C281.321 336.069 280.94 334.969 280.177 334.324C279.444 333.649 278.388 333.312 277.009 333.312C275.924 333.312 274.897 333.591 273.929 334.148C272.961 334.705 272.169 335.38 271.553 336.172V351H266.933V321.652H271.553V332.652C272.345 331.713 273.401 330.907 274.721 330.232C276.071 329.557 277.523 329.22 279.077 329.22C283.653 329.22 285.941 331.464 285.941 335.952V351ZM294.229 327.152C293.467 327.152 292.792 326.873 292.205 326.316C291.648 325.759 291.369 325.084 291.369 324.292C291.369 323.5 291.648 322.825 292.205 322.268C292.792 321.711 293.467 321.432 294.229 321.432C295.021 321.432 295.696 321.711 296.253 322.268C296.811 322.825 297.089 323.5 297.089 324.292C297.089 325.084 296.811 325.759 296.253 326.316C295.696 326.873 295.021 327.152 294.229 327.152ZM296.561 351H291.941V329.748H296.561V351ZM313.995 351.528C311.179 351.528 308.905 350.369 307.175 348.052V359.096H302.555V329.748H307.175V332.652C308.876 330.364 311.149 329.22 313.995 329.22C316.781 329.22 319.04 330.217 320.771 332.212C322.531 334.207 323.411 336.92 323.411 340.352C323.411 343.784 322.531 346.512 320.771 348.536C319.04 350.531 316.781 351.528 313.995 351.528ZM312.631 347.436C314.449 347.436 315.901 346.776 316.987 345.456C318.072 344.136 318.615 342.435 318.615 340.352C318.615 338.269 318.072 336.583 316.987 335.292C315.901 333.972 314.449 333.312 312.631 333.312C311.575 333.312 310.533 333.591 309.507 334.148C308.48 334.705 307.703 335.38 307.175 336.172V344.576C307.703 345.368 308.48 346.043 309.507 346.6C310.533 347.157 311.575 347.436 312.631 347.436ZM182.477 405.528C180.688 405.528 179.324 405.059 178.385 404.12C177.476 403.181 177.021 401.832 177.021 400.072V387.796H173.501V383.748H177.021V377.94H181.641V383.748H185.953V387.796H181.641V398.928C181.641 399.691 181.817 400.307 182.169 400.776C182.521 401.216 183.02 401.436 183.665 401.436C184.604 401.436 185.293 401.187 185.733 400.688L186.833 404.164C185.865 405.073 184.413 405.528 182.477 405.528ZM194.768 405H190.148V383.748H194.768V386.872C195.59 385.816 196.616 384.951 197.848 384.276C199.08 383.601 200.356 383.264 201.676 383.264V387.84C201.266 387.752 200.782 387.708 200.224 387.708C199.256 387.708 198.215 388.001 197.1 388.588C196.015 389.145 195.238 389.791 194.768 390.524V405ZM223.002 405H218.382V402.712C216.739 404.589 214.451 405.528 211.518 405.528C209.582 405.528 207.866 404.912 206.37 403.68C204.874 402.419 204.126 400.688 204.126 398.488C204.126 396.229 204.859 394.513 206.326 393.34C207.822 392.167 209.553 391.58 211.518 391.58C214.539 391.58 216.827 392.489 218.382 394.308V391.14C218.382 389.908 217.927 388.94 217.018 388.236C216.109 387.532 214.906 387.18 213.41 387.18C211.034 387.18 208.937 388.075 207.118 389.864L205.226 386.652C207.631 384.364 210.609 383.22 214.158 383.22C216.769 383.22 218.895 383.836 220.538 385.068C222.181 386.3 223.002 388.251 223.002 390.92V405ZM213.322 402.36C215.639 402.36 217.326 401.627 218.382 400.16V396.948C217.326 395.481 215.639 394.748 213.322 394.748C212.002 394.748 210.917 395.1 210.066 395.804C209.215 396.508 208.79 397.432 208.79 398.576C208.79 399.72 209.215 400.644 210.066 401.348C210.917 402.023 212.002 402.36 213.322 402.36ZM247.956 405H243.336V391.712C243.336 388.779 241.913 387.312 239.068 387.312C237.953 387.312 236.912 387.591 235.944 388.148C234.976 388.705 234.199 389.38 233.612 390.172V405H228.992V383.748H233.612V386.652C234.404 385.713 235.46 384.907 236.78 384.232C238.1 383.557 239.537 383.22 241.092 383.22C243.351 383.22 245.052 383.807 246.196 384.98C247.369 386.153 247.956 387.84 247.956 390.04V405ZM261.217 405.528C257.404 405.528 254.368 404.428 252.109 402.228L254.221 398.884C255.013 399.705 256.084 400.409 257.433 400.996C258.782 401.583 260.117 401.876 261.437 401.876C262.786 401.876 263.813 401.612 264.517 401.084C265.25 400.556 265.617 399.867 265.617 399.016C265.617 398.253 265.177 397.667 264.297 397.256C263.417 396.816 262.346 396.479 261.085 396.244C259.824 395.98 258.562 395.672 257.301 395.32C256.04 394.939 254.969 394.279 254.089 393.34C253.209 392.401 252.769 391.184 252.769 389.688C252.769 387.869 253.517 386.344 255.013 385.112C256.509 383.851 258.548 383.22 261.129 383.22C264.385 383.22 267.142 384.217 269.401 386.212L267.465 389.468C266.79 388.705 265.896 388.089 264.781 387.62C263.666 387.151 262.464 386.916 261.173 386.916C259.97 386.916 259.002 387.165 258.269 387.664C257.565 388.133 257.213 388.749 257.213 389.512C257.213 390.099 257.521 390.583 258.137 390.964C258.782 391.316 259.574 391.58 260.513 391.756C261.481 391.932 262.522 392.181 263.637 392.504C264.752 392.797 265.778 393.149 266.717 393.56C267.685 393.971 268.477 394.645 269.093 395.584C269.738 396.493 270.061 397.608 270.061 398.928C270.061 400.864 269.284 402.448 267.729 403.68C266.174 404.912 264.004 405.528 261.217 405.528ZM280.431 405H275.811V387.796H272.291V383.748H275.811V382.56C275.811 380.272 276.412 378.483 277.615 377.192C278.847 375.872 280.489 375.212 282.543 375.212C284.743 375.212 286.444 375.828 287.647 377.06L285.843 379.92C285.168 379.304 284.347 378.996 283.379 378.996C282.469 378.996 281.751 379.304 281.223 379.92C280.695 380.507 280.431 381.387 280.431 382.56V383.748H284.743V387.796H280.431V405ZM298.058 405.528C294.831 405.528 292.162 404.501 290.05 402.448C287.967 400.365 286.926 397.667 286.926 394.352C286.926 391.243 287.938 388.617 289.962 386.476C292.015 384.305 294.597 383.22 297.706 383.22C300.845 383.22 303.367 384.305 305.274 386.476C307.21 388.647 308.178 391.419 308.178 394.792V395.892H291.766C291.942 397.564 292.631 398.957 293.834 400.072C295.037 401.187 296.606 401.744 298.542 401.744C299.627 401.744 300.713 401.539 301.798 401.128C302.913 400.717 303.837 400.145 304.57 399.412L306.682 402.448C304.541 404.501 301.666 405.528 298.058 405.528ZM303.69 392.636C303.631 391.169 303.089 389.864 302.062 388.72C301.065 387.576 299.613 387.004 297.706 387.004C295.887 387.004 294.465 387.576 293.438 388.72C292.411 389.835 291.839 391.14 291.722 392.636H303.69ZM317.358 405H312.738V383.748H317.358V386.872C318.179 385.816 319.206 384.951 320.438 384.276C321.67 383.601 322.946 383.264 324.266 383.264V387.84C323.855 387.752 323.371 387.708 322.814 387.708C321.846 387.708 320.805 388.001 319.69 388.588C318.605 389.145 317.827 389.791 317.358 390.524V405Z" fill="white"/>
<path d="M631.803 970H626.655V945.184H617.767V940.652H640.691V945.184H631.803V970ZM646.233 970H641.613V948.748H646.233V951.872C647.054 950.816 648.081 949.951 649.313 949.276C650.545 948.601 651.821 948.264 653.141 948.264V952.84C652.73 952.752 652.246 952.708 651.689 952.708C650.721 952.708 649.68 953.001 648.565 953.588C647.48 954.145 646.702 954.791 646.233 955.524V970ZM674.467 970H669.847V967.712C668.204 969.589 665.916 970.528 662.983 970.528C661.047 970.528 659.331 969.912 657.835 968.68C656.339 967.419 655.591 965.688 655.591 963.488C655.591 961.229 656.324 959.513 657.791 958.34C659.287 957.167 661.018 956.58 662.983 956.58C666.004 956.58 668.292 957.489 669.847 959.308V956.14C669.847 954.908 669.392 953.94 668.483 953.236C667.574 952.532 666.371 952.18 664.875 952.18C662.499 952.18 660.402 953.075 658.583 954.864L656.691 951.652C659.096 949.364 662.074 948.22 665.623 948.22C668.234 948.22 670.36 948.836 672.003 950.068C673.646 951.3 674.467 953.251 674.467 955.92V970ZM664.787 967.36C667.104 967.36 668.791 966.627 669.847 965.16V961.948C668.791 960.481 667.104 959.748 664.787 959.748C663.467 959.748 662.382 960.1 661.531 960.804C660.68 961.508 660.255 962.432 660.255 963.576C660.255 964.72 660.68 965.644 661.531 966.348C662.382 967.023 663.467 967.36 664.787 967.36ZM699.421 970H694.801V956.712C694.801 953.779 693.378 952.312 690.533 952.312C689.418 952.312 688.377 952.591 687.409 953.148C686.441 953.705 685.664 954.38 685.077 955.172V970H680.457V948.748H685.077V951.652C685.869 950.713 686.925 949.907 688.245 949.232C689.565 948.557 691.002 948.22 692.557 948.22C694.816 948.22 696.517 948.807 697.661 949.98C698.834 951.153 699.421 952.84 699.421 955.04V970ZM712.682 970.528C708.868 970.528 705.832 969.428 703.574 967.228L705.686 963.884C706.478 964.705 707.548 965.409 708.898 965.996C710.247 966.583 711.582 966.876 712.902 966.876C714.251 966.876 715.278 966.612 715.982 966.084C716.715 965.556 717.082 964.867 717.082 964.016C717.082 963.253 716.642 962.667 715.762 962.256C714.882 961.816 713.811 961.479 712.55 961.244C711.288 960.98 710.027 960.672 708.766 960.32C707.504 959.939 706.434 959.279 705.554 958.34C704.674 957.401 704.234 956.184 704.234 954.688C704.234 952.869 704.982 951.344 706.478 950.112C707.974 948.851 710.012 948.22 712.594 948.22C715.85 948.22 718.607 949.217 720.866 951.212L718.93 954.468C718.255 953.705 717.36 953.089 716.246 952.62C715.131 952.151 713.928 951.916 712.638 951.916C711.435 951.916 710.467 952.165 709.734 952.664C709.03 953.133 708.678 953.749 708.678 954.512C708.678 955.099 708.986 955.583 709.602 955.964C710.247 956.316 711.039 956.58 711.978 956.756C712.946 956.932 713.987 957.181 715.102 957.504C716.216 957.797 717.243 958.149 718.182 958.56C719.15 958.971 719.942 959.645 720.558 960.584C721.203 961.493 721.526 962.608 721.526 963.928C721.526 965.864 720.748 967.448 719.194 968.68C717.639 969.912 715.468 970.528 712.682 970.528ZM731.896 970H727.276V952.796H723.756V948.748H727.276V947.56C727.276 945.272 727.877 943.483 729.08 942.192C730.312 940.872 731.954 940.212 734.008 940.212C736.208 940.212 737.909 940.828 739.112 942.06L737.308 944.92C736.633 944.304 735.812 943.996 734.844 943.996C733.934 943.996 733.216 944.304 732.688 944.92C732.16 945.507 731.896 946.387 731.896 947.56V948.748H736.208V952.796H731.896V970ZM749.523 970.528C746.296 970.528 743.627 969.501 741.515 967.448C739.432 965.365 738.391 962.667 738.391 959.352C738.391 956.243 739.403 953.617 741.427 951.476C743.48 949.305 746.061 948.22 749.171 948.22C752.309 948.22 754.832 949.305 756.739 951.476C758.675 953.647 759.643 956.419 759.643 959.792V960.892H743.231C743.407 962.564 744.096 963.957 745.299 965.072C746.501 966.187 748.071 966.744 750.007 966.744C751.092 966.744 752.177 966.539 753.263 966.128C754.377 965.717 755.301 965.145 756.035 964.412L758.147 967.448C756.005 969.501 753.131 970.528 749.523 970.528ZM755.155 957.636C755.096 956.169 754.553 954.864 753.527 953.72C752.529 952.576 751.077 952.004 749.171 952.004C747.352 952.004 745.929 952.576 744.903 953.72C743.876 954.835 743.304 956.14 743.187 957.636H755.155ZM768.823 970H764.203V948.748H768.823V951.872C769.644 950.816 770.671 949.951 771.903 949.276C773.135 948.601 774.411 948.264 775.731 948.264V952.84C775.32 952.752 774.836 952.708 774.279 952.708C773.311 952.708 772.27 953.001 771.155 953.588C770.07 954.145 769.292 954.791 768.823 955.524V970ZM655.5 1024H650.88V1021.1C649.12 1023.38 646.846 1024.53 644.06 1024.53C641.273 1024.53 639 1023.53 637.24 1021.54C635.48 1019.54 634.6 1016.83 634.6 1013.4C634.6 1009.99 635.48 1007.28 637.24 1005.26C639 1003.23 641.273 1002.22 644.06 1002.22C646.846 1002.22 649.12 1003.38 650.88 1005.7V994.652H655.5V1024ZM645.38 1020.44C646.465 1020.44 647.521 1020.17 648.548 1019.64C649.574 1019.12 650.352 1018.44 650.88 1017.62V1009.17C650.352 1008.35 649.574 1007.68 648.548 1007.15C647.521 1006.59 646.465 1006.31 645.38 1006.31C643.561 1006.31 642.109 1006.97 641.024 1008.29C639.938 1009.61 639.396 1011.31 639.396 1013.4C639.396 1015.48 639.938 1017.18 641.024 1018.5C642.109 1019.79 643.561 1020.44 645.38 1020.44ZM671.298 1024.53C668.071 1024.53 665.402 1023.5 663.29 1021.45C661.207 1019.37 660.166 1016.67 660.166 1013.35C660.166 1010.24 661.178 1007.62 663.202 1005.48C665.255 1003.31 667.837 1002.22 670.946 1002.22C674.085 1002.22 676.607 1003.31 678.514 1005.48C680.45 1007.65 681.418 1010.42 681.418 1013.79V1014.89H665.006C665.182 1016.56 665.871 1017.96 667.074 1019.07C668.277 1020.19 669.846 1020.74 671.782 1020.74C672.867 1020.74 673.953 1020.54 675.038 1020.13C676.153 1019.72 677.077 1019.15 677.81 1018.41L679.922 1021.45C677.781 1023.5 674.906 1024.53 671.298 1024.53ZM676.93 1011.64C676.871 1010.17 676.329 1008.86 675.302 1007.72C674.305 1006.58 672.853 1006 670.946 1006C669.127 1006 667.705 1006.58 666.678 1007.72C665.651 1008.83 665.079 1010.14 664.962 1011.64H676.93ZM690.598 1024H685.978V994.652H690.598V1024ZM714.192 1024H709.572V1021.71C707.929 1023.59 705.641 1024.53 702.708 1024.53C700.772 1024.53 699.056 1023.91 697.56 1022.68C696.064 1021.42 695.316 1019.69 695.316 1017.49C695.316 1015.23 696.049 1013.51 697.516 1012.34C699.012 1011.17 700.742 1010.58 702.708 1010.58C705.729 1010.58 708.017 1011.49 709.572 1013.31V1010.14C709.572 1008.91 709.117 1007.94 708.208 1007.24C707.298 1006.53 706.096 1006.18 704.6 1006.18C702.224 1006.18 700.126 1007.07 698.308 1008.86L696.416 1005.65C698.821 1003.36 701.798 1002.22 705.348 1002.22C707.958 1002.22 710.085 1002.84 711.728 1004.07C713.37 1005.3 714.192 1007.25 714.192 1009.92V1024ZM704.512 1021.36C706.829 1021.36 708.516 1020.63 709.572 1019.16V1015.95C708.516 1014.48 706.829 1013.75 704.512 1013.75C703.192 1013.75 702.106 1014.1 701.256 1014.8C700.405 1015.51 699.98 1016.43 699.98 1017.58C699.98 1018.72 700.405 1019.64 701.256 1020.35C702.106 1021.02 703.192 1021.36 704.512 1021.36ZM719.257 1032.32L719.961 1028.18C720.489 1028.41 721.076 1028.53 721.721 1028.53C723.217 1028.53 724.229 1027.92 724.757 1026.68L725.813 1024.26L717.101 1002.75H722.029L728.233 1018.68L734.437 1002.75H739.409L729.157 1027.83C727.896 1030.97 725.461 1032.57 721.853 1032.62C720.885 1032.62 720.02 1032.52 719.257 1032.32ZM749.57 1024.53C745.757 1024.53 742.721 1023.43 740.462 1021.23L742.574 1017.88C743.366 1018.71 744.437 1019.41 745.786 1020C747.136 1020.58 748.47 1020.88 749.79 1020.88C751.14 1020.88 752.166 1020.61 752.87 1020.08C753.604 1019.56 753.97 1018.87 753.97 1018.02C753.97 1017.25 753.53 1016.67 752.65 1016.26C751.77 1015.82 750.7 1015.48 749.438 1015.24C748.177 1014.98 746.916 1014.67 745.654 1014.32C744.393 1013.94 743.322 1013.28 742.442 1012.34C741.562 1011.4 741.122 1010.18 741.122 1008.69C741.122 1006.87 741.87 1005.34 743.366 1004.11C744.862 1002.85 746.901 1002.22 749.482 1002.22C752.738 1002.22 755.496 1003.22 757.754 1005.21L755.818 1008.47C755.144 1007.71 754.249 1007.09 753.134 1006.62C752.02 1006.15 750.817 1005.92 749.526 1005.92C748.324 1005.92 747.356 1006.17 746.622 1006.66C745.918 1007.13 745.566 1007.75 745.566 1008.51C745.566 1009.1 745.874 1009.58 746.49 1009.96C747.136 1010.32 747.928 1010.58 748.866 1010.76C749.834 1010.93 750.876 1011.18 751.99 1011.5C753.105 1011.8 754.132 1012.15 755.07 1012.56C756.038 1012.97 756.83 1013.65 757.446 1014.58C758.092 1015.49 758.414 1016.61 758.414 1017.93C758.414 1019.86 757.637 1021.45 756.082 1022.68C754.528 1023.91 752.357 1024.53 749.57 1024.53Z" fill="white"/>
<circle cx="425.5" cy="685.5" r="60.5" fill="#455CFF"/>
<circle cx="425.5" cy="363.5" r="60.5" fill="#585BFE"/>
<circle cx="975.5" cy="363.5" r="60.5" fill="#27C4F6"/>
<circle cx="975.5" cy="685.5" r="60.5" fill="#2BA2FF"/>
<ellipse cx="701" cy="208.5" rx="60" ry="60.5" fill="#3DDCD4"/>
<ellipse cx="701" cy="838.5" rx="60" ry="60.5" fill="#3A79FF"/>
</svg>
