<svg width="500" height="104" viewBox="0 0 500 104" fill="none" xmlns="http://www.w3.org/2000/svg">
<path d="M115.066 22.1164L72.2316 96.3088C70.9364 98.5463 69.0756 100.404 66.8359 101.695C64.5962 102.987 62.0563 103.667 59.471 103.667C56.8856 103.667 54.3457 102.987 52.106 101.695C49.8663 100.404 48.0056 98.5463 46.7104 96.3088L39.2014 83.3126C39.1773 83.2803 39.1669 83.2398 39.1726 83.1999C39.1783 83.16 39.1996 83.1239 39.2318 83.0998C39.2641 83.0756 39.3046 83.0652 39.3445 83.0709C39.3845 83.0766 39.4205 83.0979 39.4446 83.1302C40.7841 84.4525 42.4083 85.4509 44.193 86.0491C45.9776 86.6473 47.8754 86.8294 49.7412 86.5815C51.607 86.3336 53.3914 85.6623 54.958 84.6188C56.5245 83.5754 57.8316 82.1875 58.7794 80.5613L94.6367 18.3923C95.5821 16.7509 96.137 14.914 96.2585 13.0238C96.3799 11.1336 96.0647 9.24074 95.3373 7.49187C94.6098 5.74301 93.4896 4.18504 92.0634 2.9386C90.6371 1.69216 88.9432 0.790699 87.1126 0.304014C87.0723 0.304014 87.0336 0.287999 87.0051 0.259493C86.9766 0.230987 86.9606 0.192325 86.9606 0.152012C86.9606 0.111698 86.9766 0.0730355 87.0051 0.0445295C87.0336 0.0160235 87.0723 9.03784e-06 87.1126 9.03784e-06H102.313C104.9 0.00279404 107.44 0.686099 109.679 1.98131C111.919 3.27653 113.778 5.13806 115.07 7.379C116.362 9.61994 117.042 12.1614 117.041 14.7482C117.041 17.335 116.359 19.8761 115.066 22.1164V22.1164ZM64.3579 9.03784e-06H49.5072C49.4768 0.0100046 49.4503 0.0293461 49.4315 0.0552758C49.4128 0.0812056 49.4027 0.1124 49.4027 0.144411C49.4027 0.176423 49.4128 0.207617 49.4315 0.233547C49.4503 0.259477 49.4768 0.278818 49.5072 0.288814C50.5074 0.675154 51.4125 1.27291 52.1604 2.04121C52.9084 2.80951 53.4816 3.73025 53.841 4.74049C54.2003 5.75072 54.3373 6.82664 54.2426 7.8947C54.1479 8.96276 53.8236 9.99777 53.2921 10.929L31.6469 48.3672C31.0877 49.3165 30.3252 50.1303 29.4142 50.75C28.5032 51.3698 27.4662 51.7801 26.3778 51.9516C25.2894 52.123 24.1766 52.0514 23.1191 51.7418C22.0617 51.4322 21.086 50.8923 20.2619 50.1608C20.2377 50.1286 20.2017 50.1073 20.1618 50.1016C20.1219 50.0959 20.0814 50.1062 20.0491 50.1304C20.0169 50.1546 19.9956 50.1906 19.9899 50.2305C19.9842 50.2704 19.9945 50.311 20.0187 50.3432L27.6189 63.537C28.4722 65.0176 29.7005 66.2473 31.1801 67.1024C32.6597 67.9574 34.3385 68.4075 36.0474 68.4075C37.7563 68.4075 39.4351 67.9574 40.9147 67.1024C42.3943 66.2473 43.6226 65.0176 44.4759 63.537L72.794 14.5922C73.6483 13.1125 74.0978 11.4339 74.0973 9.72534C74.0968 8.01673 73.6463 6.33839 72.7912 4.85919C71.936 3.37999 70.7063 2.15211 69.2259 1.29909C67.7455 0.446078 66.0665 -0.0019772 64.3579 9.03784e-06V9.03784e-06ZM12.8138 9.03784e-06C10.2795 9.03784e-06 7.80206 0.751526 5.69484 2.15953C3.58762 3.56752 1.94525 5.56877 0.975399 7.91018C0.00555209 10.2516 -0.248204 12.828 0.24622 15.3137C0.740643 17.7993 1.96104 20.0825 3.75308 21.8745C5.54513 23.6666 7.82833 24.887 10.314 25.3814C12.7996 25.8758 15.376 25.6221 17.7174 24.6522C20.0589 23.6824 22.0601 22.04 23.4681 19.9328C24.8761 17.8256 25.6276 15.3481 25.6276 12.8138C25.6296 11.1305 25.2996 9.46336 24.6563 7.90782C24.0131 6.35227 23.0693 4.9389 21.879 3.74863C20.6887 2.55836 19.2754 1.61457 17.7198 0.971328C16.1643 0.328082 14.4971 -0.00199132 12.8138 9.03784e-06V9.03784e-06Z" fill="url(#paint0_linear_532_487)"/>
<path d="M217.917 23.2494H205.118L187.627 64.888L170.22 23.2494H157.422L182.081 80.4171H193.258L217.917 23.2494Z" fill="white"/>
<path d="M280.931 69.9222H249.105V56.9528H278.286V46.6285H249.105V33.7444H280.76V23.2494H237.5V80.4171H280.931V69.9222Z" fill="white"/>
<path d="M357.364 23.2494H345.76V60.9631L314.104 23.2494H304.377V80.4171H315.981V43.7274L347.637 80.4171H357.364V23.2494Z" fill="white"/>
<path d="M431.319 23.2494H419.715V54.8197C419.715 59.5979 418.52 63.4375 416.131 66.3385C413.742 69.2396 410.585 70.6048 406.745 70.6048C402.65 70.6048 399.322 69.2396 396.848 66.3385C394.373 63.4375 393.179 59.5979 393.179 54.8197V23.2494H381.574V54.8197C381.574 62.8402 383.878 69.3249 388.486 74.2737C393.093 79.2226 399.151 81.697 406.745 81.697C414.083 81.697 420.056 79.2226 424.578 74.2737C429.015 69.3249 431.319 62.8402 431.319 54.8197V23.2494Z" fill="white"/>
<path d="M476.536 21.9695C469.88 21.9695 464.59 23.5907 460.665 26.8331C456.74 30.0754 454.778 34.2563 454.778 39.3758C454.778 48.2496 459.727 53.7104 469.795 55.7582L481.911 58.062C484.3 58.5739 486.007 59.3419 487.031 60.2804C488.055 61.3043 488.567 62.5842 488.567 64.2907C488.567 66.4238 487.628 68.1303 485.921 69.4955C484.13 70.8607 481.655 71.5433 478.413 71.5433C471.331 71.5433 467.065 68.4716 465.614 62.2429L453.413 64.7174C454.095 70.1782 456.655 74.4444 461.092 77.3454C465.529 80.2465 470.99 81.697 477.304 81.697C484.13 81.697 489.59 80.0758 493.771 76.8335C497.867 73.5911 500 69.2396 500 63.6934C500 59.3419 498.635 55.7582 495.99 53.0278C493.345 50.2974 489.676 48.335 484.983 47.3111L472.696 44.8366C468.856 44.154 466.979 42.1916 466.979 39.0345C466.979 37.0721 467.833 35.3656 469.539 34.0004C471.246 32.6352 473.464 31.9526 476.28 31.9526C479.181 31.9526 481.655 32.8058 483.788 34.427C485.836 36.0482 487.116 38.1813 487.543 40.8264L499.147 38.4373C498.038 33.4031 495.478 29.3928 491.382 26.4064C487.287 23.5054 482.338 21.9695 476.536 21.9695Z" fill="white"/>
<defs>
<linearGradient id="paint0_linear_532_487" x1="115.544" y1="82.0362" x2="-18.2847" y2="-8.8454" gradientUnits="userSpaceOnUse">
<stop stop-color="#5433FF"/>
<stop offset="0.5" stop-color="#20BDFF"/>
<stop offset="1" stop-color="#5CFFA2"/>
</linearGradient>
</defs>
</svg>
