<svg width="320" height="320" viewBox="0 0 320 320" fill="none" xmlns="http://www.w3.org/2000/svg">
<g clip-path="url(#clip0_532_519)">
<circle cx="160" cy="160" r="160" fill="#1E2431"/>
<path d="M252.759 125.896L182.492 247.605C180.367 251.275 177.315 254.323 173.641 256.441C169.967 258.56 165.8 259.675 161.559 259.675C157.318 259.675 153.151 258.56 149.477 256.441C145.803 254.323 142.751 251.275 140.626 247.605L128.308 226.285C128.268 226.232 128.251 226.166 128.261 226.1C128.27 226.035 128.305 225.976 128.358 225.936C128.411 225.896 128.477 225.879 128.543 225.889C128.608 225.898 128.667 225.933 128.707 225.986C130.904 228.155 133.569 229.793 136.496 230.774C139.424 231.756 142.537 232.054 145.598 231.648C148.659 231.241 151.586 230.14 154.156 228.428C156.725 226.716 158.87 224.44 160.424 221.772L219.247 119.787C220.797 117.094 221.708 114.081 221.907 110.98C222.106 107.879 221.589 104.774 220.396 101.905C219.202 99.0363 217.365 96.4806 215.025 94.4359C212.685 92.3911 209.907 90.9123 206.904 90.114C206.838 90.114 206.774 90.0877 206.727 90.0409C206.681 89.9942 206.654 89.9307 206.654 89.8646C206.654 89.7985 206.681 89.735 206.727 89.6883C206.774 89.6415 206.838 89.6152 206.904 89.6152H231.839C236.082 89.6198 240.25 90.7407 243.923 92.8655C247.597 94.9902 250.646 98.0439 252.766 101.72C254.886 105.396 256.001 109.565 256 113.809C255.999 118.052 254.881 122.221 252.759 125.896V125.896ZM169.576 89.6152H145.214C145.164 89.6316 145.121 89.6634 145.09 89.7059C145.059 89.7484 145.042 89.7996 145.042 89.8521C145.042 89.9046 145.059 89.9558 145.09 89.9984C145.121 90.0409 145.164 90.0726 145.214 90.089C146.855 90.7228 148.339 91.7034 149.566 92.9637C150.793 94.2241 151.734 95.7345 152.323 97.3918C152.913 99.049 153.137 100.814 152.982 102.566C152.827 104.318 152.295 106.016 151.423 107.544L115.915 168.959C114.998 170.516 113.747 171.851 112.252 172.868C110.758 173.885 109.057 174.558 107.271 174.839C105.486 175.12 103.66 175.003 101.926 174.495C100.191 173.987 98.5904 173.101 97.2386 171.901C97.199 171.849 97.1399 171.814 97.0744 171.804C97.0089 171.795 96.9424 171.812 96.8895 171.852C96.8366 171.891 96.8017 171.95 96.7923 172.016C96.783 172.081 96.8 172.148 96.8397 172.201L109.307 193.844C110.707 196.273 112.722 198.291 115.149 199.693C117.577 201.096 120.33 201.834 123.134 201.834C125.937 201.834 128.691 201.096 131.118 199.693C133.546 198.291 135.561 196.273 136.96 193.844L183.415 113.553C184.816 111.126 185.554 108.372 185.553 105.569C185.552 102.766 184.813 100.013 183.41 97.5865C182.007 95.1599 179.99 93.1457 177.561 91.7463C175.133 90.347 172.379 89.612 169.576 89.6152V89.6152ZM85.0204 89.6152C80.8629 89.6152 76.7989 90.8481 73.3421 93.1578C69.8853 95.4676 67.1911 98.7505 65.6001 102.591C64.0091 106.432 63.5928 110.659 64.4039 114.736C65.215 118.814 67.217 122.56 70.1567 125.499C73.0965 128.439 76.842 130.441 80.9195 131.252C84.9971 132.063 89.2236 131.647 93.0645 130.056C96.9055 128.465 100.188 125.771 102.498 122.314C104.808 118.857 106.041 114.793 106.041 110.636C106.044 107.874 105.503 105.139 104.447 102.588C103.392 100.036 101.844 97.7172 99.8914 95.7647C97.9388 93.8121 95.6202 92.2639 93.0684 91.2086C90.5166 90.1534 87.7817 89.612 85.0204 89.6152V89.6152Z" fill="url(#paint0_linear_532_519)"/>
</g>
<defs>
<linearGradient id="paint0_linear_532_519" x1="253.544" y1="224.191" x2="34.0049" y2="75.1048" gradientUnits="userSpaceOnUse">
<stop stop-color="#5433FF"/>
<stop offset="0.5" stop-color="#20BDFF"/>
<stop offset="1" stop-color="#5CFFA2"/>
</linearGradient>
<clipPath id="clip0_532_519">
<rect width="320" height="320" fill="white"/>
</clipPath>
</defs>
</svg>
